<svg width="24" height="24" viewBox="0 0 24 24" fill="none" xmlns="http://www.w3.org/2000/svg">
<path fill-rule="evenodd" clip-rule="evenodd" d="M11.7436 10.9126L14.2766 8.3796C14.577 8.0792 15.0641 8.0792 15.3645 8.3796C15.6649 8.68 15.6649 9.16705 15.3645 9.46746L12.8315 12.0005L15.3645 14.5335C15.6649 14.8339 15.6649 15.3209 15.3645 15.6213C15.0641 15.9217 14.577 15.9217 14.2766 15.6213L11.7436 13.0883L9.21062 15.6213C8.91022 15.9217 8.42317 15.9217 8.12276 15.6213C7.82236 15.3209 7.82236 14.8338 8.12276 14.5334L10.6558 12.0005L8.12279 9.46748C7.82238 9.16708 7.82238 8.68003 8.12279 8.37962C8.42319 8.07922 8.91024 8.07922 9.21064 8.37962L11.7436 10.9126Z" fill="#101010"/>
</svg>
