<svg width="36" height="36" viewBox="0 0 36 36" fill="none" xmlns="http://www.w3.org/2000/svg">
<rect width="36" height="36" rx="6" fill="white"/>
<path d="M8.74994 24.6498C8.33994 24.6498 7.99994 24.3098 7.99994 23.8998V18.1998C7.94994 15.4898 8.95994 12.9298 10.8399 11.0098C12.7199 9.0998 15.2399 8.0498 17.9499 8.0498C23.4899 8.0498 27.9999 12.5598 27.9999 18.0998V23.7998C27.9999 24.2098 27.6599 24.5498 27.2499 24.5498C26.8399 24.5498 26.4999 24.2098 26.4999 23.7998V18.0998C26.4999 13.3898 22.6699 9.5498 17.9499 9.5498C15.6399 9.5498 13.4999 10.4398 11.9099 12.0598C10.3099 13.6898 9.45994 15.8598 9.49994 18.1798V23.8898C9.49994 24.3098 9.16994 24.6498 8.74994 24.6498Z" fill="#EDAE10"/>
<path d="M11.94 18.4502H11.81C9.71 18.4502 8 20.1602 8 22.2602V24.1402C8 26.2402 9.71 27.9502 11.81 27.9502H11.94C14.04 27.9502 15.75 26.2402 15.75 24.1402V22.2602C15.75 20.1602 14.04 18.4502 11.94 18.4502Z" fill="#EDAE10"/>
<path d="M24.19 18.4502H24.06C21.96 18.4502 20.25 20.1602 20.25 22.2602V24.1402C20.25 26.2402 21.96 27.9502 24.06 27.9502H24.19C26.29 27.9502 28 26.2402 28 24.1402V22.2602C28 20.1602 26.29 18.4502 24.19 18.4502Z" fill="#EDAE10"/>
</svg>
