<svg width="30" height="30" viewBox="0 0 30 30" fill="none" xmlns="http://www.w3.org/2000/svg">
<circle cx="15" cy="15" r="14.5" fill="#FEC400" stroke="#FEC400"/>
<rect width="16" height="16" transform="translate(7 7)" fill="#FEC400"/>
<path d="M14.3333 8.33301H13C9.66668 8.33301 8.33334 9.66634 8.33334 12.9997L8.33334 16.9997C8.33334 20.333 9.66668 21.6663 13 21.6663H17C20.3333 21.6663 21.6667 20.333 21.6667 16.9997V15.6663" stroke="black" stroke-linecap="round" stroke-linejoin="round"/>
<path d="M17.6933 9.0135L12.44 14.2668C12.24 14.4668 12.04 14.8602 12 15.1468L11.7133 17.1535C11.6067 17.8802 12.12 18.3868 12.8467 18.2868L14.8533 18.0002C15.1333 17.9602 15.5267 17.7602 15.7333 17.5602L20.9867 12.3068C21.8933 11.4002 22.32 10.3468 20.9867 9.0135C19.6533 7.68017 18.6 8.10684 17.6933 9.0135Z" stroke="black" stroke-miterlimit="10" stroke-linecap="round" stroke-linejoin="round"/>
<path d="M16.94 9.7666C17.3867 11.3599 18.6333 12.6066 20.2333 13.0599" stroke="black" stroke-miterlimit="10" stroke-linecap="round" stroke-linejoin="round"/>
</svg>
