<svg width="191" height="24" viewBox="0 0 191 24" fill="none" xmlns="http://www.w3.org/2000/svg">
<path d="M13.5001 20.0993L19.5896 23.7824C20.7048 24.4574 22.0695 23.4595 21.776 22.1976L20.1619 15.2716L25.5471 10.6054C26.5303 9.75433 26.002 8.14023 24.7107 8.03751L17.6234 7.43589L14.85 0.891426C14.3511 -0.297142 12.649 -0.297142 12.1501 0.891426L9.37675 7.42122L2.28936 8.02284C0.998078 8.12555 0.469825 9.73966 1.45296 10.5907L6.8382 15.257L5.2241 22.1829C4.93062 23.4449 6.29528 24.4427 7.41048 23.7677L13.5001 20.0993Z" fill="#FBC02D"/>
<path d="M95.5001 20.0993L101.59 23.7824C102.705 24.4574 104.069 23.4595 103.776 22.1976L102.162 15.2716L107.547 10.6054C108.53 9.75433 108.002 8.14023 106.711 8.03751L99.6234 7.43589L96.85 0.891426C96.3511 -0.297142 94.649 -0.297142 94.1501 0.891426L91.3767 7.42122L84.2894 8.02284C82.9981 8.12555 82.4698 9.73966 83.453 10.5907L88.8382 15.257L87.2241 22.1829C86.9306 23.4449 88.2953 24.4427 89.4105 23.7677L95.5001 20.0993Z" fill="#FBC02D"/>
<path d="M54.5001 20.0993L60.5896 23.7824C61.7048 24.4574 63.0695 23.4595 62.776 22.1976L61.1619 15.2716L66.5471 10.6054C67.5303 9.75433 67.002 8.14023 65.7107 8.03751L58.6234 7.43589L55.85 0.891426C55.3511 -0.297142 53.649 -0.297142 53.1501 0.891426L50.3767 7.42122L43.2894 8.02284C41.9981 8.12555 41.4698 9.73966 42.453 10.5907L47.8382 15.257L46.2241 22.1829C45.9306 23.4449 47.2953 24.4427 48.4105 23.7677L54.5001 20.0993Z" fill="#FBC02D"/>
<path d="M136.5 20.0993L142.59 23.7824C143.705 24.4574 145.069 23.4595 144.776 22.1976L143.162 15.2716L148.547 10.6054C149.53 9.75433 149.002 8.14023 147.711 8.03751L140.623 7.43589L137.85 0.891426C137.351 -0.297142 135.649 -0.297142 135.15 0.891426L132.377 7.42122L125.289 8.02284C123.998 8.12555 123.47 9.73966 124.453 10.5907L129.838 15.257L128.224 22.1829C127.931 23.4449 129.295 24.4427 130.41 23.7677L136.5 20.0993Z" fill="#FBC02D"/>
<path d="M177.5 20.0993L183.59 23.7824C184.705 24.4574 186.069 23.4595 185.776 22.1976L184.162 15.2716L189.547 10.6054C190.53 9.75433 190.002 8.14023 188.711 8.03751L181.623 7.43589L178.85 0.891426C178.351 -0.297142 176.649 -0.297142 176.15 0.891426L173.377 7.42122L166.289 8.02284C164.998 8.12555 164.47 9.73966 165.453 10.5907L170.838 15.257L169.224 22.1829C168.931 23.4449 170.295 24.4427 171.41 23.7677L177.5 20.0993Z" fill="#E0DBD5"/>
</svg>
