<svg width="375" height="70" viewBox="0 0 375 70" fill="none" xmlns="http://www.w3.org/2000/svg">
<mask id="path-1-outside-1_8_2126" maskUnits="userSpaceOnUse" x="0" y="0" width="375" height="70" fill="black">
<rect fill="white" width="375" height="70"/>
<path d="M0 1H375V70H0V1Z"/>
</mask>
<path d="M0 2H375V0H0V2Z" fill="#AFAFAF" mask="url(#path-1-outside-1_8_2126)"/>
<rect y="1" width="375" height="69" fill="white"/>
<path d="M38 22.0843L46 15.0843L54 22.0843V33.0843H49V26.0843H43V33.0843H38V22.0843Z" fill="black"/>
<path d="M34.514 47.7683H35.618V56.0843H34.514V52.3283H30.326V56.0843H29.234V47.7683H30.326V51.4643H34.514V47.7683ZM40.2217 55.2923C40.8377 55.2923 41.3697 55.0723 41.8177 54.6323C42.2737 54.1843 42.5017 53.5683 42.5017 52.7843C42.5017 52.0003 42.2857 51.3883 41.8537 50.9483C41.4217 50.5083 40.8937 50.2883 40.2697 50.2883C39.6537 50.2883 39.1377 50.5083 38.7217 50.9483C38.3057 51.3883 38.0977 52.0043 38.0977 52.7963C38.0977 53.5803 38.2977 54.1923 38.6977 54.6323C39.0977 55.0723 39.6057 55.2923 40.2217 55.2923ZM37.8817 55.2563C37.2817 54.6323 36.9817 53.8123 36.9817 52.7963C36.9817 51.7803 37.2977 50.9603 37.9297 50.3363C38.5617 49.7043 39.3537 49.3883 40.3057 49.3883C41.2577 49.3883 42.0497 49.7043 42.6817 50.3363C43.3137 50.9603 43.6297 51.7803 43.6297 52.7963C43.6297 53.8043 43.2977 54.6243 42.6337 55.2563C41.9777 55.8803 41.1737 56.1923 40.2217 56.1923C39.2697 56.1923 38.4897 55.8803 37.8817 55.2563ZM46.0877 49.4963V50.5643C46.5357 49.7803 47.2517 49.3883 48.2357 49.3883C48.7397 49.3883 49.1957 49.5123 49.6037 49.7603C50.0117 50.0003 50.3197 50.3523 50.5277 50.8163C50.7677 50.3683 51.0917 50.0203 51.4997 49.7723C51.9157 49.5163 52.3877 49.3883 52.9157 49.3883C53.6597 49.3883 54.2757 49.6323 54.7637 50.1203C55.2517 50.6003 55.4957 51.2883 55.4957 52.1843V56.0843H54.4157V52.3643C54.4157 51.7003 54.2517 51.1963 53.9237 50.8523C53.6037 50.5083 53.1637 50.3363 52.6037 50.3363C52.0437 50.3363 51.5997 50.5083 51.2717 50.8523C50.9517 51.1963 50.7917 51.7003 50.7917 52.3643V56.0843H49.7117V52.3643C49.7117 51.7003 49.5517 51.1963 49.2317 50.8523C48.9117 50.5083 48.4677 50.3363 47.8997 50.3363C47.3397 50.3363 46.8957 50.5083 46.5677 50.8523C46.2477 51.1963 46.0877 51.7003 46.0877 52.3643V56.0843H44.9957V49.4963H46.0877ZM59.9901 56.1923C59.0461 56.1923 58.2781 55.8803 57.6861 55.2563C57.0941 54.6323 56.7981 53.8083 56.7981 52.7843C56.7981 51.7603 57.0981 50.9403 57.6981 50.3243C58.2981 49.7003 59.0741 49.3883 60.0261 49.3883C60.9861 49.3883 61.7541 49.6843 62.3301 50.2763C62.9141 50.8603 63.2061 51.6083 63.2061 52.5203C63.2061 52.7523 63.1901 52.9683 63.1581 53.1683H57.9141C57.9461 53.8243 58.1501 54.3443 58.5261 54.7283C58.9101 55.1043 59.3981 55.2923 59.9901 55.2923C60.4381 55.2923 60.8141 55.1923 61.1181 54.9923C61.4301 54.7923 61.6581 54.5283 61.8021 54.2003H62.9781C62.7701 54.7763 62.4101 55.2523 61.8981 55.6283C61.3941 56.0043 60.7581 56.1923 59.9901 56.1923ZM62.0661 52.3763C62.0581 51.7443 61.8581 51.2403 61.4661 50.8643C61.0741 50.4803 60.5861 50.2883 60.0021 50.2883C59.4261 50.2883 58.9461 50.4763 58.5621 50.8523C58.1781 51.2203 57.9661 51.7283 57.9261 52.3763H62.0661Z" fill="black"/>
<path d="M132.333 16.0843H136.333V20.0843H132.333V16.0843Z" fill="#AFAFAF"/>
<path d="M132.333 22.0843H136.333V26.0843H132.333V22.0843Z" fill="#AFAFAF"/>
<path d="M136.333 28.0843H132.333V32.0843H136.333V28.0843Z" fill="#AFAFAF"/>
<path d="M138.333 16.0843H142.333V20.0843H138.333V16.0843Z" fill="#AFAFAF"/>
<path d="M142.333 22.0843H138.333V26.0843H142.333V22.0843Z" fill="#AFAFAF"/>
<path d="M138.333 28.0843H142.333V32.0843H138.333V28.0843Z" fill="#AFAFAF"/>
<path d="M148.333 16.0843H144.333V20.0843H148.333V16.0843Z" fill="#AFAFAF"/>
<path d="M144.333 22.0843H148.333V26.0843H144.333V22.0843Z" fill="#AFAFAF"/>
<path d="M148.333 28.0843H144.333V32.0843H148.333V28.0843Z" fill="#AFAFAF"/>
<path d="M117.518 49.9883C117.518 50.2923 117.602 50.5443 117.77 50.7443C117.938 50.9443 118.154 51.0923 118.418 51.1883C118.682 51.2843 118.974 51.3683 119.294 51.4403C119.622 51.5123 119.946 51.5963 120.266 51.6923C120.594 51.7803 120.89 51.8963 121.154 52.0403C121.418 52.1843 121.634 52.4003 121.802 52.6883C121.97 52.9763 122.054 53.3323 122.054 53.7563C122.054 54.4043 121.806 54.9683 121.31 55.4483C120.814 55.9283 120.142 56.1683 119.294 56.1683C118.454 56.1683 117.77 55.9763 117.242 55.5923C116.714 55.2003 116.45 54.6723 116.45 54.0083H117.614C117.646 54.3843 117.794 54.6883 118.058 54.9203C118.33 55.1523 118.73 55.2683 119.258 55.2683C119.786 55.2683 120.206 55.1323 120.518 54.8603C120.83 54.5883 120.986 54.2723 120.986 53.9123C120.986 53.5443 120.902 53.2643 120.734 53.0723C120.566 52.8723 120.35 52.7243 120.086 52.6283C119.822 52.5323 119.526 52.4523 119.198 52.3883C118.878 52.3163 118.554 52.2323 118.226 52.1363C117.906 52.0403 117.614 51.9203 117.35 51.7763C117.086 51.6243 116.87 51.4043 116.702 51.1163C116.534 50.8203 116.45 50.4563 116.45 50.0243C116.45 49.3203 116.698 48.7563 117.194 48.3323C117.698 47.9003 118.35 47.6843 119.15 47.6843C119.958 47.6843 120.598 47.8723 121.07 48.2483C121.55 48.6163 121.826 49.1283 121.898 49.7843H120.686C120.654 49.4563 120.498 49.1763 120.218 48.9443C119.946 48.7123 119.574 48.5963 119.102 48.5963C118.638 48.5963 118.258 48.7163 117.962 48.9563C117.666 49.1883 117.518 49.5323 117.518 49.9883ZM126.433 56.1923C125.489 56.1923 124.721 55.8803 124.129 55.2563C123.537 54.6323 123.241 53.8083 123.241 52.7843C123.241 51.7603 123.541 50.9403 124.141 50.3243C124.741 49.7003 125.517 49.3883 126.469 49.3883C127.429 49.3883 128.197 49.6843 128.773 50.2763C129.357 50.8603 129.649 51.6083 129.649 52.5203C129.649 52.7523 129.633 52.9683 129.601 53.1683H124.357C124.389 53.8243 124.593 54.3443 124.969 54.7283C125.353 55.1043 125.841 55.2923 126.433 55.2923C126.881 55.2923 127.257 55.1923 127.561 54.9923C127.873 54.7923 128.101 54.5283 128.245 54.2003H129.421C129.213 54.7763 128.853 55.2523 128.341 55.6283C127.837 56.0043 127.201 56.1923 126.433 56.1923ZM128.509 52.3763C128.501 51.7443 128.301 51.2403 127.909 50.8643C127.517 50.4803 127.029 50.2883 126.445 50.2883C125.869 50.2883 125.389 50.4763 125.005 50.8523C124.621 51.2203 124.409 51.7283 124.369 52.3763H128.509ZM132.101 49.4963V50.6123C132.493 49.7963 133.161 49.3883 134.105 49.3883V50.5283H133.817C133.257 50.5283 132.829 50.6763 132.533 50.9723C132.245 51.2603 132.101 51.7643 132.101 52.4843V56.0843H131.009V49.4963H132.101ZM134.671 49.4963H135.835L137.851 55.0643L139.879 49.4963H141.055L138.475 56.0843H137.239L134.671 49.4963ZM143.175 48.2243C143.031 48.3683 142.855 48.4403 142.647 48.4403C142.439 48.4403 142.263 48.3683 142.119 48.2243C141.983 48.0803 141.915 47.9043 141.915 47.6963C141.915 47.4883 141.987 47.3123 142.131 47.1683C142.275 47.0243 142.447 46.9523 142.647 46.9523C142.855 46.9523 143.031 47.0243 143.175 47.1683C143.319 47.3123 143.391 47.4883 143.391 47.6963C143.391 47.9043 143.319 48.0803 143.175 48.2243ZM142.095 56.0843V49.4963H143.187V56.0843H142.095ZM147.749 56.1923C146.805 56.1923 146.037 55.8803 145.445 55.2563C144.853 54.6323 144.557 53.8123 144.557 52.7963C144.557 51.7723 144.853 50.9483 145.445 50.3243C146.037 49.7003 146.805 49.3883 147.749 49.3883C148.541 49.3883 149.185 49.5723 149.681 49.9403C150.185 50.3083 150.537 50.8323 150.737 51.5123H149.561C149.433 51.1283 149.213 50.8283 148.901 50.6123C148.589 50.3963 148.205 50.2883 147.749 50.2883C147.125 50.2883 146.621 50.5083 146.237 50.9483C145.861 51.3803 145.673 51.9963 145.673 52.7963C145.673 53.5883 145.861 54.2043 146.237 54.6443C146.621 55.0763 147.125 55.2923 147.749 55.2923C148.685 55.2923 149.289 54.8843 149.561 54.0683H150.737C150.537 54.7163 150.181 55.2323 149.669 55.6163C149.165 56.0003 148.525 56.1923 147.749 56.1923ZM154.945 56.1923C154.001 56.1923 153.233 55.8803 152.641 55.2563C152.049 54.6323 151.753 53.8083 151.753 52.7843C151.753 51.7603 152.053 50.9403 152.653 50.3243C153.253 49.7003 154.029 49.3883 154.981 49.3883C155.941 49.3883 156.709 49.6843 157.285 50.2763C157.869 50.8603 158.161 51.6083 158.161 52.5203C158.161 52.7523 158.145 52.9683 158.113 53.1683H152.869C152.901 53.8243 153.105 54.3443 153.481 54.7283C153.865 55.1043 154.353 55.2923 154.945 55.2923C155.393 55.2923 155.769 55.1923 156.073 54.9923C156.385 54.7923 156.613 54.5283 156.757 54.2003H157.933C157.725 54.7763 157.365 55.2523 156.853 55.6283C156.349 56.0043 155.713 56.1923 154.945 56.1923ZM157.021 52.3763C157.013 51.7443 156.813 51.2403 156.421 50.8643C156.029 50.4803 155.541 50.2883 154.957 50.2883C154.381 50.2883 153.901 50.4763 153.517 50.8523C153.133 51.2203 152.921 51.7283 152.881 52.3763H157.021ZM159.28 51.3563C159.28 50.8043 159.508 50.3403 159.964 49.9643C160.428 49.5803 161.024 49.3883 161.752 49.3883C162.488 49.3883 163.064 49.5763 163.48 49.9523C163.896 50.3203 164.124 50.8283 164.164 51.4763H163.036C163.02 51.1083 162.896 50.8123 162.664 50.5883C162.432 50.3643 162.108 50.2523 161.692 50.2523C161.284 50.2523 160.96 50.3523 160.72 50.5523C160.488 50.7443 160.372 50.9963 160.372 51.3083C160.372 51.6123 160.504 51.8483 160.768 52.0163C161.04 52.1843 161.364 52.3083 161.74 52.3883C162.124 52.4603 162.504 52.5483 162.88 52.6523C163.264 52.7483 163.588 52.9363 163.852 53.2163C164.124 53.4883 164.26 53.8803 164.26 54.3923C164.26 54.8963 164.028 55.3243 163.564 55.6763C163.108 56.0203 162.512 56.1923 161.776 56.1923C161.04 56.1923 160.448 56.0083 160 55.6403C159.56 55.2723 159.32 54.7643 159.28 54.1163H160.408C160.424 54.4843 160.552 54.7803 160.792 55.0043C161.04 55.2203 161.376 55.3283 161.8 55.3283C162.232 55.3283 162.568 55.2363 162.808 55.0523C163.056 54.8683 163.18 54.6363 163.18 54.3563C163.18 54.0683 163.084 53.8403 162.892 53.6723C162.7 53.5043 162.46 53.3883 162.172 53.3243C161.884 53.2603 161.568 53.1843 161.224 53.0963C160.888 53.0083 160.576 52.9163 160.288 52.8203C160 52.7163 159.76 52.5403 159.568 52.2923C159.376 52.0443 159.28 51.7323 159.28 51.3563Z" fill="#6B6B6B"/>
<path fill-rule="evenodd" clip-rule="evenodd" d="M226.667 15.0843H241.667V33.0843L237.167 30.5843L234.167 33.0843L231.167 30.5843L226.667 33.0843V15.0843ZM229.667 18.0843H238.667V21.0843H229.667V18.0843ZM238.667 23.0843H229.667V26.0843H238.667V23.0843Z" fill="#AFAFAF"/>
<path d="M208.842 47.7683H211.818C212.666 47.7683 213.322 47.9763 213.786 48.3923C214.25 48.8003 214.482 49.3283 214.482 49.9763C214.482 50.9043 213.95 51.5163 212.886 51.8123C213.422 51.9003 213.854 52.1403 214.182 52.5323C214.51 52.9243 214.674 53.3763 214.674 53.8883C214.674 54.5203 214.426 55.0443 213.93 55.4603C213.442 55.8763 212.786 56.0843 211.962 56.0843H208.842V47.7683ZM209.934 48.6443V51.3803H211.77C212.274 51.3803 212.666 51.2603 212.946 51.0203C213.234 50.7723 213.378 50.4403 213.378 50.0243C213.378 49.6003 213.234 49.2643 212.946 49.0163C212.666 48.7683 212.274 48.6443 211.77 48.6443H209.934ZM209.934 55.2203H211.902C212.43 55.2203 212.842 55.0883 213.138 54.8243C213.442 54.5603 213.594 54.2003 213.594 53.7443C213.594 53.2803 213.43 52.9163 213.102 52.6523C212.782 52.3883 212.354 52.2563 211.818 52.2563H209.934V55.2203ZM218.998 55.2923C219.614 55.2923 220.146 55.0723 220.594 54.6323C221.05 54.1843 221.278 53.5683 221.278 52.7843C221.278 52.0003 221.062 51.3883 220.63 50.9483C220.198 50.5083 219.67 50.2883 219.046 50.2883C218.43 50.2883 217.914 50.5083 217.498 50.9483C217.082 51.3883 216.874 52.0043 216.874 52.7963C216.874 53.5803 217.074 54.1923 217.474 54.6323C217.874 55.0723 218.382 55.2923 218.998 55.2923ZM216.658 55.2563C216.058 54.6323 215.758 53.8123 215.758 52.7963C215.758 51.7803 216.074 50.9603 216.706 50.3363C217.338 49.7043 218.13 49.3883 219.082 49.3883C220.034 49.3883 220.826 49.7043 221.458 50.3363C222.09 50.9603 222.406 51.7803 222.406 52.7963C222.406 53.8043 222.074 54.6243 221.41 55.2563C220.754 55.8803 219.95 56.1923 218.998 56.1923C218.046 56.1923 217.266 55.8803 216.658 55.2563ZM226.58 55.2923C227.196 55.2923 227.728 55.0723 228.176 54.6323C228.632 54.1843 228.86 53.5683 228.86 52.7843C228.86 52.0003 228.644 51.3883 228.212 50.9483C227.78 50.5083 227.252 50.2883 226.628 50.2883C226.012 50.2883 225.496 50.5083 225.08 50.9483C224.664 51.3883 224.456 52.0043 224.456 52.7963C224.456 53.5803 224.656 54.1923 225.056 54.6323C225.456 55.0723 225.964 55.2923 226.58 55.2923ZM224.24 55.2563C223.64 54.6323 223.34 53.8123 223.34 52.7963C223.34 51.7803 223.656 50.9603 224.288 50.3363C224.92 49.7043 225.712 49.3883 226.664 49.3883C227.616 49.3883 228.408 49.7043 229.04 50.3363C229.672 50.9603 229.988 51.7803 229.988 52.7963C229.988 53.8043 229.656 54.6243 228.992 55.2563C228.336 55.8803 227.532 56.1923 226.58 56.1923C225.628 56.1923 224.848 55.8803 224.24 55.2563ZM232.446 56.0843H231.354V47.2043H232.446V52.4123L234.966 49.4963H236.502L233.394 52.7723L236.502 56.0843H235.026L232.446 53.1923V56.0843ZM238.586 48.2243C238.442 48.3683 238.266 48.4403 238.058 48.4403C237.85 48.4403 237.674 48.3683 237.53 48.2243C237.394 48.0803 237.326 47.9043 237.326 47.6963C237.326 47.4883 237.398 47.3123 237.542 47.1683C237.686 47.0243 237.858 46.9523 238.058 46.9523C238.266 46.9523 238.442 47.0243 238.586 47.1683C238.73 47.3123 238.802 47.4883 238.802 47.6963C238.802 47.9043 238.73 48.0803 238.586 48.2243ZM237.506 56.0843V49.4963H238.598V56.0843H237.506ZM241.493 49.4963V50.5643C241.941 49.7803 242.657 49.3883 243.641 49.3883C244.369 49.3883 244.977 49.6323 245.465 50.1203C245.953 50.6003 246.197 51.2883 246.197 52.1843V56.0843H245.117V52.3643C245.117 51.7003 244.957 51.1963 244.637 50.8523C244.317 50.5083 243.873 50.3363 243.305 50.3363C242.745 50.3363 242.301 50.5083 241.973 50.8523C241.653 51.1963 241.493 51.7003 241.493 52.3643V56.0843H240.401V49.4963H241.493ZM250.648 56.1923C249.752 56.1923 249.004 55.8723 248.404 55.2323C247.804 54.5843 247.504 53.7603 247.504 52.7603C247.504 51.7523 247.8 50.9403 248.392 50.3243C248.992 49.7003 249.744 49.3883 250.648 49.3883C251.208 49.3883 251.696 49.5203 252.112 49.7843C252.536 50.0483 252.856 50.3923 253.072 50.8163V49.4963H254.176V56.2523C254.176 57.1563 253.884 57.8923 253.3 58.4603C252.716 59.0363 251.976 59.3243 251.08 59.3243C250.184 59.3243 249.44 59.1163 248.848 58.7003C248.264 58.2843 247.932 57.7403 247.852 57.0683H248.92C249.024 57.4443 249.268 57.7563 249.652 58.0043C250.036 58.2523 250.512 58.3763 251.08 58.3763C251.648 58.3763 252.12 58.1883 252.496 57.8123C252.88 57.4443 253.072 56.9243 253.072 56.2523V54.7403C252.856 55.1723 252.536 55.5243 252.112 55.7963C251.696 56.0603 251.208 56.1923 250.648 56.1923ZM252.412 54.5843C252.852 54.1363 253.072 53.5403 253.072 52.7963C253.072 52.0523 252.852 51.4563 252.412 51.0083C251.98 50.5603 251.456 50.3363 250.84 50.3363C250.232 50.3363 249.708 50.5523 249.268 50.9843C248.836 51.4163 248.62 52.0043 248.62 52.7483C248.62 53.4923 248.84 54.0963 249.28 54.5603C249.72 55.0243 250.244 55.2563 250.852 55.2563C251.46 55.2563 251.98 55.0323 252.412 54.5843ZM255.735 51.3563C255.735 50.8043 255.963 50.3403 256.419 49.9643C256.883 49.5803 257.479 49.3883 258.207 49.3883C258.943 49.3883 259.519 49.5763 259.935 49.9523C260.351 50.3203 260.579 50.8283 260.619 51.4763H259.491C259.475 51.1083 259.351 50.8123 259.119 50.5883C258.887 50.3643 258.563 50.2523 258.147 50.2523C257.739 50.2523 257.415 50.3523 257.175 50.5523C256.943 50.7443 256.827 50.9963 256.827 51.3083C256.827 51.6123 256.959 51.8483 257.223 52.0163C257.495 52.1843 257.819 52.3083 258.195 52.3883C258.579 52.4603 258.959 52.5483 259.335 52.6523C259.719 52.7483 260.043 52.9363 260.307 53.2163C260.579 53.4883 260.715 53.8803 260.715 54.3923C260.715 54.8963 260.483 55.3243 260.019 55.6763C259.563 56.0203 258.967 56.1923 258.231 56.1923C257.495 56.1923 256.903 56.0083 256.455 55.6403C256.015 55.2723 255.775 54.7643 255.735 54.1163H256.863C256.879 54.4843 257.007 54.7803 257.247 55.0043C257.495 55.2203 257.831 55.3283 258.255 55.3283C258.687 55.3283 259.023 55.2363 259.263 55.0523C259.511 54.8683 259.635 54.6363 259.635 54.3563C259.635 54.0683 259.539 53.8403 259.347 53.6723C259.155 53.5043 258.915 53.3883 258.627 53.3243C258.339 53.2603 258.023 53.1843 257.679 53.0963C257.343 53.0083 257.031 52.9163 256.743 52.8203C256.455 52.7163 256.215 52.5403 256.023 52.2923C255.831 52.0443 255.735 51.7323 255.735 51.3563Z" fill="#6B6B6B"/>
<path fill-rule="evenodd" clip-rule="evenodd" d="M328.5 24.0843C330.985 24.0843 333 22.0696 333 19.5843C333 17.0991 330.985 15.0843 328.5 15.0843C326.015 15.0843 324 17.0991 324 19.5843C324 22.0696 326.015 24.0843 328.5 24.0843ZM327 25.0843C323.686 25.0843 321 27.7706 321 31.0843V33.0843H336V31.0843C336 27.7706 333.314 25.0843 330 25.0843H327Z" fill="#AFAFAF"/>
<path d="M310.833 56.0843L310.185 54.2603H306.489L305.841 56.0843H304.725L307.749 47.7683H308.949L311.961 56.0843H310.833ZM306.801 53.3963H309.873L308.337 49.1003L306.801 53.3963ZM316.154 56.1923C315.21 56.1923 314.442 55.8803 313.85 55.2563C313.258 54.6323 312.962 53.8123 312.962 52.7963C312.962 51.7723 313.258 50.9483 313.85 50.3243C314.442 49.7003 315.21 49.3883 316.154 49.3883C316.946 49.3883 317.59 49.5723 318.086 49.9403C318.59 50.3083 318.942 50.8323 319.142 51.5123H317.966C317.838 51.1283 317.618 50.8283 317.306 50.6123C316.994 50.3963 316.61 50.2883 316.154 50.2883C315.53 50.2883 315.026 50.5083 314.642 50.9483C314.266 51.3803 314.078 51.9963 314.078 52.7963C314.078 53.5883 314.266 54.2043 314.642 54.6443C315.026 55.0763 315.53 55.2923 316.154 55.2923C317.09 55.2923 317.694 54.8843 317.966 54.0683H319.142C318.942 54.7163 318.586 55.2323 318.074 55.6163C317.57 56.0003 316.93 56.1923 316.154 56.1923ZM323.349 56.1923C322.405 56.1923 321.637 55.8803 321.045 55.2563C320.453 54.6323 320.157 53.8123 320.157 52.7963C320.157 51.7723 320.453 50.9483 321.045 50.3243C321.637 49.7003 322.405 49.3883 323.349 49.3883C324.141 49.3883 324.785 49.5723 325.281 49.9403C325.785 50.3083 326.137 50.8323 326.337 51.5123H325.161C325.033 51.1283 324.813 50.8283 324.501 50.6123C324.189 50.3963 323.805 50.2883 323.349 50.2883C322.725 50.2883 322.221 50.5083 321.837 50.9483C321.461 51.3803 321.273 51.9963 321.273 52.7963C321.273 53.5883 321.461 54.2043 321.837 54.6443C322.221 55.0763 322.725 55.2923 323.349 55.2923C324.285 55.2923 324.889 54.8843 325.161 54.0683H326.337C326.137 54.7163 325.781 55.2323 325.269 55.6163C324.765 56.0003 324.125 56.1923 323.349 56.1923ZM330.593 55.2923C331.209 55.2923 331.741 55.0723 332.189 54.6323C332.645 54.1843 332.873 53.5683 332.873 52.7843C332.873 52.0003 332.657 51.3883 332.225 50.9483C331.793 50.5083 331.265 50.2883 330.641 50.2883C330.025 50.2883 329.509 50.5083 329.093 50.9483C328.677 51.3883 328.469 52.0043 328.469 52.7963C328.469 53.5803 328.669 54.1923 329.069 54.6323C329.469 55.0723 329.977 55.2923 330.593 55.2923ZM328.253 55.2563C327.653 54.6323 327.353 53.8123 327.353 52.7963C327.353 51.7803 327.669 50.9603 328.301 50.3363C328.933 49.7043 329.725 49.3883 330.677 49.3883C331.629 49.3883 332.421 49.7043 333.053 50.3363C333.685 50.9603 334.001 51.7803 334.001 52.7963C334.001 53.8043 333.669 54.6243 333.005 55.2563C332.349 55.8803 331.545 56.1923 330.593 56.1923C329.641 56.1923 328.861 55.8803 328.253 55.2563ZM340.011 49.4963H341.103V56.0843H340.011V55.0283C339.571 55.8043 338.855 56.1923 337.863 56.1923C337.135 56.1923 336.527 55.9523 336.039 55.4723C335.551 54.9843 335.307 54.2963 335.307 53.4083V49.4963H336.387V53.2283C336.387 53.8843 336.547 54.3883 336.867 54.7403C337.195 55.0843 337.639 55.2563 338.199 55.2563C338.759 55.2563 339.199 55.0843 339.519 54.7403C339.847 54.3883 340.011 53.8843 340.011 53.2283V49.4963ZM343.994 49.4963V50.5643C344.442 49.7803 345.158 49.3883 346.142 49.3883C346.87 49.3883 347.478 49.6323 347.966 50.1203C348.454 50.6003 348.698 51.2883 348.698 52.1843V56.0843H347.618V52.3643C347.618 51.7003 347.458 51.1963 347.138 50.8523C346.818 50.5083 346.374 50.3363 345.806 50.3363C345.246 50.3363 344.802 50.5083 344.474 50.8523C344.154 51.1963 343.994 51.7003 343.994 52.3643V56.0843H342.902V49.4963H343.994ZM352.597 55.1963H353.497V56.0843H352.393C351.249 56.0843 350.677 55.5203 350.677 54.3923V50.3843H349.825V49.4963H350.677V47.8643H351.781V49.4963H353.485V50.3843H351.781V54.3923C351.781 54.6883 351.841 54.8963 351.961 55.0163C352.081 55.1363 352.293 55.1963 352.597 55.1963Z" fill="#6B6B6B"/>
</svg>
