<svg width="18" height="18" viewBox="0 0 18 18" fill="none" xmlns="http://www.w3.org/2000/svg">
<path d="M6.34832 2.59796C8.04615 1.8947 9.9538 1.8947 11.6516 2.59796C13.3494 3.30122 14.6984 4.65014 15.4016 6.34796C16.1049 8.04578 16.1049 9.95344 15.4016 11.6513C14.6984 13.3491 13.3494 14.698 11.6516 15.4013C9.9538 16.1045 8.04615 16.1045 6.34832 15.4013C4.6505 14.698 3.30159 13.3491 2.59833 11.6513C1.89506 9.95344 1.89506 8.04578 2.59833 6.34796C3.30159 4.65014 4.6505 3.30122 6.34832 2.59796Z" fill="#C2CCDE" fill-opacity="0.25"/>
<path d="M9.00239 4.01066L8.99998 0.599609L8.99756 4.01066C8.99917 4.01066 9.00078 4.01066 9.00239 4.01066Z" fill="#C2CCDE" fill-opacity="0.25"/>
<path d="M13.9889 8.9972C13.9889 8.9988 13.9889 9.00041 13.9889 9.00202L17.4 8.99961L13.9889 8.9972Z" fill="#C2CCDE" fill-opacity="0.25"/>
<path d="M9.00239 13.9886C9.00078 13.9886 8.99917 13.9886 8.99756 13.9886L8.99998 17.3996L9.00239 13.9886Z" fill="#C2CCDE" fill-opacity="0.25"/>
<path d="M4.01103 9.00202C4.01103 9.00041 4.01103 8.9988 4.01103 8.9972L0.599976 8.99961L4.01103 9.00202Z" fill="#C2CCDE" fill-opacity="0.25"/>
<path d="M7.93931 6.43895C8.61844 6.15764 9.38151 6.15764 10.0606 6.43895C10.7398 6.72025 11.2793 7.25982 11.5606 7.93895C11.8419 8.61808 11.8419 9.38114 11.5606 10.0603C11.2793 10.7394 10.7398 11.279 10.0606 11.5603C9.38151 11.8416 8.61844 11.8416 7.93931 11.5603C7.26019 11.279 6.72062 10.7394 6.43931 10.0603C6.15801 9.38114 6.15801 8.61808 6.43931 7.93895C6.72062 7.25982 7.26019 6.72025 7.93931 6.43895Z" fill="#C2CCDE" fill-opacity="0.25"/>
<path d="M6.34832 2.59796C8.04615 1.8947 9.9538 1.8947 11.6516 2.59796C13.3494 3.30122 14.6984 4.65014 15.4016 6.34796C16.1049 8.04578 16.1049 9.95344 15.4016 11.6513C14.6984 13.3491 13.3494 14.698 11.6516 15.4013C9.9538 16.1045 8.04615 16.1045 6.34832 15.4013C4.6505 14.698 3.30159 13.3491 2.59833 11.6513C1.89506 9.95344 1.89506 8.04578 2.59833 6.34796C3.30159 4.65014 4.6505 3.30122 6.34832 2.59796Z" stroke="#5A5A5A" stroke-linecap="round" stroke-linejoin="round"/>
<path d="M9.00239 4.01066L8.99998 0.599609L8.99756 4.01066C8.99917 4.01066 9.00078 4.01066 9.00239 4.01066Z" stroke="#5A5A5A" stroke-linecap="round" stroke-linejoin="round"/>
<path d="M13.9889 8.9972C13.9889 8.9988 13.9889 9.00041 13.9889 9.00202L17.4 8.99961L13.9889 8.9972Z" stroke="#5A5A5A" stroke-linecap="round" stroke-linejoin="round"/>
<path d="M9.00239 13.9886C9.00078 13.9886 8.99917 13.9886 8.99756 13.9886L8.99998 17.3996L9.00239 13.9886Z" stroke="#5A5A5A" stroke-linecap="round" stroke-linejoin="round"/>
<path d="M4.01103 9.00202C4.01103 9.00041 4.01103 8.9988 4.01103 8.9972L0.599976 8.99961L4.01103 9.00202Z" stroke="#5A5A5A" stroke-linecap="round" stroke-linejoin="round"/>
<path d="M7.93931 6.43895C8.61844 6.15764 9.38151 6.15764 10.0606 6.43895C10.7398 6.72025 11.2793 7.25982 11.5606 7.93895C11.8419 8.61808 11.8419 9.38114 11.5606 10.0603C11.2793 10.7394 10.7398 11.279 10.0606 11.5603C9.38151 11.8416 8.61844 11.8416 7.93931 11.5603C7.26019 11.279 6.72062 10.7394 6.43931 10.0603C6.15801 9.38114 6.15801 8.61808 6.43931 7.93895C6.72062 7.25982 7.26019 6.72025 7.93931 6.43895Z" stroke="#5A5A5A" stroke-linecap="round" stroke-linejoin="round"/>
</svg>
