<svg width="111" height="110" viewBox="0 0 111 110" fill="none" xmlns="http://www.w3.org/2000/svg">
<circle opacity="0.08" cx="55.5" cy="55" r="54.5" fill="#FFFBE7" stroke="#FEC400"/>
<circle opacity="0.15" cx="55.5" cy="55" r="47" fill="#FFF1B1"/>
<circle opacity="0.35" cx="55.5" cy="55" r="38" fill="#FBDB86"/>
<circle opacity="0.8" cx="55.5" cy="55" r="30" fill="#FEC400"/>
<path fill-rule="evenodd" clip-rule="evenodd" d="M55.5 46.5303C58.8137 46.5303 61.5 49.2166 61.5 52.5303V52.8917C61.5 54.2175 61.0857 55.5103 60.3151 56.5892L55.5119 63.3137C55.506 63.3218 55.494 63.3218 55.4881 63.3137L50.6849 56.5892C49.9143 55.5103 49.5 54.2175 49.5 52.8917V52.5303C49.5 49.2166 52.1863 46.5303 55.5 46.5303ZM58.1351 51.9646C57.9521 51.1627 57.4138 50.4877 56.6727 50.1308C55.9316 49.7739 55.0684 49.7739 54.3273 50.1308C53.5861 50.4877 53.0479 51.1627 52.8649 51.9646C52.6818 52.7665 52.8739 53.6082 53.3868 54.2513C53.8996 54.8944 54.6774 55.2689 55.5 55.2689C56.3226 55.2689 57.1004 54.8944 57.6132 54.2513C58.1261 53.6082 58.3182 52.7665 58.1351 51.9646Z" fill="#414141"/>
<path d="M60.3151 56.5892L61.5357 57.461V57.461L60.3151 56.5892ZM55.5119 63.3137L56.7324 64.1855L56.7325 64.1855L55.5119 63.3137ZM55.4881 63.3137L54.2675 64.1855L54.2676 64.1855L55.4881 63.3137ZM50.6849 56.5892L49.4643 57.461H49.4643L50.6849 56.5892ZM56.6727 50.1308L56.0219 51.4823L56.6727 50.1308ZM58.1351 51.9646L56.6727 52.2984V52.2984L58.1351 51.9646ZM52.8649 51.9646L51.4025 51.6308L51.4025 51.6308L52.8649 51.9646ZM53.3868 54.2513L52.214 55.1865L52.214 55.1865L53.3868 54.2513ZM57.6132 54.2513L58.786 55.1865H58.786L57.6132 54.2513ZM63 52.5303C63 48.3881 59.6421 45.0303 55.5 45.0303V48.0303C57.9853 48.0303 60 50.045 60 52.5303H63ZM63 52.8917V52.5303H60V52.8917H63ZM61.5357 57.461C62.488 56.1277 63 54.5302 63 52.8917H60C60 53.9049 59.6834 54.8928 59.0945 55.7173L61.5357 57.461ZM56.7325 64.1855L61.5357 57.461L59.0945 55.7173L54.2913 62.4418L56.7325 64.1855ZM54.2676 64.1855C54.8716 65.0312 56.1284 65.0312 56.7324 64.1855L54.2913 62.4418C54.8837 61.6124 56.1163 61.6124 56.7087 62.4418L54.2676 64.1855ZM49.4643 57.461L54.2675 64.1855L56.7087 62.4418L51.9055 55.7173L49.4643 57.461ZM48 52.8917C48 54.5302 48.512 56.1277 49.4643 57.461L51.9055 55.7173C51.3166 54.8928 51 53.9049 51 52.8917H48ZM48 52.5303V52.8917H51V52.5303H48ZM55.5 45.0303C51.3579 45.0303 48 48.3881 48 52.5303H51C51 50.045 53.0147 48.0303 55.5 48.0303V45.0303ZM56.0219 51.4823C56.3517 51.6411 56.5913 51.9415 56.6727 52.2984L59.5975 51.6308C59.3129 50.3838 58.476 49.3343 57.3236 48.7794L56.0219 51.4823ZM54.9781 51.4823C55.3079 51.3234 55.6921 51.3234 56.0219 51.4823L57.3236 48.7794C56.1712 48.2244 54.8288 48.2244 53.6764 48.7794L54.9781 51.4823ZM54.3273 52.2984C54.4087 51.9415 54.6483 51.6411 54.9781 51.4823L53.6764 48.7794C52.524 49.3343 51.6871 50.3838 51.4025 51.6308L54.3273 52.2984ZM54.5595 53.316C54.3313 53.0298 54.2458 52.6553 54.3273 52.2984L51.4025 51.6308C51.1179 52.8778 51.4166 54.1865 52.214 55.1865L54.5595 53.316ZM55.5 53.7689C55.1339 53.7689 54.7878 53.6022 54.5595 53.316L52.214 55.1865C53.0115 56.1865 54.221 56.7689 55.5 56.7689V53.7689ZM56.4405 53.316C56.2122 53.6022 55.8661 53.7689 55.5 53.7689V56.7689C56.779 56.7689 57.9885 56.1865 58.786 55.1865L56.4405 53.316ZM56.6727 52.2984C56.7542 52.6553 56.6687 53.0298 56.4405 53.316L58.786 55.1865C59.5834 54.1865 59.8821 52.8778 59.5975 51.6308L56.6727 52.2984Z" fill="#414141"/>
</svg>
