<svg width="148" height="76" viewBox="0 0 148 76" fill="none" xmlns="http://www.w3.org/2000/svg">
<path d="M34.0371 3.6128V9.16198L8.41969 50.8189H34.0371V56.292H0.437988V50.8189L26.1315 9.16198H0.437988V3.6128H34.0371Z" fill="#002747"/>
<path d="M55.2451 55.6079L38.7496 14.5591H46.3512L59.1219 48.3103L72.1207 14.5591H79.2662L54.1048 75.8282H46.9593L55.2451 55.6079Z" fill="#002747"/>
<path d="M85.8523 56.292V0.0400391H92.7698V56.292H85.8523Z" fill="#002747"/>
<path d="M72.6788 59.1289C74.322 59.1289 75.5425 59.4719 76.3402 60.1579C77.1539 60.844 77.5607 61.7853 77.5607 62.9818C77.5607 63.3807 77.5288 63.7476 77.465 64.0826C77.2097 65.4866 76.6115 66.6034 75.6702 67.433C74.7289 68.2626 73.4924 68.7572 71.9609 68.9167L75.5026 76.0003H73.5882L70.19 68.9646H67.4618L66.2413 76.0003H64.5422L67.5097 59.1289H72.6788ZM75.742 64.1784C75.8058 63.7316 75.8377 63.4285 75.8377 63.269C75.8377 61.4821 74.6651 60.5887 72.3198 60.5887H68.9695L67.7011 67.6962H71.0515C73.7796 67.6962 75.3431 66.5236 75.742 64.1784Z" fill="#002747"/>
<path d="M82.8336 59.1289L79.8661 76.0003H78.167L81.1345 59.1289H82.8336Z" fill="#002747"/>
<path d="M98.9549 67.5526C98.6517 69.2916 98.0455 70.7993 97.1361 72.0756C96.2267 73.336 95.0461 74.3092 93.5943 74.9952C92.1425 75.6652 90.4753 76.0003 88.5927 76.0003H83.4954L86.4629 59.1289H91.5602C94.0171 59.1289 95.8917 59.6953 97.184 60.828C98.4762 61.9607 99.1224 63.5482 99.1224 65.5903C99.1224 66.2444 99.0665 66.8985 98.9549 67.5526ZM88.7363 74.4926C91.1135 74.4926 93.0279 73.8864 94.4798 72.6739C95.9475 71.4454 96.8729 69.7383 97.2558 67.5526C97.3515 66.9783 97.3993 66.4279 97.3993 65.9014C97.3993 64.2103 96.8729 62.91 95.8199 62.0006C94.7829 61.0753 93.2353 60.6126 91.1773 60.6126H87.8987L85.4578 74.4926H88.7363Z" fill="#002747"/>
<path d="M103.827 60.493L102.702 66.8586H112.275L112.012 68.1748H102.463L101.338 74.6123H111.605L111.365 76.0003H99.3999L102.367 59.1289H114.333L114.094 60.493H103.827Z" fill="url(#paint0_linear_63_2609)"/>
<path d="M136.911 34.9972C136.911 27.4465 130.76 21.2959 123.21 21.2959C115.659 21.2959 109.509 27.4465 109.509 34.9972C109.509 42.5479 115.659 48.6984 123.21 48.6984C130.76 48.6984 136.911 42.5479 136.911 34.9972ZM118.059 45.0481L120.51 41.9978C121.91 40.2476 124.56 40.2476 125.96 41.9978L128.41 45.0481C126.86 45.8482 125.11 46.2982 123.26 46.2982C121.36 46.2982 119.609 45.8482 118.059 45.0481ZM126.06 34.9972C126.06 36.5473 124.81 37.8474 123.21 37.8474C121.61 37.8474 120.36 36.5973 120.36 34.9972C120.36 33.397 121.61 32.1469 123.21 32.1469C124.81 32.1469 126.06 33.447 126.06 34.9972ZM131.161 43.0479L129.01 39.7476C127.81 37.8974 128.61 35.3472 130.71 34.5971L134.361 33.197C134.461 33.797 134.511 34.3971 134.511 34.9972C134.511 38.1474 133.261 40.9977 131.161 43.0479ZM133.311 29.8967L129.51 30.9468C127.36 31.5468 125.21 29.9967 125.11 27.7465L124.91 23.8461C128.61 24.3962 131.711 26.6964 133.311 29.8967ZM121.51 23.8461L121.31 27.7465C121.21 29.9967 119.059 31.5468 116.909 30.9468L113.109 29.8967C114.709 26.6964 117.809 24.3962 121.51 23.8461ZM111.909 34.9972C111.909 34.3971 111.959 33.797 112.059 33.197L115.709 34.5971C117.809 35.3972 118.609 37.8974 117.409 39.7476L115.259 42.9979C113.159 40.9977 111.909 38.1474 111.909 34.9972Z" fill="#EDAE10"/>
<path d="M146.512 35.5473L145.362 35.2973C145.362 35.1973 145.362 35.0973 145.362 34.9973C145.362 34.8973 145.362 34.8473 145.362 34.7473L146.512 34.4973C146.812 34.4472 147.012 34.1472 146.962 33.8472L146.662 31.1969C146.612 30.8969 146.362 30.6469 146.062 30.6969H144.912C144.862 30.4969 144.812 30.2969 144.762 30.1469L145.812 29.6968C146.112 29.5968 146.212 29.2468 146.112 28.9967L145.312 26.4465C145.212 26.1465 144.912 25.9965 144.612 26.0465L143.512 26.2965C143.412 26.0965 143.362 25.9465 143.262 25.7965L144.212 25.0964C144.462 24.9464 144.512 24.5963 144.362 24.3463L143.112 21.9961C142.962 21.7461 142.662 21.6461 142.362 21.7461L141.311 22.2461C141.211 22.0961 141.061 21.9461 140.961 21.7961L141.761 20.946C141.961 20.746 141.961 20.396 141.761 20.1459L139.961 18.1458C139.761 17.9457 139.411 17.8957 139.161 18.0457L138.211 18.7458C138.061 18.5958 137.911 18.4958 137.811 18.3458L138.411 17.3457C138.561 17.0957 138.511 16.7456 138.261 16.5956L136.111 15.0455C135.861 14.8454 135.511 14.8955 135.311 15.1455L134.561 15.9956C134.411 15.8955 134.261 15.7955 134.061 15.6955L134.411 14.5954C134.511 14.2954 134.361 13.9954 134.111 13.8954L131.661 12.7953C131.41 12.6953 131.06 12.7953 130.91 13.0453L130.31 14.0454C130.11 13.9954 129.96 13.8954 129.76 13.8454L129.91 12.6953C129.96 12.3952 129.76 12.1452 129.46 12.0452L126.86 11.4951C126.56 11.4451 126.26 11.5951 126.16 11.8952L125.86 12.9953C125.66 12.9953 125.46 12.9453 125.31 12.9453L125.21 11.7952C125.16 11.4951 124.91 11.2451 124.61 11.2451H121.96C121.66 11.2451 121.41 11.4951 121.36 11.7952L121.21 12.9453C121.01 12.9453 120.81 12.9953 120.66 12.9953L120.309 11.8952C120.209 11.5951 119.909 11.4451 119.609 11.4951L117.009 12.0452C116.709 12.0952 116.509 12.3952 116.559 12.6953L116.709 13.8454C116.509 13.8954 116.359 13.9954 116.159 14.0454L115.559 13.0453C115.409 12.7953 115.109 12.6953 114.809 12.7953L112.359 13.8954C112.109 13.9954 111.959 14.3454 112.059 14.5954L112.409 15.6955C112.259 15.7955 112.059 15.8955 111.909 15.9956L111.109 15.0955C110.909 14.8955 110.559 14.8454 110.309 14.9955L108.208 16.5456C107.958 16.7456 107.908 17.0457 108.058 17.2957L108.658 18.2958C108.508 18.4458 108.358 18.5458 108.258 18.6958L107.258 17.9957C107.008 17.7957 106.658 17.8457 106.458 18.0957L104.658 20.0959C104.458 20.2959 104.458 20.646 104.658 20.896L105.458 21.7461C105.358 21.8961 105.208 22.0461 105.108 22.1961L104.058 21.6961C103.808 21.5961 103.458 21.6961 103.308 21.9461L101.958 24.2463C101.808 24.4963 101.858 24.8464 102.108 24.9964L103.058 25.6964C102.958 25.8465 102.908 26.0465 102.808 26.1965L101.758 25.9965C101.458 25.9465 101.158 26.0965 101.058 26.3965L100.258 28.9467C100.158 29.2468 100.308 29.5468 100.558 29.6468L101.608 30.0968C101.558 30.2969 101.508 30.4469 101.458 30.6469H100.308C100.008 30.6469 99.7576 30.8469 99.7076 31.1469L99.4076 33.7972C99.3576 34.0972 99.5576 34.3472 99.8576 34.4472L101.008 34.6973C101.008 34.7973 101.008 34.8973 101.008 34.9973C101.008 35.0973 101.008 35.1473 101.008 35.2473L99.9076 35.4973C99.6076 35.5473 99.4076 35.8474 99.4576 36.1474L99.7576 38.7976C99.8076 39.0977 100.058 39.3477 100.358 39.2977H101.508C101.558 39.4977 101.608 39.6977 101.658 39.8477L100.608 40.2978C100.308 40.3978 100.208 40.7478 100.308 40.9978L101.108 43.5481C101.208 43.8481 101.508 43.9981 101.808 43.9481L102.908 43.6981C103.008 43.8981 103.058 44.0481 103.158 44.1981L102.208 44.8982C101.958 45.0482 101.908 45.3983 102.058 45.6483L103.408 47.9485C103.558 48.1985 103.858 48.2985 104.158 48.1985L105.208 47.6985C105.308 47.8485 105.458 47.9985 105.558 48.1485L104.758 48.9986C104.558 49.1986 104.558 49.5486 104.758 49.7987L106.558 51.7988C106.758 51.9989 107.108 52.0489 107.358 51.8988L108.308 51.1988C108.458 51.3488 108.608 51.4488 108.708 51.5988L108.108 52.5989C107.958 52.8489 108.008 53.199 108.258 53.349L110.409 54.8991C110.659 55.0991 111.009 55.0491 111.209 54.7991L112.009 53.899C112.159 53.999 112.309 54.0991 112.509 54.1991L112.159 55.2992C112.059 55.5992 112.209 55.8992 112.459 55.9992L114.909 57.0993C115.159 57.1993 115.509 57.0993 115.659 56.8493L116.259 55.8492C116.459 55.8992 116.609 55.9992 116.809 56.0492L116.659 57.1993C116.609 57.4994 116.809 57.7494 117.109 57.8494L119.709 58.3994C120.009 58.4495 120.309 58.2994 120.409 57.9994L120.76 56.8993C120.96 56.8993 121.16 56.9493 121.31 56.9493L121.41 58.0994C121.46 58.3994 121.71 58.6495 122.01 58.6495H124.66C124.96 58.6495 125.21 58.3994 125.26 58.0994L125.36 56.9493C125.56 56.9493 125.76 56.8993 125.91 56.8993L126.26 57.9994C126.36 58.2994 126.66 58.4495 126.96 58.3994L129.56 57.8494C129.86 57.7994 130.06 57.4994 130.01 57.1993L129.86 56.0492C130.06 55.9992 130.21 55.8992 130.41 55.8492L131.01 56.8493C131.16 57.0993 131.46 57.1993 131.761 57.0993L134.211 55.9992C134.461 55.8992 134.611 55.5492 134.511 55.2992L134.161 54.1991C134.311 54.0991 134.511 53.999 134.661 53.899L135.461 54.7991C135.661 54.9991 136.011 55.0491 136.261 54.8991L138.411 53.349C138.661 53.149 138.711 52.8489 138.561 52.5989L137.961 51.5988C138.111 51.4488 138.261 51.3488 138.361 51.1988L139.311 51.8988C139.561 52.0989 139.911 52.0489 140.111 51.7988L141.911 49.7987C142.111 49.5986 142.111 49.2486 141.911 48.9986L141.111 48.1485C141.211 47.9985 141.361 47.8485 141.461 47.6985L142.512 48.1985C142.762 48.2985 143.112 48.1985 143.262 47.9485L144.612 45.6483C144.762 45.3983 144.712 45.0482 144.462 44.8982L143.512 44.1981C143.612 44.0481 143.662 43.8481 143.762 43.6981L144.912 43.9481C145.212 43.9981 145.512 43.8481 145.612 43.5481L146.412 40.9978C146.512 40.6978 146.362 40.3978 146.112 40.2978L145.062 39.8477C145.112 39.6477 145.162 39.4977 145.212 39.2977H146.362C146.662 39.2977 146.912 39.0977 146.962 38.7976L147.262 36.1474C146.962 35.8974 146.762 35.5974 146.512 35.5473ZM107.458 34.9973C107.458 26.2965 114.509 19.2459 123.21 19.2459C131.911 19.2459 138.961 26.2965 138.961 34.9973C138.961 43.6981 131.911 50.7487 123.21 50.7487C114.509 50.7487 107.458 43.6981 107.458 34.9973Z" fill="#EDAE10"/>
<defs>
<linearGradient id="paint0_linear_63_2609" x1="107.846" y1="67.554" x2="102.919" y2="66.8502" gradientUnits="userSpaceOnUse">
<stop stop-color="white" stop-opacity="0"/>
<stop offset="1" stop-color="#002747"/>
</linearGradient>
</defs>
</svg>
