<svg width="362" height="332" viewBox="0 0 362 332" fill="none" xmlns="http://www.w3.org/2000/svg">
<rect x="0.5" y="0.5" width="361" height="59" rx="3.5" fill="#FFFBE7" stroke="#FEC400"/>
<path d="M81.24 17.136L81.96 18.416L79.768 19.232L81.96 20.032L81.224 21.36L79.4 19.904L79.752 22.24H78.264L78.584 19.904L76.744 21.392L75.976 20.032L78.152 19.216L75.992 18.416L76.712 17.12L78.584 18.56L78.248 16.224H79.752L79.4 18.56L81.24 17.136ZM89.0994 17.136L89.8194 18.416L87.6274 19.232L89.8194 20.032L89.0834 21.36L87.2594 19.904L87.6114 22.24H86.1234L86.4434 19.904L84.6034 21.392L83.8354 20.032L86.0114 19.216L83.8514 18.416L84.5714 17.12L86.4434 18.56L86.1074 16.224H87.6114L87.2594 18.56L89.0994 17.136ZM96.9588 17.136L97.6788 18.416L95.4868 19.232L97.6788 20.032L96.9428 21.36L95.1188 19.904L95.4708 22.24H93.9828L94.3028 19.904L92.4628 21.392L91.6948 20.032L93.8708 19.216L91.7108 18.416L92.4308 17.12L94.3028 18.56L93.9668 16.224H95.4708L95.1188 18.56L96.9588 17.136ZM104.818 17.136L105.538 18.416L103.346 19.232L105.538 20.032L104.802 21.36L102.978 19.904L103.33 22.24H101.842L102.162 19.904L100.322 21.392L99.5541 20.032L101.73 19.216L99.5701 18.416L100.29 17.12L102.162 18.56L101.826 16.224H103.33L102.978 18.56L104.818 17.136ZM116.428 17.136L117.148 18.416L114.956 19.232L117.148 20.032L116.412 21.36L114.588 19.904L114.94 22.24H113.452L113.772 19.904L111.932 21.392L111.164 20.032L113.34 19.216L111.18 18.416L111.9 17.12L113.772 18.56L113.436 16.224H114.94L114.588 18.56L116.428 17.136ZM124.287 17.136L125.007 18.416L122.815 19.232L125.007 20.032L124.271 21.36L122.447 19.904L122.799 22.24H121.311L121.631 19.904L119.791 21.392L119.023 20.032L121.199 19.216L119.039 18.416L119.759 17.12L121.631 18.56L121.295 16.224H122.799L122.447 18.56L124.287 17.136ZM132.146 17.136L132.866 18.416L130.674 19.232L132.866 20.032L132.13 21.36L130.306 19.904L130.658 22.24H129.17L129.49 19.904L127.65 21.392L126.882 20.032L129.058 19.216L126.898 18.416L127.618 17.12L129.49 18.56L129.154 16.224H130.658L130.306 18.56L132.146 17.136ZM140.006 17.136L140.726 18.416L138.534 19.232L140.726 20.032L139.99 21.36L138.166 19.904L138.518 22.24H137.03L137.35 19.904L135.51 21.392L134.742 20.032L136.918 19.216L134.758 18.416L135.478 17.12L137.35 18.56L137.014 16.224H138.518L138.166 18.56L140.006 17.136ZM151.615 17.136L152.335 18.416L150.143 19.232L152.335 20.032L151.599 21.36L149.775 19.904L150.127 22.24H148.639L148.959 19.904L147.119 21.392L146.351 20.032L148.527 19.216L146.367 18.416L147.087 17.12L148.959 18.56L148.623 16.224H150.127L149.775 18.56L151.615 17.136ZM159.474 17.136L160.194 18.416L158.002 19.232L160.194 20.032L159.458 21.36L157.634 19.904L157.986 22.24H156.498L156.818 19.904L154.978 21.392L154.21 20.032L156.386 19.216L154.226 18.416L154.946 17.12L156.818 18.56L156.482 16.224H157.986L157.634 18.56L159.474 17.136ZM167.334 17.136L168.054 18.416L165.862 19.232L168.054 20.032L167.318 21.36L165.494 19.904L165.846 22.24H164.358L164.678 19.904L162.838 21.392L162.07 20.032L164.246 19.216L162.086 18.416L162.806 17.12L164.678 18.56L164.342 16.224H165.846L165.494 18.56L167.334 17.136ZM175.193 17.136L175.913 18.416L173.721 19.232L175.913 20.032L175.177 21.36L173.353 19.904L173.705 22.24H172.217L172.537 19.904L170.697 21.392L169.929 20.032L172.105 19.216L169.945 18.416L170.665 17.12L172.537 18.56L172.201 16.224H173.705L173.353 18.56L175.193 17.136ZM181.683 19.328C181.683 18.7733 181.832 18.2667 182.131 17.808C182.429 17.3493 182.872 16.9813 183.459 16.704C184.056 16.4267 184.771 16.288 185.603 16.288C186.435 16.288 187.144 16.4267 187.731 16.704C188.328 16.9813 188.776 17.3493 189.075 17.808C189.384 18.2667 189.539 18.7733 189.539 19.328C189.539 19.9467 189.373 20.48 189.043 20.928C188.723 21.376 188.243 21.7013 187.603 21.904C188.317 22.128 188.867 22.4907 189.251 22.992C189.635 23.4827 189.827 24.0853 189.827 24.8C189.827 25.8987 189.437 26.7573 188.659 27.376C187.88 27.984 186.861 28.288 185.603 28.288C184.344 28.288 183.325 27.984 182.547 27.376C181.779 26.7573 181.395 25.8987 181.395 24.8C181.395 24.0853 181.587 23.4827 181.971 22.992C182.355 22.4907 182.904 22.128 183.619 21.904C182.979 21.7013 182.493 21.376 182.163 20.928C181.843 20.48 181.683 19.9467 181.683 19.328ZM183.491 19.616C183.491 20.192 183.677 20.64 184.051 20.96C184.435 21.2693 184.952 21.424 185.603 21.424C186.253 21.424 186.771 21.2693 187.155 20.96C187.539 20.64 187.731 20.192 187.731 19.616C187.731 19.04 187.533 18.592 187.139 18.272C186.755 17.952 186.243 17.792 185.603 17.792C184.963 17.792 184.451 17.952 184.067 18.272C183.683 18.592 183.491 19.04 183.491 19.616ZM183.171 24.704C183.171 25.3547 183.389 25.8667 183.827 26.24C184.264 26.6027 184.856 26.784 185.603 26.784C186.349 26.784 186.941 26.6027 187.379 26.24C187.816 25.8667 188.035 25.3547 188.035 24.704C188.035 24.0427 187.805 23.5467 187.347 23.216C186.899 22.8747 186.317 22.704 185.603 22.704C184.899 22.704 184.317 22.8747 183.859 23.216C183.4 23.5573 183.171 24.0533 183.171 24.704ZM193.488 24.736C193.574 25.344 193.782 25.8133 194.112 26.144C194.454 26.4747 194.912 26.64 195.488 26.64C196.299 26.64 196.902 26.32 197.296 25.68C197.702 25.0293 197.904 24.0107 197.904 22.624L197.888 22.08C197.718 22.656 197.36 23.12 196.816 23.472C196.283 23.8133 195.659 23.984 194.944 23.984C193.835 23.984 192.966 23.6533 192.336 22.992C191.707 22.32 191.392 21.3867 191.392 20.192C191.392 19.4667 191.536 18.816 191.824 18.24C192.112 17.664 192.544 17.2107 193.12 16.88C193.696 16.5387 194.406 16.368 195.248 16.368C196.88 16.368 198 16.8693 198.608 17.872C199.227 18.864 199.536 20.24 199.536 22C199.536 23.9947 199.222 25.5147 198.592 26.56C197.974 27.6053 196.939 28.128 195.488 28.128C194.368 28.128 193.488 27.8133 192.848 27.184C192.219 26.544 191.856 25.728 191.76 24.736H193.488ZM197.712 20.384C197.712 19.6907 197.51 19.1147 197.104 18.656C196.71 18.1867 196.112 17.952 195.312 17.952C194.651 17.952 194.118 18.1493 193.712 18.544C193.318 18.9387 193.12 19.4933 193.12 20.208C193.12 20.9653 193.318 21.5467 193.712 21.952C194.118 22.3573 194.667 22.56 195.36 22.56C195.766 22.56 196.144 22.48 196.496 22.32C196.859 22.1493 197.152 21.904 197.376 21.584C197.6 21.2533 197.712 20.8533 197.712 20.384ZM208.055 18.016L203.847 28H201.927L206.199 18.224H200.599V16.64H208.055V18.016ZM210.261 26.512C209.621 25.488 209.301 24.0747 209.301 22.272C209.301 20.48 209.621 19.0773 210.261 18.064C210.901 17.0507 211.967 16.544 213.461 16.544C214.954 16.544 216.021 17.056 216.661 18.08C217.301 19.0933 217.621 20.4907 217.621 22.272C217.621 24.064 217.301 25.472 216.661 26.496C216.021 27.52 214.954 28.032 213.461 28.032C211.967 28.032 210.901 27.5253 210.261 26.512ZM215.317 25.264C215.637 24.5707 215.797 23.5733 215.797 22.272C215.797 20.992 215.637 20.0107 215.317 19.328C214.997 18.6347 214.378 18.288 213.461 18.288C212.533 18.288 211.909 18.6293 211.589 19.312C211.269 19.9947 211.109 20.9813 211.109 22.272C211.109 23.5733 211.269 24.5707 211.589 25.264C211.909 25.9573 212.533 26.304 213.461 26.304C214.378 26.304 214.997 25.9573 215.317 25.264Z" fill="#5A5A5A"/>
<path d="M80.376 38.018C81.5893 38.018 82.5973 38.326 83.4 38.942C84.2027 39.558 84.744 40.3933 85.024 41.448H83.33C83.0967 40.8507 82.7233 40.3793 82.21 40.034C81.706 39.6793 81.0853 39.502 80.348 39.502C79.76 39.502 79.2327 39.6467 78.766 39.936C78.3087 40.2253 77.9447 40.6407 77.674 41.182C77.4127 41.714 77.282 42.3393 77.282 43.058C77.282 43.7673 77.4127 44.3927 77.674 44.934C77.9447 45.466 78.3087 45.8767 78.766 46.166C79.2327 46.4553 79.76 46.6 80.348 46.6C81.0853 46.6 81.706 46.4273 82.21 46.082C82.7233 45.7273 83.0967 45.256 83.33 44.668H85.024C84.744 45.7227 84.2027 46.558 83.4 47.174C82.5973 47.7807 81.5893 48.084 80.376 48.084C79.4427 48.084 78.6167 47.874 77.898 47.454C77.1793 47.0247 76.624 46.432 76.232 45.676C75.84 44.9107 75.644 44.038 75.644 43.058C75.644 42.078 75.84 41.21 76.232 40.454C76.624 39.6887 77.1793 39.0913 77.898 38.662C78.6167 38.2327 79.4427 38.018 80.376 38.018ZM88.2124 41.798C88.4737 41.294 88.8471 40.8973 89.3324 40.608C89.8177 40.3093 90.3777 40.16 91.0124 40.16V41.896H90.5364C89.8364 41.896 89.2717 42.0687 88.8424 42.414C88.4224 42.75 88.2124 43.31 88.2124 44.094V48H86.6164V40.286H88.2124V41.798ZM99.3762 43.772C99.3762 44.0333 99.3575 44.262 99.3202 44.458H93.3842C93.4122 45.2513 93.6315 45.8393 94.0422 46.222C94.4529 46.6047 94.9615 46.796 95.5682 46.796C96.1002 46.796 96.5482 46.6607 96.9122 46.39C97.2855 46.1193 97.5142 45.76 97.5982 45.312H99.3062C99.2035 45.8533 98.9889 46.334 98.6622 46.754C98.3355 47.174 97.9109 47.5053 97.3882 47.748C96.8655 47.9813 96.2822 48.098 95.6382 48.098C94.8915 48.098 94.2289 47.9393 93.6502 47.622C93.0809 47.3047 92.6329 46.8473 92.3062 46.25C91.9795 45.6527 91.8162 44.948 91.8162 44.136C91.8162 43.3333 91.9795 42.6333 92.3062 42.036C92.6329 41.4387 93.0809 40.9813 93.6502 40.664C94.2289 40.3467 94.8915 40.188 95.6382 40.188C96.3942 40.188 97.0522 40.3467 97.6122 40.664C98.1815 40.972 98.6155 41.4013 98.9142 41.952C99.2222 42.4933 99.3762 43.1 99.3762 43.772ZM97.7662 43.73C97.7849 43.226 97.6962 42.806 97.5002 42.47C97.3135 42.1247 97.0522 41.8727 96.7162 41.714C96.3895 41.546 96.0302 41.462 95.6382 41.462C95.0129 41.462 94.4902 41.6533 94.0702 42.036C93.6502 42.4187 93.4215 42.9833 93.3842 43.73H97.7662ZM104.011 40.188C104.711 40.188 105.309 40.3607 105.803 40.706C106.298 41.0513 106.643 41.5087 106.839 42.078V37.64H108.449V48H106.839V46.208C106.643 46.7773 106.298 47.2347 105.803 47.58C105.309 47.9253 104.711 48.098 104.011 48.098C103.339 48.098 102.737 47.9393 102.205 47.622C101.683 47.3047 101.272 46.8473 100.973 46.25C100.675 45.6527 100.525 44.948 100.525 44.136C100.525 43.3333 100.675 42.6333 100.973 42.036C101.272 41.4387 101.683 40.9813 102.205 40.664C102.737 40.3467 103.339 40.188 104.011 40.188ZM104.501 41.588C103.792 41.588 103.223 41.8167 102.793 42.274C102.373 42.722 102.163 43.3427 102.163 44.136C102.163 44.9293 102.373 45.5547 102.793 46.012C103.223 46.46 103.792 46.684 104.501 46.684C104.949 46.684 105.351 46.5813 105.705 46.376C106.06 46.1613 106.34 45.8627 106.545 45.48C106.751 45.0973 106.853 44.6493 106.853 44.136C106.853 43.632 106.751 43.1887 106.545 42.806C106.34 42.414 106.06 42.1153 105.705 41.91C105.351 41.6953 104.949 41.588 104.501 41.588ZM110.14 38.046C110.14 37.7753 110.234 37.5513 110.42 37.374C110.607 37.1967 110.854 37.108 111.162 37.108C111.47 37.108 111.718 37.1967 111.904 37.374C112.1 37.5513 112.198 37.7753 112.198 38.046C112.198 38.3167 112.1 38.536 111.904 38.704C111.718 38.872 111.47 38.956 111.162 38.956C110.854 38.956 110.607 38.872 110.42 38.704C110.234 38.536 110.14 38.3167 110.14 38.046ZM111.96 40.286V48H110.364V40.286H111.96ZM117.77 46.614V48H116.79C115.968 48 115.343 47.804 114.914 47.412C114.494 47.0107 114.284 46.348 114.284 45.424V41.644H113.178V40.286H114.284V38.368H115.894V40.286H117.756V41.644H115.894V45.452C115.894 45.8907 115.973 46.194 116.132 46.362C116.3 46.53 116.589 46.614 117 46.614H117.77ZM125.976 40.188C126.975 40.188 127.801 40.454 128.454 40.986C129.107 41.5087 129.513 42.2227 129.672 43.128H127.978C127.885 42.6427 127.656 42.2647 127.292 41.994C126.937 41.714 126.489 41.574 125.948 41.574C125.332 41.574 124.819 41.7933 124.408 42.232C123.997 42.6613 123.792 43.296 123.792 44.136C123.792 44.976 123.997 45.6153 124.408 46.054C124.819 46.4927 125.332 46.712 125.948 46.712C126.489 46.712 126.937 46.572 127.292 46.292C127.656 46.012 127.885 45.6293 127.978 45.144H129.672C129.513 46.0493 129.107 46.768 128.454 47.3C127.801 47.832 126.975 48.098 125.976 48.098C125.229 48.098 124.567 47.9393 123.988 47.622C123.419 47.3047 122.971 46.8473 122.644 46.25C122.317 45.6527 122.154 44.948 122.154 44.136C122.154 43.3333 122.317 42.6333 122.644 42.036C122.971 41.4387 123.419 40.9813 123.988 40.664C124.567 40.3467 125.229 40.188 125.976 40.188ZM134.308 40.188C135.008 40.188 135.605 40.3607 136.1 40.706C136.595 41.0513 136.945 41.5087 137.15 42.078V40.286H138.746V48H137.15V46.208C136.945 46.7773 136.595 47.2347 136.1 47.58C135.605 47.9253 135.008 48.098 134.308 48.098C133.636 48.098 133.034 47.9393 132.502 47.622C131.979 47.3047 131.569 46.8473 131.27 46.25C130.971 45.6527 130.822 44.948 130.822 44.136C130.822 43.3333 130.971 42.6333 131.27 42.036C131.569 41.4387 131.979 40.9813 132.502 40.664C133.034 40.3467 133.636 40.188 134.308 40.188ZM134.798 41.588C134.089 41.588 133.519 41.8167 133.09 42.274C132.67 42.722 132.46 43.3427 132.46 44.136C132.46 44.9293 132.67 45.5547 133.09 46.012C133.519 46.46 134.089 46.684 134.798 46.684C135.246 46.684 135.647 46.5813 136.002 46.376C136.357 46.1613 136.637 45.8627 136.842 45.48C137.047 45.0973 137.15 44.6493 137.15 44.136C137.15 43.632 137.047 43.1887 136.842 42.806C136.637 42.414 136.357 42.1153 136.002 41.91C135.647 41.6953 135.246 41.588 134.798 41.588ZM142.257 41.798C142.519 41.294 142.892 40.8973 143.377 40.608C143.863 40.3093 144.423 40.16 145.057 40.16V41.896H144.581C143.881 41.896 143.317 42.0687 142.887 42.414C142.467 42.75 142.257 43.31 142.257 44.094V48H140.661V40.286H142.257V41.798ZM149.347 40.188C150.047 40.188 150.644 40.3607 151.139 40.706C151.634 41.0513 151.979 41.5087 152.175 42.078V37.64H153.785V48H152.175V46.208C151.979 46.7773 151.634 47.2347 151.139 47.58C150.644 47.9253 150.047 48.098 149.347 48.098C148.675 48.098 148.073 47.9393 147.541 47.622C147.018 47.3047 146.608 46.8473 146.309 46.25C146.01 45.6527 145.861 44.948 145.861 44.136C145.861 43.3333 146.01 42.6333 146.309 42.036C146.608 41.4387 147.018 40.9813 147.541 40.664C148.073 40.3467 148.675 40.188 149.347 40.188ZM149.837 41.588C149.128 41.588 148.558 41.8167 148.129 42.274C147.709 42.722 147.499 43.3427 147.499 44.136C147.499 44.9293 147.709 45.5547 148.129 46.012C148.558 46.46 149.128 46.684 149.837 46.684C150.285 46.684 150.686 46.5813 151.041 46.376C151.396 46.1613 151.676 45.8627 151.881 45.48C152.086 45.0973 152.189 44.6493 152.189 44.136C152.189 43.632 152.086 43.1887 151.881 42.806C151.676 42.414 151.396 42.1153 151.041 41.91C150.686 41.6953 150.285 41.588 149.837 41.588ZM160.466 40.3V42.064H158.66V40.3H160.466ZM160.466 46.236V48H158.66V46.236H160.466ZM164.5 39.614V38.116H167.664V48H165.984V39.614H164.5ZM169.171 46.754C170.683 45.718 171.892 44.7053 172.797 43.716C173.712 42.7173 174.169 41.7933 174.169 40.944C174.169 40.44 174.043 40.0387 173.791 39.74C173.549 39.4413 173.152 39.292 172.601 39.292C172.032 39.292 171.603 39.4787 171.313 39.852C171.024 40.216 170.861 40.7387 170.823 41.42H169.269C169.335 40.2907 169.68 39.4273 170.305 38.83C170.94 38.2327 171.747 37.934 172.727 37.934C173.689 37.934 174.44 38.1907 174.981 38.704C175.532 39.208 175.807 39.908 175.807 40.804C175.807 41.5227 175.583 42.2507 175.135 42.988C174.697 43.7253 174.137 44.4067 173.455 45.032C172.774 45.648 172.069 46.18 171.341 46.628H176.031V47.93H169.171V46.754ZM181.903 34.784L178.095 50.464H176.541L180.349 34.784H181.903ZM182.406 46.754C183.918 45.718 185.126 44.7053 186.032 43.716C186.946 42.7173 187.404 41.7933 187.404 40.944C187.404 40.44 187.278 40.0387 187.026 39.74C186.783 39.4413 186.386 39.292 185.836 39.292C185.266 39.292 184.837 39.4787 184.548 39.852C184.258 40.216 184.095 40.7387 184.058 41.42H182.504C182.569 40.2907 182.914 39.4273 183.54 38.83C184.174 38.2327 184.982 37.934 185.962 37.934C186.923 37.934 187.674 38.1907 188.216 38.704C188.766 39.208 189.042 39.908 189.042 40.804C189.042 41.5227 188.818 42.2507 188.37 42.988C187.931 43.7253 187.371 44.4067 186.69 45.032C186.008 45.648 185.304 46.18 184.576 46.628H189.266V47.93H182.406V46.754ZM195.935 40.776C195.767 39.6747 195.193 39.124 194.213 39.124C193.504 39.124 192.972 39.4087 192.617 39.978C192.262 40.538 192.085 41.42 192.085 42.624L192.099 43.1C192.239 42.596 192.542 42.1947 193.009 41.896C193.476 41.5973 194.026 41.448 194.661 41.448C195.632 41.448 196.392 41.7373 196.943 42.316C197.494 42.8947 197.769 43.7113 197.769 44.766C197.769 45.4007 197.643 45.97 197.391 46.474C197.139 46.9687 196.761 47.3653 196.257 47.664C195.753 47.9533 195.132 48.098 194.395 48.098C192.967 48.098 191.987 47.6547 191.455 46.768C190.923 45.8813 190.657 44.6633 190.657 43.114C190.657 41.3407 190.942 40.0153 191.511 39.138C192.08 38.2607 193.014 37.822 194.311 37.822C195.282 37.822 196.024 38.0973 196.537 38.648C197.06 39.1987 197.363 39.908 197.447 40.776H195.935ZM192.239 44.584C192.239 45.1907 192.416 45.6993 192.771 46.11C193.126 46.5113 193.648 46.712 194.339 46.712C194.927 46.712 195.394 46.5393 195.739 46.194C196.094 45.8487 196.271 45.368 196.271 44.752C196.271 44.0893 196.094 43.5807 195.739 43.226C195.384 42.8713 194.904 42.694 194.297 42.694C193.746 42.694 193.266 42.8573 192.855 43.184C192.444 43.5107 192.239 43.9773 192.239 44.584Z" fill="#B8B8B8"/>
<path d="M53.7266 27.5703C53.7266 27.5703 54.3203 30.4766 54.4531 31.0859H51.8438C52.1016 30.3906 53.0938 27.6875 53.0938 27.6875C53.0781 27.7109 53.3516 26.9766 53.5078 26.5234L53.7266 27.5703ZM62 15.75V43.25C62 45.3203 60.3203 47 58.25 47H20.75C18.6797 47 17 45.3203 17 43.25V15.75C17 13.6797 18.6797 12 20.75 12H58.25C60.3203 12 62 13.6797 62 15.75ZM28.9141 35.375L33.8516 23.25H30.5312L27.4609 31.5312L27.125 29.8516L26.0312 24.2734C25.8516 23.5 25.2969 23.2812 24.6094 23.25H19.5547L19.5 23.4922C20.7344 23.8047 21.8359 24.2578 22.7969 24.8281L25.5938 35.375H28.9141ZM36.2891 35.3906L38.2578 23.25H35.1172L33.1562 35.3906H36.2891ZM47.2188 31.4219C47.2344 30.0391 46.3906 28.9844 44.5859 28.1172C43.4844 27.5625 42.8125 27.1875 42.8125 26.6172C42.8281 26.1016 43.3828 25.5703 44.6172 25.5703C45.6406 25.5469 46.3906 25.7891 46.9531 26.0312L47.2344 26.1641L47.6641 23.5391C47.0469 23.2969 46.0625 23.0234 44.8516 23.0234C41.75 23.0234 39.5703 24.6797 39.5547 27.0391C39.5312 28.7812 41.1172 29.75 42.3047 30.3359C43.5156 30.9297 43.9297 31.3203 43.9297 31.8438C43.9141 32.6562 42.9453 33.0312 42.0469 33.0312C40.7969 33.0312 40.125 32.8359 39.1016 32.3828L38.6875 32.1875L38.25 34.9141C38.9844 35.25 40.3438 35.5469 41.75 35.5625C45.0469 35.5703 47.1953 33.9375 47.2188 31.4219ZM58.25 35.3906L55.7188 23.25H53.2891C52.5391 23.25 51.9688 23.4687 51.6484 24.2578L46.9844 35.3906H50.2812C50.2812 35.3906 50.8203 33.8906 50.9375 33.5703H54.9688C55.0625 34 55.3438 35.3906 55.3438 35.3906H58.25Z" fill="black"/>
<g opacity="0.4">
<rect x="0.5" y="68.5" width="361" height="59" rx="3.5" fill="#FFFBE7" stroke="#FEC400"/>
<path d="M81.24 85.136L81.96 86.416L79.768 87.232L81.96 88.032L81.224 89.36L79.4 87.904L79.752 90.24H78.264L78.584 87.904L76.744 89.392L75.976 88.032L78.152 87.216L75.992 86.416L76.712 85.12L78.584 86.56L78.248 84.224H79.752L79.4 86.56L81.24 85.136ZM89.0994 85.136L89.8194 86.416L87.6274 87.232L89.8194 88.032L89.0834 89.36L87.2594 87.904L87.6114 90.24H86.1234L86.4434 87.904L84.6034 89.392L83.8354 88.032L86.0114 87.216L83.8514 86.416L84.5714 85.12L86.4434 86.56L86.1074 84.224H87.6114L87.2594 86.56L89.0994 85.136ZM96.9588 85.136L97.6788 86.416L95.4868 87.232L97.6788 88.032L96.9428 89.36L95.1188 87.904L95.4708 90.24H93.9828L94.3028 87.904L92.4628 89.392L91.6948 88.032L93.8708 87.216L91.7108 86.416L92.4308 85.12L94.3028 86.56L93.9668 84.224H95.4708L95.1188 86.56L96.9588 85.136ZM104.818 85.136L105.538 86.416L103.346 87.232L105.538 88.032L104.802 89.36L102.978 87.904L103.33 90.24H101.842L102.162 87.904L100.322 89.392L99.5541 88.032L101.73 87.216L99.5701 86.416L100.29 85.12L102.162 86.56L101.826 84.224H103.33L102.978 86.56L104.818 85.136ZM116.428 85.136L117.148 86.416L114.956 87.232L117.148 88.032L116.412 89.36L114.588 87.904L114.94 90.24H113.452L113.772 87.904L111.932 89.392L111.164 88.032L113.34 87.216L111.18 86.416L111.9 85.12L113.772 86.56L113.436 84.224H114.94L114.588 86.56L116.428 85.136ZM124.287 85.136L125.007 86.416L122.815 87.232L125.007 88.032L124.271 89.36L122.447 87.904L122.799 90.24H121.311L121.631 87.904L119.791 89.392L119.023 88.032L121.199 87.216L119.039 86.416L119.759 85.12L121.631 86.56L121.295 84.224H122.799L122.447 86.56L124.287 85.136ZM132.146 85.136L132.866 86.416L130.674 87.232L132.866 88.032L132.13 89.36L130.306 87.904L130.658 90.24H129.17L129.49 87.904L127.65 89.392L126.882 88.032L129.058 87.216L126.898 86.416L127.618 85.12L129.49 86.56L129.154 84.224H130.658L130.306 86.56L132.146 85.136ZM140.006 85.136L140.726 86.416L138.534 87.232L140.726 88.032L139.99 89.36L138.166 87.904L138.518 90.24H137.03L137.35 87.904L135.51 89.392L134.742 88.032L136.918 87.216L134.758 86.416L135.478 85.12L137.35 86.56L137.014 84.224H138.518L138.166 86.56L140.006 85.136ZM151.615 85.136L152.335 86.416L150.143 87.232L152.335 88.032L151.599 89.36L149.775 87.904L150.127 90.24H148.639L148.959 87.904L147.119 89.392L146.351 88.032L148.527 87.216L146.367 86.416L147.087 85.12L148.959 86.56L148.623 84.224H150.127L149.775 86.56L151.615 85.136ZM159.474 85.136L160.194 86.416L158.002 87.232L160.194 88.032L159.458 89.36L157.634 87.904L157.986 90.24H156.498L156.818 87.904L154.978 89.392L154.21 88.032L156.386 87.216L154.226 86.416L154.946 85.12L156.818 86.56L156.482 84.224H157.986L157.634 86.56L159.474 85.136ZM167.334 85.136L168.054 86.416L165.862 87.232L168.054 88.032L167.318 89.36L165.494 87.904L165.846 90.24H164.358L164.678 87.904L162.838 89.392L162.07 88.032L164.246 87.216L162.086 86.416L162.806 85.12L164.678 86.56L164.342 84.224H165.846L165.494 86.56L167.334 85.136ZM175.193 85.136L175.913 86.416L173.721 87.232L175.913 88.032L175.177 89.36L173.353 87.904L173.705 90.24H172.217L172.537 87.904L170.697 89.392L169.929 88.032L172.105 87.216L169.945 86.416L170.665 85.12L172.537 86.56L172.201 84.224H173.705L173.353 86.56L175.193 85.136ZM181.683 87.328C181.683 86.7733 181.832 86.2667 182.131 85.808C182.429 85.3493 182.872 84.9813 183.459 84.704C184.056 84.4267 184.771 84.288 185.603 84.288C186.435 84.288 187.144 84.4267 187.731 84.704C188.328 84.9813 188.776 85.3493 189.075 85.808C189.384 86.2667 189.539 86.7733 189.539 87.328C189.539 87.9467 189.373 88.48 189.043 88.928C188.723 89.376 188.243 89.7013 187.603 89.904C188.317 90.128 188.867 90.4907 189.251 90.992C189.635 91.4827 189.827 92.0853 189.827 92.8C189.827 93.8987 189.437 94.7573 188.659 95.376C187.88 95.984 186.861 96.288 185.603 96.288C184.344 96.288 183.325 95.984 182.547 95.376C181.779 94.7573 181.395 93.8987 181.395 92.8C181.395 92.0853 181.587 91.4827 181.971 90.992C182.355 90.4907 182.904 90.128 183.619 89.904C182.979 89.7013 182.493 89.376 182.163 88.928C181.843 88.48 181.683 87.9467 181.683 87.328ZM183.491 87.616C183.491 88.192 183.677 88.64 184.051 88.96C184.435 89.2693 184.952 89.424 185.603 89.424C186.253 89.424 186.771 89.2693 187.155 88.96C187.539 88.64 187.731 88.192 187.731 87.616C187.731 87.04 187.533 86.592 187.139 86.272C186.755 85.952 186.243 85.792 185.603 85.792C184.963 85.792 184.451 85.952 184.067 86.272C183.683 86.592 183.491 87.04 183.491 87.616ZM183.171 92.704C183.171 93.3547 183.389 93.8667 183.827 94.24C184.264 94.6027 184.856 94.784 185.603 94.784C186.349 94.784 186.941 94.6027 187.379 94.24C187.816 93.8667 188.035 93.3547 188.035 92.704C188.035 92.0427 187.805 91.5467 187.347 91.216C186.899 90.8747 186.317 90.704 185.603 90.704C184.899 90.704 184.317 90.8747 183.859 91.216C183.4 91.5573 183.171 92.0533 183.171 92.704ZM193.488 92.736C193.574 93.344 193.782 93.8133 194.112 94.144C194.454 94.4747 194.912 94.64 195.488 94.64C196.299 94.64 196.902 94.32 197.296 93.68C197.702 93.0293 197.904 92.0107 197.904 90.624L197.888 90.08C197.718 90.656 197.36 91.12 196.816 91.472C196.283 91.8133 195.659 91.984 194.944 91.984C193.835 91.984 192.966 91.6533 192.336 90.992C191.707 90.32 191.392 89.3867 191.392 88.192C191.392 87.4667 191.536 86.816 191.824 86.24C192.112 85.664 192.544 85.2107 193.12 84.88C193.696 84.5387 194.406 84.368 195.248 84.368C196.88 84.368 198 84.8693 198.608 85.872C199.227 86.864 199.536 88.24 199.536 90C199.536 91.9947 199.222 93.5147 198.592 94.56C197.974 95.6053 196.939 96.128 195.488 96.128C194.368 96.128 193.488 95.8133 192.848 95.184C192.219 94.544 191.856 93.728 191.76 92.736H193.488ZM197.712 88.384C197.712 87.6907 197.51 87.1147 197.104 86.656C196.71 86.1867 196.112 85.952 195.312 85.952C194.651 85.952 194.118 86.1493 193.712 86.544C193.318 86.9387 193.12 87.4933 193.12 88.208C193.12 88.9653 193.318 89.5467 193.712 89.952C194.118 90.3573 194.667 90.56 195.36 90.56C195.766 90.56 196.144 90.48 196.496 90.32C196.859 90.1493 197.152 89.904 197.376 89.584C197.6 89.2533 197.712 88.8533 197.712 88.384ZM208.055 86.016L203.847 96H201.927L206.199 86.224H200.599V84.64H208.055V86.016ZM210.261 94.512C209.621 93.488 209.301 92.0747 209.301 90.272C209.301 88.48 209.621 87.0773 210.261 86.064C210.901 85.0507 211.967 84.544 213.461 84.544C214.954 84.544 216.021 85.056 216.661 86.08C217.301 87.0933 217.621 88.4907 217.621 90.272C217.621 92.064 217.301 93.472 216.661 94.496C216.021 95.52 214.954 96.032 213.461 96.032C211.967 96.032 210.901 95.5253 210.261 94.512ZM215.317 93.264C215.637 92.5707 215.797 91.5733 215.797 90.272C215.797 88.992 215.637 88.0107 215.317 87.328C214.997 86.6347 214.378 86.288 213.461 86.288C212.533 86.288 211.909 86.6293 211.589 87.312C211.269 87.9947 211.109 88.9813 211.109 90.272C211.109 91.5733 211.269 92.5707 211.589 93.264C211.909 93.9573 212.533 94.304 213.461 94.304C214.378 94.304 214.997 93.9573 215.317 93.264Z" fill="#5A5A5A"/>
<path d="M84.45 111.044C84.45 112.043 84.2447 112.915 83.834 113.662C83.4327 114.399 82.84 114.973 82.056 115.384C81.2813 115.795 80.3527 116 79.27 116H75.966V106.116H79.27C80.3527 106.116 81.2813 106.321 82.056 106.732C82.84 107.133 83.4327 107.703 83.834 108.44C84.2447 109.177 84.45 110.045 84.45 111.044ZM79.144 114.558C80.3293 114.558 81.2393 114.25 81.874 113.634C82.5087 113.018 82.826 112.155 82.826 111.044C82.826 109.933 82.5087 109.07 81.874 108.454C81.2393 107.838 80.3293 107.53 79.144 107.53H77.562V114.558H79.144ZM93.2238 111.772C93.2238 112.033 93.2052 112.262 93.1678 112.458H87.2318C87.2598 113.251 87.4792 113.839 87.8898 114.222C88.3005 114.605 88.8092 114.796 89.4158 114.796C89.9478 114.796 90.3958 114.661 90.7598 114.39C91.1332 114.119 91.3618 113.76 91.4458 113.312H93.1538C93.0512 113.853 92.8365 114.334 92.5098 114.754C92.1832 115.174 91.7585 115.505 91.2358 115.748C90.7132 115.981 90.1298 116.098 89.4858 116.098C88.7392 116.098 88.0765 115.939 87.4978 115.622C86.9285 115.305 86.4805 114.847 86.1538 114.25C85.8272 113.653 85.6638 112.948 85.6638 112.136C85.6638 111.333 85.8272 110.633 86.1538 110.036C86.4805 109.439 86.9285 108.981 87.4978 108.664C88.0765 108.347 88.7392 108.188 89.4858 108.188C90.2418 108.188 90.8998 108.347 91.4598 108.664C92.0292 108.972 92.4632 109.401 92.7618 109.952C93.0698 110.493 93.2238 111.1 93.2238 111.772ZM91.6138 111.73C91.6325 111.226 91.5438 110.806 91.3478 110.47C91.1612 110.125 90.8998 109.873 90.5638 109.714C90.2372 109.546 89.8778 109.462 89.4858 109.462C88.8605 109.462 88.3378 109.653 87.9178 110.036C87.4978 110.419 87.2692 110.983 87.2318 111.73H91.6138ZM99.1888 108.188C99.8608 108.188 100.458 108.347 100.981 108.664C101.513 108.981 101.928 109.439 102.227 110.036C102.525 110.633 102.675 111.333 102.675 112.136C102.675 112.948 102.525 113.653 102.227 114.25C101.928 114.847 101.513 115.305 100.981 115.622C100.458 115.939 99.8608 116.098 99.1888 116.098C98.4888 116.098 97.8915 115.925 97.3968 115.58C96.9022 115.235 96.5568 114.777 96.3608 114.208V116H94.7648V105.64H96.3608V110.078C96.5568 109.509 96.9022 109.051 97.3968 108.706C97.8915 108.361 98.4888 108.188 99.1888 108.188ZM98.6988 109.588C98.2508 109.588 97.8495 109.695 97.4948 109.91C97.1402 110.115 96.8602 110.414 96.6548 110.806C96.4495 111.189 96.3468 111.632 96.3468 112.136C96.3468 112.649 96.4495 113.097 96.6548 113.48C96.8602 113.863 97.1402 114.161 97.4948 114.376C97.8495 114.581 98.2508 114.684 98.6988 114.684C99.4082 114.684 99.9775 114.46 100.407 114.012C100.836 113.555 101.051 112.929 101.051 112.136C101.051 111.352 100.836 110.731 100.407 110.274C99.9775 109.817 99.4082 109.588 98.6988 109.588ZM103.988 106.046C103.988 105.775 104.081 105.551 104.268 105.374C104.455 105.197 104.702 105.108 105.01 105.108C105.318 105.108 105.565 105.197 105.752 105.374C105.948 105.551 106.046 105.775 106.046 106.046C106.046 106.317 105.948 106.536 105.752 106.704C105.565 106.872 105.318 106.956 105.01 106.956C104.702 106.956 104.455 106.872 104.268 106.704C104.081 106.536 103.988 106.317 103.988 106.046ZM105.808 108.286V116H104.212V108.286H105.808ZM111.617 114.614V116H110.637C109.816 116 109.191 115.804 108.761 115.412C108.341 115.011 108.131 114.348 108.131 113.424V109.644H107.025V108.286H108.131V106.368H109.741V108.286H111.603V109.644H109.741V113.452C109.741 113.891 109.821 114.194 109.979 114.362C110.147 114.53 110.437 114.614 110.847 114.614H111.617ZM119.824 108.188C120.822 108.188 121.648 108.454 122.302 108.986C122.955 109.509 123.361 110.223 123.52 111.128H121.826C121.732 110.643 121.504 110.265 121.14 109.994C120.785 109.714 120.337 109.574 119.796 109.574C119.18 109.574 118.666 109.793 118.256 110.232C117.845 110.661 117.64 111.296 117.64 112.136C117.64 112.976 117.845 113.615 118.256 114.054C118.666 114.493 119.18 114.712 119.796 114.712C120.337 114.712 120.785 114.572 121.14 114.292C121.504 114.012 121.732 113.629 121.826 113.144H123.52C123.361 114.049 122.955 114.768 122.302 115.3C121.648 115.832 120.822 116.098 119.824 116.098C119.077 116.098 118.414 115.939 117.836 115.622C117.266 115.305 116.818 114.847 116.492 114.25C116.165 113.653 116.002 112.948 116.002 112.136C116.002 111.333 116.165 110.633 116.492 110.036C116.818 109.439 117.266 108.981 117.836 108.664C118.414 108.347 119.077 108.188 119.824 108.188ZM128.156 108.188C128.856 108.188 129.453 108.361 129.948 108.706C130.442 109.051 130.792 109.509 130.998 110.078V108.286H132.594V116H130.998V114.208C130.792 114.777 130.442 115.235 129.948 115.58C129.453 115.925 128.856 116.098 128.156 116.098C127.484 116.098 126.882 115.939 126.35 115.622C125.827 115.305 125.416 114.847 125.118 114.25C124.819 113.653 124.67 112.948 124.67 112.136C124.67 111.333 124.819 110.633 125.118 110.036C125.416 109.439 125.827 108.981 126.35 108.664C126.882 108.347 127.484 108.188 128.156 108.188ZM128.646 109.588C127.936 109.588 127.367 109.817 126.938 110.274C126.518 110.722 126.308 111.343 126.308 112.136C126.308 112.929 126.518 113.555 126.938 114.012C127.367 114.46 127.936 114.684 128.646 114.684C129.094 114.684 129.495 114.581 129.85 114.376C130.204 114.161 130.484 113.863 130.69 113.48C130.895 113.097 130.998 112.649 130.998 112.136C130.998 111.632 130.895 111.189 130.69 110.806C130.484 110.414 130.204 110.115 129.85 109.91C129.495 109.695 129.094 109.588 128.646 109.588ZM136.105 109.798C136.366 109.294 136.74 108.897 137.225 108.608C137.71 108.309 138.27 108.16 138.905 108.16V109.896H138.429C137.729 109.896 137.164 110.069 136.735 110.414C136.315 110.75 136.105 111.31 136.105 112.094V116H134.509V108.286H136.105V109.798ZM143.195 108.188C143.895 108.188 144.492 108.361 144.987 108.706C145.481 109.051 145.827 109.509 146.023 110.078V105.64H147.633V116H146.023V114.208C145.827 114.777 145.481 115.235 144.987 115.58C144.492 115.925 143.895 116.098 143.195 116.098C142.523 116.098 141.921 115.939 141.389 115.622C140.866 115.305 140.455 114.847 140.157 114.25C139.858 113.653 139.709 112.948 139.709 112.136C139.709 111.333 139.858 110.633 140.157 110.036C140.455 109.439 140.866 108.981 141.389 108.664C141.921 108.347 142.523 108.188 143.195 108.188ZM143.685 109.588C142.975 109.588 142.406 109.817 141.977 110.274C141.557 110.722 141.347 111.343 141.347 112.136C141.347 112.929 141.557 113.555 141.977 114.012C142.406 114.46 142.975 114.684 143.685 114.684C144.133 114.684 144.534 114.581 144.889 114.376C145.243 114.161 145.523 113.863 145.729 113.48C145.934 113.097 146.037 112.649 146.037 112.136C146.037 111.632 145.934 111.189 145.729 110.806C145.523 110.414 145.243 110.115 144.889 109.91C144.534 109.695 144.133 109.588 143.685 109.588ZM151.032 108.3V110.064H149.226V108.3H151.032ZM151.032 114.236V116H149.226V114.236H151.032ZM155.067 107.614V106.116H158.231V116H156.551V107.614H155.067ZM159.738 114.754C161.25 113.718 162.458 112.705 163.364 111.716C164.278 110.717 164.736 109.793 164.736 108.944C164.736 108.44 164.61 108.039 164.358 107.74C164.115 107.441 163.718 107.292 163.168 107.292C162.598 107.292 162.169 107.479 161.88 107.852C161.59 108.216 161.427 108.739 161.39 109.42H159.836C159.901 108.291 160.246 107.427 160.872 106.83C161.506 106.233 162.314 105.934 163.294 105.934C164.255 105.934 165.006 106.191 165.548 106.704C166.098 107.208 166.374 107.908 166.374 108.804C166.374 109.523 166.15 110.251 165.702 110.988C165.263 111.725 164.703 112.407 164.022 113.032C163.34 113.648 162.636 114.18 161.908 114.628H166.598V115.93H159.738V114.754ZM172.469 102.784L168.661 118.464H167.107L170.915 102.784H172.469ZM172.972 114.754C174.484 113.718 175.693 112.705 176.598 111.716C177.513 110.717 177.97 109.793 177.97 108.944C177.97 108.44 177.844 108.039 177.592 107.74C177.349 107.441 176.953 107.292 176.402 107.292C175.833 107.292 175.403 107.479 175.114 107.852C174.825 108.216 174.661 108.739 174.624 109.42H173.07C173.135 108.291 173.481 107.427 174.106 106.83C174.741 106.233 175.548 105.934 176.528 105.934C177.489 105.934 178.241 106.191 178.782 106.704C179.333 107.208 179.608 107.908 179.608 108.804C179.608 109.523 179.384 110.251 178.936 110.988C178.497 111.725 177.937 112.407 177.256 113.032C176.575 113.648 175.87 114.18 175.142 114.628H179.832V115.93H172.972V114.754ZM186.501 108.776C186.333 107.675 185.759 107.124 184.779 107.124C184.07 107.124 183.538 107.409 183.183 107.978C182.829 108.538 182.651 109.42 182.651 110.624L182.665 111.1C182.805 110.596 183.109 110.195 183.575 109.896C184.042 109.597 184.593 109.448 185.227 109.448C186.198 109.448 186.959 109.737 187.509 110.316C188.06 110.895 188.335 111.711 188.335 112.766C188.335 113.401 188.209 113.97 187.957 114.474C187.705 114.969 187.327 115.365 186.823 115.664C186.319 115.953 185.699 116.098 184.961 116.098C183.533 116.098 182.553 115.655 182.021 114.768C181.489 113.881 181.223 112.663 181.223 111.114C181.223 109.341 181.508 108.015 182.077 107.138C182.647 106.261 183.58 105.822 184.877 105.822C185.848 105.822 186.59 106.097 187.103 106.648C187.626 107.199 187.929 107.908 188.013 108.776H186.501ZM182.805 112.584C182.805 113.191 182.983 113.699 183.337 114.11C183.692 114.511 184.215 114.712 184.905 114.712C185.493 114.712 185.96 114.539 186.305 114.194C186.66 113.849 186.837 113.368 186.837 112.752C186.837 112.089 186.66 111.581 186.305 111.226C185.951 110.871 185.47 110.694 184.863 110.694C184.313 110.694 183.832 110.857 183.421 111.184C183.011 111.511 182.805 111.977 182.805 112.584Z" fill="#B8B8B8"/>
<path d="M25.189 114.922V112.599C25.189 111.709 24.6481 111.128 23.721 111.128C23.2575 111.128 22.7553 111.283 22.4077 111.786C22.1374 111.36 21.7512 111.128 21.1717 111.128C20.7853 111.128 20.3993 111.244 20.0901 111.67V111.206H19.279V114.922H20.0901V112.87C20.0901 112.212 20.4378 111.902 20.9787 111.902C21.5193 111.902 21.7899 112.251 21.7899 112.87V114.922H22.601V112.87C22.601 112.212 22.9871 111.902 23.4892 111.902C24.0301 111.902 24.3004 112.251 24.3004 112.87V114.922H25.189ZM37.2016 111.206H35.8885V110.083H35.0773V111.206H34.3434V111.941H35.0771V113.645C35.0771 114.497 35.4248 115 36.3519 115C36.6996 115 37.0857 114.884 37.3563 114.729L37.1244 114.032C36.8926 114.187 36.6224 114.226 36.4292 114.226C36.0429 114.226 35.8885 113.993 35.8885 113.606V111.941H37.2016V111.206ZM44.0772 111.128C43.6138 111.128 43.3048 111.36 43.1116 111.67V111.206H42.3004V114.922H43.1116V112.832C43.1116 112.212 43.3819 111.864 43.884 111.864C44.0385 111.864 44.2317 111.903 44.3862 111.941L44.618 111.167C44.4635 111.128 44.2317 111.128 44.0772 111.128V111.128ZM33.6867 111.515C33.3003 111.244 32.7596 111.128 32.1802 111.128C31.2533 111.128 30.6353 111.593 30.6353 112.328C30.6353 112.948 31.0988 113.296 31.9099 113.413L32.2962 113.451C32.7211 113.529 32.9528 113.645 32.9528 113.838C32.9528 114.109 32.6438 114.303 32.103 114.303C31.5622 114.303 31.1373 114.109 30.8669 113.916L30.4807 114.535C30.9056 114.845 31.485 115 32.0642 115C33.1458 115 33.764 114.497 33.764 113.8C33.764 113.141 33.2618 112.793 32.4892 112.677L32.103 112.638C31.7553 112.599 31.485 112.522 31.485 112.29C31.485 112.019 31.7553 111.864 32.1802 111.864C32.6438 111.864 33.1073 112.057 33.339 112.174L33.6867 111.515ZM55.2404 111.128C54.7767 111.128 54.4677 111.36 54.2745 111.67V111.206H53.4634V114.922H54.2745V112.832C54.2745 112.212 54.545 111.864 55.047 111.864C55.2017 111.864 55.3949 111.903 55.5493 111.941L55.7811 111.167C55.6266 111.128 55.3949 111.128 55.2404 111.128ZM44.8884 113.064C44.8884 114.187 45.6608 115 46.8584 115C47.3991 115 47.7853 114.884 48.1715 114.574L47.7853 113.916C47.4763 114.148 47.1674 114.264 46.8197 114.264C46.163 114.264 45.6995 113.8 45.6995 113.064C45.6995 112.367 46.163 111.902 46.8197 111.864C47.1674 111.864 47.4763 111.98 47.7853 112.212L48.1715 111.554C47.7853 111.244 47.3991 111.128 46.8584 111.128C45.6608 111.128 44.8884 111.941 44.8884 113.064ZM52.382 113.064V111.206H51.5708V111.67C51.3004 111.322 50.9142 111.128 50.412 111.128C49.3691 111.128 48.5579 111.941 48.5579 113.064C48.5579 114.187 49.3691 115 50.412 115C50.9527 115 51.3391 114.806 51.5708 114.458V114.922H52.382V113.064ZM49.4076 113.064C49.4076 112.406 49.8326 111.864 50.5278 111.864C51.1844 111.864 51.6481 112.367 51.6481 113.064C51.6481 113.722 51.1844 114.264 50.5278 114.264C49.8326 114.225 49.4076 113.722 49.4076 113.064ZM39.7125 111.128C38.6309 111.128 37.8583 111.902 37.8583 113.064C37.8583 114.226 38.6307 115 39.751 115C40.2917 115 40.8326 114.845 41.2576 114.497L40.8712 113.916C40.5622 114.148 40.176 114.303 39.7897 114.303C39.2876 114.303 38.7854 114.071 38.6694 113.412H41.412V113.103C41.4508 111.902 40.7554 111.128 39.7123 111.128H39.7125ZM39.7125 111.825C40.2145 111.825 40.5624 112.135 40.6394 112.716H38.7081C38.7854 112.212 39.1331 111.825 39.7125 111.825ZM59.8368 113.064V109.734H59.0257V111.67C58.7552 111.322 58.369 111.128 57.8668 111.128C56.824 111.128 56.0128 111.941 56.0128 113.064C56.0128 114.187 56.824 115 57.8668 115C58.4077 115 58.794 114.806 59.0257 114.458V114.922H59.8368V113.064ZM56.8627 113.064C56.8627 112.406 57.2874 111.864 57.9828 111.864C58.6395 111.864 59.1029 112.367 59.1029 113.064C59.1029 113.722 58.6395 114.264 57.9828 114.264C57.2874 114.225 56.8627 113.722 56.8627 113.064ZM29.7467 113.064V111.206H28.9356V111.67C28.6651 111.322 28.2789 111.128 27.7767 111.128C26.7339 111.128 25.9227 111.941 25.9227 113.064C25.9227 114.187 26.7339 115 27.7767 115C28.3176 115 28.7039 114.806 28.9356 114.458V114.922H29.7467V113.064ZM26.7339 113.064C26.7339 112.406 27.1588 111.864 27.854 111.864C28.5107 111.864 28.9743 112.367 28.9743 113.064C28.9743 113.722 28.5107 114.264 27.854 114.264C27.1588 114.225 26.7339 113.722 26.7339 113.064Z" fill="black"/>
<path d="M33.4162 82.9814H45.5835V104.895H33.4162V82.9814Z" fill="#FF5F00"/>
<path d="M34.1889 93.9381C34.1889 89.4857 36.2747 85.5365 39.4806 82.9811C37.1245 81.1228 34.1504 80 30.9057 80C23.2188 80 17 86.2333 17 93.9381C17 101.643 23.2188 107.876 30.9056 107.876C34.1502 107.876 37.1243 106.753 39.4806 104.895C36.2747 102.378 34.1889 98.3905 34.1889 93.9381Z" fill="#EB001B"/>
<path d="M61.9998 93.9381C61.9998 101.643 55.781 107.876 48.0943 107.876C44.8496 107.876 41.8755 106.753 39.5193 104.895C42.7639 102.34 44.8111 98.3905 44.8111 93.9381C44.8111 89.4857 42.7252 85.5365 39.5193 82.9811C41.8753 81.1228 44.8496 80 48.0943 80C55.781 80 62 86.2721 62 93.9381H61.9998Z" fill="#F79E1B"/>
</g>
<g opacity="0.4">
<rect x="0.5" y="136.5" width="361" height="59" rx="3.5" fill="#FFFBE7"/>
<rect x="0.5" y="136.5" width="361" height="59" rx="3.5" stroke="#FEC400"/>
<path d="M50.2026 151.797C49.889 151.457 49.497 151.274 49.0005 151.274H21.9274C21.4308 151.274 21.0127 151.457 20.7253 151.797C20.4117 152.137 20.281 152.555 20.3594 153.051L22.2932 171.632C22.3977 172.729 23.3124 174.088 24.227 174.663L33.7915 180.308C34.2357 180.569 34.8629 180.726 35.4901 180.726C36.1434 180.726 36.7444 180.569 37.1887 180.308L46.7531 174.663C47.6939 174.14 48.5563 172.729 48.6869 171.632L50.6207 153.051C50.6207 152.607 50.5162 152.137 50.2026 151.797ZM42.3629 172.389C41.5789 172.912 40.5336 172.703 40.011 171.945L35.1242 164.759L32.1713 167.712V170.978C32.1713 171.919 31.4134 172.677 30.4727 172.677C29.5319 172.677 28.774 171.919 28.774 170.978V156.814C28.774 155.874 29.5319 155.116 30.4727 155.116C31.4134 155.116 32.1713 155.874 32.1713 156.814V162.903L39.4622 155.612C40.1155 154.959 41.2131 154.959 41.8664 155.612C42.5197 156.266 42.5197 157.363 41.8664 158.017L37.5545 162.302C37.5545 162.328 37.5807 162.328 37.5807 162.355L42.8071 170.011C43.3298 170.795 43.1207 171.841 42.3629 172.389Z" fill="#5D2E8E"/>
<path fill-rule="evenodd" clip-rule="evenodd" d="M18.2281 156.13L15.0724 156.856L17.265 166.216L20.2182 165.564L18.2281 156.13Z" fill="#F9A61C"/>
<path d="M19.2882 155.966L15 156.417L16.0489 166.397L20.3372 165.946L19.2882 155.966Z" fill="#F9A61C"/>
<path d="M76.2607 165.788L81.2367 171.5H79.0127L74.5487 166.268V171.5H72.7247V160.204H74.5487V165.372L79.0287 160.204H81.2367L76.2607 165.788ZM87.5277 162.54C88.5517 162.54 89.3731 162.871 89.9917 163.532C90.6104 164.193 90.9197 165.137 90.9197 166.364V171.5H89.0957V166.556C89.0957 165.767 88.8931 165.159 88.4877 164.732C88.0824 164.295 87.5277 164.076 86.8237 164.076C86.0984 164.076 85.5171 164.311 85.0797 164.78C84.6424 165.239 84.4237 165.916 84.4237 166.812V171.5H82.5997V159.66H84.4237V164.62C84.6584 163.959 85.0531 163.447 85.6077 163.084C86.1624 162.721 86.8024 162.54 87.5277 162.54ZM96.5889 162.572C97.3889 162.572 98.0715 162.769 98.6369 163.164C99.2022 163.559 99.6022 164.081 99.8369 164.732V162.684H101.661V171.5H99.8369V169.452C99.6022 170.103 99.2022 170.625 98.6369 171.02C98.0715 171.415 97.3889 171.612 96.5889 171.612C95.8209 171.612 95.1329 171.431 94.5249 171.068C93.9275 170.705 93.4582 170.183 93.1169 169.5C92.7755 168.817 92.6049 168.012 92.6049 167.084C92.6049 166.167 92.7755 165.367 93.1169 164.684C93.4582 164.001 93.9275 163.479 94.5249 163.116C95.1329 162.753 95.8209 162.572 96.5889 162.572ZM97.1489 164.172C96.3382 164.172 95.6875 164.433 95.1969 164.956C94.7169 165.468 94.4769 166.177 94.4769 167.084C94.4769 167.991 94.7169 168.705 95.1969 169.228C95.6875 169.74 96.3382 169.996 97.1489 169.996C97.6609 169.996 98.1195 169.879 98.5249 169.644C98.9302 169.399 99.2502 169.057 99.4849 168.62C99.7195 168.183 99.8369 167.671 99.8369 167.084C99.8369 166.508 99.7195 166.001 99.4849 165.564C99.2502 165.116 98.9302 164.775 98.5249 164.54C98.1195 164.295 97.6609 164.172 97.1489 164.172ZM105.674 159.66V171.5H103.85V159.66H105.674ZM112.313 169.916V171.5H111.193C110.254 171.5 109.54 171.276 109.049 170.828C108.569 170.369 108.329 169.612 108.329 168.556V164.236H107.065V162.684H108.329V160.492H110.169V162.684H112.297V164.236H110.169V168.588C110.169 169.089 110.26 169.436 110.441 169.628C110.633 169.82 110.964 169.916 111.433 169.916H112.313ZM113.766 160.124C113.766 159.815 113.872 159.559 114.086 159.356C114.299 159.153 114.582 159.052 114.934 159.052C115.286 159.052 115.568 159.153 115.782 159.356C116.006 159.559 116.118 159.815 116.118 160.124C116.118 160.433 116.006 160.684 115.782 160.876C115.568 161.068 115.286 161.164 114.934 161.164C114.582 161.164 114.299 161.068 114.086 160.876C113.872 160.684 113.766 160.433 113.766 160.124ZM115.846 162.684V171.5H114.022V162.684H115.846ZM123.627 167.116V171.5H121.803V160.204H125.643C126.944 160.204 127.92 160.513 128.571 161.132C129.232 161.751 129.563 162.599 129.563 163.676C129.563 164.743 129.227 165.585 128.555 166.204C127.883 166.812 126.912 167.116 125.643 167.116H123.627ZM125.451 165.628C126.955 165.628 127.707 164.977 127.707 163.676C127.707 163.036 127.526 162.551 127.163 162.22C126.811 161.879 126.24 161.708 125.451 161.708H123.627V165.628H125.451ZM134.698 162.572C135.498 162.572 136.181 162.769 136.746 163.164C137.312 163.559 137.712 164.081 137.946 164.732V162.684H139.77V171.5H137.946V169.452C137.712 170.103 137.312 170.625 136.746 171.02C136.181 171.415 135.498 171.612 134.698 171.612C133.93 171.612 133.242 171.431 132.634 171.068C132.037 170.705 131.568 170.183 131.226 169.5C130.885 168.817 130.714 168.012 130.714 167.084C130.714 166.167 130.885 165.367 131.226 164.684C131.568 164.001 132.037 163.479 132.634 163.116C133.242 162.753 133.93 162.572 134.698 162.572ZM135.258 164.172C134.448 164.172 133.797 164.433 133.306 164.956C132.826 165.468 132.586 166.177 132.586 167.084C132.586 167.991 132.826 168.705 133.306 169.228C133.797 169.74 134.448 169.996 135.258 169.996C135.77 169.996 136.229 169.879 136.634 169.644C137.04 169.399 137.36 169.057 137.594 168.62C137.829 168.183 137.946 167.671 137.946 167.084C137.946 166.508 137.829 166.001 137.594 165.564C137.36 165.116 137.04 164.775 136.634 164.54C136.229 164.295 135.77 164.172 135.258 164.172ZM142.999 162.684L145.639 169.164L148.087 162.684H150.119L144.791 175.692H142.759L144.663 171.292L140.951 162.684H142.999Z" fill="#5A5A5A"/>
</g>
<g opacity="0.4">
<rect x="0.5" y="204.5" width="361" height="59" rx="3.5" fill="#FFFBE7" stroke="#FEC400"/>
<path d="M80.248 231.08C79.96 230.525 79.56 230.109 79.048 229.832C78.536 229.544 77.944 229.4 77.272 229.4C76.536 229.4 75.88 229.565 75.304 229.896C74.728 230.227 74.2747 230.696 73.944 231.304C73.624 231.912 73.464 232.616 73.464 233.416C73.464 234.216 73.624 234.925 73.944 235.544C74.2747 236.152 74.728 236.621 75.304 236.952C75.88 237.283 76.536 237.448 77.272 237.448C78.264 237.448 79.0693 237.171 79.688 236.616C80.3067 236.061 80.6853 235.309 80.824 234.36H76.648V232.904H82.776V234.328C82.6587 235.192 82.3493 235.987 81.848 236.712C81.3573 237.437 80.712 238.019 79.912 238.456C79.1227 238.883 78.2427 239.096 77.272 239.096C76.2267 239.096 75.272 238.856 74.408 238.376C73.544 237.885 72.856 237.208 72.344 236.344C71.8427 235.48 71.592 234.504 71.592 233.416C71.592 232.328 71.8427 231.352 72.344 230.488C72.856 229.624 73.544 228.952 74.408 228.472C75.2827 227.981 76.2373 227.736 77.272 227.736C78.456 227.736 79.5067 228.029 80.424 228.616C81.352 229.192 82.024 230.013 82.44 231.08H80.248ZM88.399 239.144C87.567 239.144 86.815 238.957 86.143 238.584C85.471 238.2 84.943 237.667 84.559 236.984C84.175 236.291 83.983 235.491 83.983 234.584C83.983 233.688 84.1803 232.893 84.575 232.2C84.9697 231.507 85.5083 230.973 86.191 230.6C86.8737 230.227 87.6363 230.04 88.479 230.04C89.3217 230.04 90.0843 230.227 90.767 230.6C91.4497 230.973 91.9883 231.507 92.383 232.2C92.7777 232.893 92.975 233.688 92.975 234.584C92.975 235.48 92.7723 236.275 92.367 236.968C91.9617 237.661 91.407 238.2 90.703 238.584C90.0097 238.957 89.2417 239.144 88.399 239.144ZM88.399 237.56C88.8683 237.56 89.3057 237.448 89.711 237.224C90.127 237 90.463 236.664 90.719 236.216C90.975 235.768 91.103 235.224 91.103 234.584C91.103 233.944 90.9803 233.405 90.735 232.968C90.4897 232.52 90.1643 232.184 89.759 231.96C89.3537 231.736 88.9163 231.624 88.447 231.624C87.9777 231.624 87.5403 231.736 87.135 231.96C86.7403 232.184 86.4257 232.52 86.191 232.968C85.9563 233.405 85.839 233.944 85.839 234.584C85.839 235.533 86.079 236.269 86.559 236.792C87.0497 237.304 87.663 237.56 88.399 237.56ZM98.6021 239.144C97.7701 239.144 97.0181 238.957 96.3461 238.584C95.6741 238.2 95.1461 237.667 94.7621 236.984C94.3781 236.291 94.1861 235.491 94.1861 234.584C94.1861 233.688 94.3835 232.893 94.7781 232.2C95.1728 231.507 95.7115 230.973 96.3941 230.6C97.0768 230.227 97.8395 230.04 98.6821 230.04C99.5248 230.04 100.287 230.227 100.97 230.6C101.653 230.973 102.191 231.507 102.586 232.2C102.981 232.893 103.178 233.688 103.178 234.584C103.178 235.48 102.975 236.275 102.57 236.968C102.165 237.661 101.61 238.2 100.906 238.584C100.213 238.957 99.4448 239.144 98.6021 239.144ZM98.6021 237.56C99.0715 237.56 99.5088 237.448 99.9141 237.224C100.33 237 100.666 236.664 100.922 236.216C101.178 235.768 101.306 235.224 101.306 234.584C101.306 233.944 101.183 233.405 100.938 232.968C100.693 232.52 100.367 232.184 99.9621 231.96C99.5568 231.736 99.1195 231.624 98.6501 231.624C98.1808 231.624 97.7435 231.736 97.3381 231.96C96.9435 232.184 96.6288 232.52 96.3941 232.968C96.1595 233.405 96.0421 233.944 96.0421 234.584C96.0421 235.533 96.2821 236.269 96.7621 236.792C97.2528 237.304 97.8661 237.56 98.6021 237.56ZM108.533 230.04C109.216 230.04 109.819 230.179 110.341 230.456C110.875 230.723 111.291 231.059 111.589 231.464V230.184H113.429V239.144C113.429 239.955 113.259 240.675 112.917 241.304C112.576 241.944 112.08 242.445 111.429 242.808C110.789 243.171 110.021 243.352 109.125 243.352C107.931 243.352 106.939 243.069 106.149 242.504C105.36 241.949 104.912 241.192 104.805 240.232H106.613C106.752 240.691 107.045 241.059 107.493 241.336C107.952 241.624 108.496 241.768 109.125 241.768C109.861 241.768 110.453 241.544 110.901 241.096C111.36 240.648 111.589 239.997 111.589 239.144V237.672C111.28 238.088 110.859 238.44 110.325 238.728C109.803 239.005 109.205 239.144 108.533 239.144C107.765 239.144 107.061 238.952 106.421 238.568C105.792 238.173 105.291 237.629 104.917 236.936C104.555 236.232 104.373 235.437 104.373 234.552C104.373 233.667 104.555 232.883 104.917 232.2C105.291 231.517 105.792 230.989 106.421 230.616C107.061 230.232 107.765 230.04 108.533 230.04ZM111.589 234.584C111.589 233.976 111.461 233.448 111.205 233C110.96 232.552 110.635 232.211 110.229 231.976C109.824 231.741 109.387 231.624 108.917 231.624C108.448 231.624 108.011 231.741 107.605 231.976C107.2 232.2 106.869 232.536 106.613 232.984C106.368 233.421 106.245 233.944 106.245 234.552C106.245 235.16 106.368 235.693 106.613 236.152C106.869 236.611 107.2 236.963 107.605 237.208C108.021 237.443 108.459 237.56 108.917 237.56C109.387 237.56 109.824 237.443 110.229 237.208C110.635 236.973 110.96 236.632 111.205 236.184C111.461 235.725 111.589 235.192 111.589 234.584ZM117.649 227.16V239H115.825V227.16H117.649ZM128.124 234.376C128.124 234.707 128.102 235.005 128.06 235.272H121.324C121.377 235.976 121.638 236.541 122.108 236.968C122.577 237.395 123.153 237.608 123.836 237.608C124.817 237.608 125.51 237.197 125.916 236.376H127.884C127.617 237.187 127.132 237.853 126.428 238.376C125.734 238.888 124.87 239.144 123.836 239.144C122.993 239.144 122.236 238.957 121.564 238.584C120.902 238.2 120.38 237.667 119.996 236.984C119.622 236.291 119.436 235.491 119.436 234.584C119.436 233.677 119.617 232.883 119.98 232.2C120.353 231.507 120.87 230.973 121.532 230.6C122.204 230.227 122.972 230.04 123.836 230.04C124.668 230.04 125.409 230.221 126.06 230.584C126.71 230.947 127.217 231.459 127.58 232.12C127.942 232.771 128.124 233.523 128.124 234.376ZM126.22 233.8C126.209 233.128 125.969 232.589 125.5 232.184C125.03 231.779 124.449 231.576 123.756 231.576C123.126 231.576 122.588 231.779 122.14 232.184C121.692 232.579 121.425 233.117 121.34 233.8H126.22ZM141.851 231.192C141.851 231.757 141.718 232.291 141.451 232.792C141.184 233.293 140.758 233.704 140.171 234.024C139.584 234.333 138.832 234.488 137.915 234.488H135.899V239H134.075V227.88H137.915C138.768 227.88 139.488 228.029 140.075 228.328C140.672 228.616 141.115 229.011 141.403 229.512C141.702 230.013 141.851 230.573 141.851 231.192ZM137.915 233C138.608 233 139.126 232.845 139.467 232.536C139.808 232.216 139.979 231.768 139.979 231.192C139.979 229.976 139.291 229.368 137.915 229.368H135.899V233H137.915ZM142.983 234.552C142.983 233.667 143.164 232.883 143.527 232.2C143.9 231.517 144.401 230.989 145.031 230.616C145.671 230.232 146.375 230.04 147.143 230.04C147.836 230.04 148.439 230.179 148.951 230.456C149.473 230.723 149.889 231.059 150.199 231.464V230.184H152.039V239H150.199V237.688C149.889 238.104 149.468 238.451 148.935 238.728C148.401 239.005 147.793 239.144 147.111 239.144C146.353 239.144 145.66 238.952 145.031 238.568C144.401 238.173 143.9 237.629 143.527 236.936C143.164 236.232 142.983 235.437 142.983 234.552ZM150.199 234.584C150.199 233.976 150.071 233.448 149.815 233C149.569 232.552 149.244 232.211 148.839 231.976C148.433 231.741 147.996 231.624 147.527 231.624C147.057 231.624 146.62 231.741 146.215 231.976C145.809 232.2 145.479 232.536 145.223 232.984C144.977 233.421 144.855 233.944 144.855 234.552C144.855 235.16 144.977 235.693 145.223 236.152C145.479 236.611 145.809 236.963 146.215 237.208C146.631 237.443 147.068 237.56 147.527 237.56C147.996 237.56 148.433 237.443 148.839 237.208C149.244 236.973 149.569 236.632 149.815 236.184C150.071 235.725 150.199 235.192 150.199 234.584ZM162.37 230.184L156.962 243.144H155.074L156.866 238.856L153.394 230.184H155.426L157.906 236.904L160.482 230.184H162.37Z" fill="#5A5A5A"/>
<path d="M46.7877 220.363C43.3355 218.37 38.9212 219.554 36.9262 223.007L31.8974 231.718C30.4423 234.234 32.3155 235.113 34.4043 236.365L39.2433 239.158C40.8819 240.103 42.975 239.542 43.9202 237.905L49.0898 228.953C50.8265 225.945 49.796 222.1 46.7877 220.363Z" fill="#EA4335"/>
<path d="M41.0975 223.968L36.2585 221.176C33.5873 219.693 32.0746 219.595 30.9779 221.338L23.8411 233.698C21.8483 237.148 23.0346 241.56 26.4846 243.549C29.4929 245.285 33.3377 244.255 35.0744 241.246L42.3478 228.647C43.2972 227.009 42.7361 224.914 41.0975 223.968Z" fill="#FBBC04"/>
<path d="M42.0288 217.615L38.63 215.652C34.8707 213.482 30.0637 214.769 27.8939 218.528L21.4227 229.736C20.4668 231.389 21.0344 233.506 22.6879 234.46L26.4942 236.657C28.3739 237.743 30.7763 237.099 31.8623 235.219L39.2552 222.415C40.7871 219.763 44.1774 218.854 46.8294 220.386L42.0288 217.615Z" fill="#34A853"/>
<path d="M28.8131 221.735L25.1391 219.618C23.5005 218.675 21.4075 219.234 20.4623 220.869L16.0543 228.486C13.8844 232.234 15.171 237.031 18.9304 239.194L21.7275 240.805L25.1199 242.759L26.5921 243.606C23.9784 241.857 23.1485 238.351 24.7465 235.59L25.888 233.619L30.0677 226.397C31.0107 224.767 30.4496 222.678 28.8131 221.735Z" fill="#4285F4"/>
</g>
<g opacity="0.4">
<rect x="0.5" y="272.5" width="361" height="59" rx="3.5" fill="#FFFBE7" stroke="#FEC400"/>
<path d="M79.976 299.192C79.976 299.757 79.8427 300.291 79.576 300.792C79.3093 301.293 78.8827 301.704 78.296 302.024C77.7093 302.333 76.9573 302.488 76.04 302.488H74.024V307H72.2V295.88H76.04C76.8933 295.88 77.6133 296.029 78.2 296.328C78.7973 296.616 79.24 297.011 79.528 297.512C79.8267 298.013 79.976 298.573 79.976 299.192ZM76.04 301C76.7333 301 77.2507 300.845 77.592 300.536C77.9333 300.216 78.104 299.768 78.104 299.192C78.104 297.976 77.416 297.368 76.04 297.368H74.024V301H76.04ZM86.2756 298.04C86.9476 298.04 87.545 298.184 88.0676 298.472C88.601 298.76 89.017 299.187 89.3156 299.752C89.625 300.317 89.7796 301 89.7796 301.8V307H87.9716V302.072C87.9716 301.283 87.7743 300.68 87.3796 300.264C86.985 299.837 86.4463 299.624 85.7636 299.624C85.081 299.624 84.537 299.837 84.1316 300.264C83.737 300.68 83.5396 301.283 83.5396 302.072V307H81.7156V295.16H83.5396V299.208C83.849 298.835 84.2383 298.547 84.7076 298.344C85.1876 298.141 85.7103 298.04 86.2756 298.04ZM95.9303 307.144C95.0983 307.144 94.3463 306.957 93.6743 306.584C93.0023 306.2 92.4743 305.667 92.0903 304.984C91.7063 304.291 91.5143 303.491 91.5143 302.584C91.5143 301.688 91.7116 300.893 92.1063 300.2C92.5009 299.507 93.0396 298.973 93.7223 298.6C94.4049 298.227 95.1676 298.04 96.0103 298.04C96.8529 298.04 97.6156 298.227 98.2983 298.6C98.9809 298.973 99.5196 299.507 99.9143 300.2C100.309 300.893 100.506 301.688 100.506 302.584C100.506 303.48 100.304 304.275 99.8983 304.968C99.4929 305.661 98.9383 306.2 98.2343 306.584C97.5409 306.957 96.7729 307.144 95.9303 307.144ZM95.9303 305.56C96.3996 305.56 96.8369 305.448 97.2423 305.224C97.6583 305 97.9943 304.664 98.2503 304.216C98.5063 303.768 98.6343 303.224 98.6343 302.584C98.6343 301.944 98.5116 301.405 98.2663 300.968C98.0209 300.52 97.6956 300.184 97.2903 299.96C96.8849 299.736 96.4476 299.624 95.9783 299.624C95.5089 299.624 95.0716 299.736 94.6663 299.96C94.2716 300.184 93.9569 300.52 93.7223 300.968C93.4876 301.405 93.3703 301.944 93.3703 302.584C93.3703 303.533 93.6103 304.269 94.0903 304.792C94.5809 305.304 95.1943 305.56 95.9303 305.56ZM106.757 298.04C107.451 298.04 108.069 298.184 108.613 298.472C109.168 298.76 109.6 299.187 109.909 299.752C110.219 300.317 110.373 301 110.373 301.8V307H108.565V302.072C108.565 301.283 108.368 300.68 107.973 300.264C107.579 299.837 107.04 299.624 106.357 299.624C105.675 299.624 105.131 299.837 104.725 300.264C104.331 300.68 104.133 301.283 104.133 302.072V307H102.309V298.184H104.133V299.192C104.432 298.829 104.811 298.547 105.269 298.344C105.739 298.141 106.235 298.04 106.757 298.04ZM120.78 302.376C120.78 302.707 120.759 303.005 120.716 303.272H113.98C114.033 303.976 114.295 304.541 114.764 304.968C115.233 305.395 115.809 305.608 116.492 305.608C117.473 305.608 118.167 305.197 118.572 304.376H120.54C120.273 305.187 119.788 305.853 119.084 306.376C118.391 306.888 117.527 307.144 116.492 307.144C115.649 307.144 114.892 306.957 114.22 306.584C113.559 306.2 113.036 305.667 112.652 304.984C112.279 304.291 112.092 303.491 112.092 302.584C112.092 301.677 112.273 300.883 112.636 300.2C113.009 299.507 113.527 298.973 114.188 298.6C114.86 298.227 115.628 298.04 116.492 298.04C117.324 298.04 118.065 298.221 118.716 298.584C119.367 298.947 119.873 299.459 120.236 300.12C120.599 300.771 120.78 301.523 120.78 302.376ZM118.876 301.8C118.865 301.128 118.625 300.589 118.156 300.184C117.687 299.779 117.105 299.576 116.412 299.576C115.783 299.576 115.244 299.779 114.796 300.184C114.348 300.579 114.081 301.117 113.996 301.8H118.876ZM134.507 299.192C134.507 299.757 134.374 300.291 134.107 300.792C133.841 301.293 133.414 301.704 132.827 302.024C132.241 302.333 131.489 302.488 130.571 302.488H128.555V307H126.731V295.88H130.571C131.425 295.88 132.145 296.029 132.731 296.328C133.329 296.616 133.771 297.011 134.059 297.512C134.358 298.013 134.507 298.573 134.507 299.192ZM130.571 301C131.265 301 131.782 300.845 132.123 300.536C132.465 300.216 132.635 299.768 132.635 299.192C132.635 297.976 131.947 297.368 130.571 297.368H128.555V301H130.571ZM135.639 302.552C135.639 301.667 135.82 300.883 136.183 300.2C136.556 299.517 137.058 298.989 137.687 298.616C138.327 298.232 139.031 298.04 139.799 298.04C140.492 298.04 141.095 298.179 141.607 298.456C142.13 298.723 142.546 299.059 142.855 299.464V298.184H144.695V307H142.855V305.688C142.546 306.104 142.124 306.451 141.591 306.728C141.058 307.005 140.45 307.144 139.767 307.144C139.01 307.144 138.316 306.952 137.687 306.568C137.058 306.173 136.556 305.629 136.183 304.936C135.82 304.232 135.639 303.437 135.639 302.552ZM142.855 302.584C142.855 301.976 142.727 301.448 142.471 301C142.226 300.552 141.9 300.211 141.495 299.976C141.09 299.741 140.652 299.624 140.183 299.624C139.714 299.624 139.276 299.741 138.871 299.976C138.466 300.2 138.135 300.536 137.879 300.984C137.634 301.421 137.511 301.944 137.511 302.552C137.511 303.16 137.634 303.693 137.879 304.152C138.135 304.611 138.466 304.963 138.871 305.208C139.287 305.443 139.724 305.56 140.183 305.56C140.652 305.56 141.09 305.443 141.495 305.208C141.9 304.973 142.226 304.632 142.471 304.184C142.727 303.725 142.855 303.192 142.855 302.584ZM155.027 298.184L149.619 311.144H147.731L149.523 306.856L146.051 298.184H148.083L150.563 304.904L153.139 298.184H155.027Z" fill="#5A5A5A"/>
<g clip-path="url(#clip0_63_2847)">
<path d="M36.5218 280.473C33.1545 279.678 29.627 279.899 26.3854 281.109C23.1438 282.319 20.3337 284.462 18.3104 287.269C16.2871 290.076 15.1415 293.419 15.0185 296.877C14.8954 300.335 15.8004 303.751 17.619 306.695C19.4376 309.638 22.0882 311.976 25.2356 313.413C28.383 314.85 31.8858 315.322 35.3011 314.768C38.7165 314.214 41.8909 312.66 44.4231 310.303C46.9554 307.945 48.7316 304.889 49.5272 301.522C50.0555 299.286 50.1382 296.968 49.7706 294.7C49.4029 292.432 48.5921 290.258 47.3844 288.304C46.1767 286.349 44.5958 284.652 42.732 283.308C40.8682 281.964 38.7579 281.001 36.5218 280.473Z" fill="#5F259F"/>
<path d="M40.4411 292.935C40.4316 292.602 40.2943 292.286 40.0577 292.052C39.8211 291.818 39.5034 291.684 39.1707 291.678H36.8237L31.449 285.506C31.1975 285.224 30.871 285.018 30.5073 284.915C30.1437 284.811 29.7581 284.812 29.3953 284.919L27.5325 285.506C27.4664 285.529 27.4066 285.567 27.3583 285.617C27.3101 285.668 27.2748 285.729 27.2555 285.797C27.2362 285.864 27.2334 285.935 27.2474 286.003C27.2615 286.072 27.2918 286.136 27.336 286.19L33.2064 291.761H24.314C24.2494 291.758 24.1849 291.769 24.1247 291.792C24.0644 291.816 24.0098 291.852 23.9642 291.898C23.9186 291.943 23.8831 291.998 23.8599 292.059C23.8368 292.119 23.8265 292.184 23.8297 292.248V293.225C23.8356 293.56 23.9713 293.88 24.2083 294.117C24.4453 294.354 24.765 294.49 25.1001 294.495H26.4701V299.189C26.4701 302.707 28.3272 304.761 31.4547 304.761C32.3912 304.789 33.3235 304.623 34.1919 304.271V307.404C34.1892 307.61 34.2278 307.815 34.3055 308.006C34.3831 308.196 34.4982 308.37 34.6439 308.516C34.7897 308.661 34.9631 308.776 35.154 308.854C35.345 308.932 35.5495 308.97 35.7556 308.968H37.1228C37.2749 308.957 37.4181 308.892 37.5259 308.784C37.6337 308.676 37.6989 308.533 37.7095 308.381V294.401H39.9512C40.0165 294.405 40.0818 294.395 40.143 294.372C40.2041 294.348 40.2596 294.312 40.3058 294.266C40.3521 294.22 40.3881 294.164 40.4114 294.103C40.4347 294.042 40.4448 293.977 40.4411 293.912V292.935ZM34.1748 301.34C33.5583 301.61 32.8908 301.743 32.218 301.73C30.6543 301.73 29.8739 300.95 29.8739 299.189V294.498H34.1748V301.334V301.34Z" fill="white"/>
</g>
</g>
<defs>
<clipPath id="clip0_63_2847">
<rect width="35" height="35" fill="white" transform="translate(15 280)"/>
</clipPath>
</defs>
</svg>
