<svg width="362" height="36" viewBox="0 0 362 36" fill="none" xmlns="http://www.w3.org/2000/svg">
<path d="M12 3.6001L12.9405 3.65292L13.8692 3.8107L14.7743 4.07148L15.6446 4.43196L16.469 4.88761L17.2373 5.43271L17.9397 6.0604L18.5674 6.76278L19.1125 7.53103L19.5681 8.35547L19.9286 9.22575L20.1894 10.1309L20.3472 11.0596L20.4 12.0001L20.3472 12.9406L20.1894 13.8693L19.9286 14.7744L19.5681 15.6447L19.1125 16.4692L18.5674 17.2374L17.9397 17.9398L17.2373 18.5675L16.469 19.1126L15.6446 19.5682L14.7743 19.9287L13.8692 20.1895L12.9405 20.3473L12 20.4001L11.0595 20.3473L10.1308 20.1895L9.22563 19.9287L8.35535 19.5682L7.53091 19.1126L6.76266 18.5675L6.06028 17.9398L5.43259 17.2374L4.88749 16.4692L4.43184 15.6447L4.07136 14.7744L3.81058 13.8693L3.65279 12.9406L3.59998 12.0001L3.65279 11.0596L3.81058 10.1309L4.07136 9.22575L4.43184 8.35547L4.88749 7.53103L5.43259 6.76278L6.06028 6.0604L6.76266 5.43271L7.53091 4.88761L8.35535 4.43196L9.22563 4.07148L10.1308 3.8107L11.0595 3.65292L12 3.6001Z" fill="#C2CCDE" fill-opacity="0.25"/>
<path d="M12 3.6001L12.056 2.60167C12.0187 2.59957 11.9813 2.59957 11.9439 2.60167L12 3.6001ZM12.9405 3.65292L13.108 2.66704C13.0711 2.66078 13.0339 2.65659 12.9965 2.65449L12.9405 3.65292ZM13.8692 3.8107L14.146 2.84979C14.11 2.83943 14.0735 2.8311 14.0367 2.82483L13.8692 3.8107ZM14.7743 4.07148L15.157 3.1476C15.1224 3.13328 15.0871 3.12092 15.0512 3.11056L14.7743 4.07148ZM15.6446 4.43196L16.1283 3.55674C16.0956 3.53864 16.0618 3.5224 16.0273 3.50808L15.6446 4.43196ZM16.469 4.88761L17.0477 4.07205C17.0172 4.05041 16.9855 4.03049 16.9528 4.01239L16.469 4.88761ZM17.2373 5.43271L17.9036 4.68707C17.8757 4.66214 17.8465 4.6388 17.816 4.61715L17.2373 5.43271ZM17.9397 6.0604L18.6853 5.39405C18.6604 5.36616 18.6339 5.33969 18.606 5.31476L17.9397 6.0604ZM18.5674 6.76278L19.3829 6.18411C19.3613 6.1536 19.3379 6.12433 19.313 6.09644L18.5674 6.76278ZM19.1125 7.53103L19.9877 7.04731C19.9696 7.01457 19.9497 6.98287 19.928 6.95236L19.1125 7.53103ZM19.5681 8.35547L20.492 7.97279C20.4777 7.93823 20.4614 7.9045 20.4433 7.87176L19.5681 8.35547ZM19.9286 9.22575L20.8895 8.94892C20.8792 8.91297 20.8668 8.87763 20.8525 8.84307L19.9286 9.22575ZM20.1894 10.1309L21.1752 9.96342C21.169 9.92653 21.1606 9.89003 21.1503 9.85409L20.1894 10.1309ZM20.3472 11.0596L21.3456 11.0035C21.3435 10.9662 21.3393 10.929 21.333 10.8921L20.3472 11.0596ZM20.4 12.0001L21.3984 12.0562C21.4005 12.0188 21.4005 11.9814 21.3984 11.944L20.4 12.0001ZM20.3472 12.9406L21.333 13.1081C21.3393 13.0712 21.3435 13.034 21.3456 12.9967L20.3472 12.9406ZM20.1894 13.8693L21.1503 14.1461C21.1606 14.1102 21.169 14.0737 21.1752 14.0368L20.1894 13.8693ZM19.9286 14.7744L20.8525 15.1571C20.8668 15.1226 20.8792 15.0872 20.8895 15.0513L19.9286 14.7744ZM19.5681 15.6447L20.4433 16.1284C20.4614 16.0957 20.4777 16.062 20.492 16.0274L19.5681 15.6447ZM19.1125 16.4692L19.928 17.0478C19.9497 17.0173 19.9696 16.9856 19.9877 16.9529L19.1125 16.4692ZM18.5674 17.2374L19.313 17.9038C19.3379 17.8759 19.3613 17.8466 19.3829 17.8161L18.5674 17.2374ZM17.9397 17.9398L18.606 18.6854C18.6339 18.6605 18.6604 18.634 18.6853 18.6061L17.9397 17.9398ZM17.2373 18.5675L17.816 19.383C17.8465 19.3614 17.8757 19.3381 17.9036 19.3131L17.2373 18.5675ZM16.469 19.1126L16.9528 19.9878C16.9855 19.9697 17.0172 19.9498 17.0477 19.9281L16.469 19.1126ZM15.6446 19.5682L16.0273 20.4921C16.0618 20.4778 16.0956 20.4616 16.1283 20.4435L15.6446 19.5682ZM14.7743 19.9287L15.0512 20.8896C15.0871 20.8793 15.1224 20.8669 15.157 20.8526L14.7743 19.9287ZM13.8692 20.1895L14.0367 21.1754C14.0735 21.1691 14.11 21.1608 14.146 21.1504L13.8692 20.1895ZM12.9405 20.3473L12.9965 21.3457C13.0339 21.3436 13.0711 21.3394 13.108 21.3331L12.9405 20.3473ZM12 20.4001L11.9439 21.3985C11.9813 21.4006 12.0187 21.4006 12.056 21.3985L12 20.4001ZM11.0595 20.3473L10.892 21.3331C10.9288 21.3394 10.9661 21.3436 11.0034 21.3457L11.0595 20.3473ZM10.1308 20.1895L9.85396 21.1504C9.88991 21.1608 9.92641 21.1691 9.96329 21.1754L10.1308 20.1895ZM9.22563 19.9287L8.84295 20.8526C8.87751 20.8669 8.91285 20.8793 8.9488 20.8896L9.22563 19.9287ZM8.35535 19.5682L7.87163 20.4435C7.90438 20.4616 7.93811 20.4778 7.97267 20.4921L8.35535 19.5682ZM7.53091 19.1126L6.95224 19.9281C6.98275 19.9498 7.01445 19.9697 7.04719 19.9878L7.53091 19.1126ZM6.76266 18.5675L6.09631 19.3131C6.12421 19.3381 6.15348 19.3614 6.18399 19.383L6.76266 18.5675ZM6.06028 17.9398L5.31464 18.6061C5.33956 18.634 5.36604 18.6605 5.39393 18.6854L6.06028 17.9398ZM5.43259 17.2374L4.61703 17.8161C4.63868 17.8466 4.66202 17.8759 4.68695 17.9038L5.43259 17.2374ZM4.88749 16.4692L4.01227 16.9529C4.03036 16.9856 4.05028 17.0173 4.07193 17.0478L4.88749 16.4692ZM4.43184 15.6447L3.50796 16.0274C3.52227 16.062 3.53852 16.0957 3.55661 16.1284L4.43184 15.6447ZM4.07136 14.7744L3.11044 15.0513C3.12079 15.0872 3.13316 15.1226 3.14748 15.1571L4.07136 14.7744ZM3.81058 13.8693L2.82471 14.0368C2.83098 14.0737 2.83931 14.1102 2.84966 14.1461L3.81058 13.8693ZM3.65279 12.9406L2.65437 12.9967C2.65646 13.034 2.66066 13.0712 2.66692 13.1081L3.65279 12.9406ZM3.59998 12.0001L2.60155 11.944C2.59945 11.9814 2.59945 12.0188 2.60155 12.0562L3.59998 12.0001ZM3.65279 11.0596L2.66692 10.8921C2.66066 10.929 2.65646 10.9662 2.65437 11.0035L3.65279 11.0596ZM3.81058 10.1309L2.84966 9.85409C2.83931 9.89003 2.83098 9.92653 2.82471 9.96342L3.81058 10.1309ZM4.07136 9.22575L3.14748 8.84307C3.13316 8.87763 3.12079 8.91297 3.11044 8.94892L4.07136 9.22575ZM4.43184 8.35547L3.55661 7.87176C3.53852 7.9045 3.52227 7.93823 3.50796 7.97279L4.43184 8.35547ZM4.88749 7.53103L4.07193 6.95236C4.05028 6.98287 4.03036 7.01457 4.01227 7.04731L4.88749 7.53103ZM5.43259 6.76278L4.68695 6.09644C4.66202 6.12433 4.63868 6.1536 4.61703 6.18411L5.43259 6.76278ZM6.06028 6.0604L5.39393 5.31476C5.36604 5.33969 5.33956 5.36616 5.31464 5.39405L6.06028 6.0604ZM6.76266 5.43271L6.18399 4.61715C6.15348 4.6388 6.12421 4.66214 6.09631 4.68707L6.76266 5.43271ZM7.53091 4.88761L7.04719 4.01239C7.01445 4.03049 6.98274 4.05041 6.95223 4.07205L7.53091 4.88761ZM8.35535 4.43196L7.97267 3.50808C7.93811 3.5224 7.90438 3.53864 7.87163 3.55674L8.35535 4.43196ZM9.22563 4.07148L8.9488 3.11056C8.91285 3.12092 8.87751 3.13328 8.84295 3.1476L9.22563 4.07148ZM10.1308 3.8107L9.96329 2.82483C9.92641 2.8311 9.88991 2.83943 9.85396 2.84979L10.1308 3.8107ZM11.0595 3.65292L11.0034 2.65449C10.9661 2.65659 10.9288 2.66078 10.892 2.66704L11.0595 3.65292ZM11.9439 4.59852L12.8844 4.65134L12.9965 2.65449L12.056 2.60167L11.9439 4.59852ZM12.773 4.63879L13.7016 4.79657L14.0367 2.82483L13.108 2.66704L12.773 4.63879ZM13.5923 4.77162L14.4975 5.0324L15.0512 3.11056L14.146 2.84979L13.5923 4.77162ZM14.3916 4.99536L15.2619 5.35584L16.0273 3.50808L15.157 3.1476L14.3916 4.99536ZM15.1609 5.30718L15.9853 5.76284L16.9528 4.01239L16.1283 3.55674L15.1609 5.30718ZM15.8904 5.70318L16.6586 6.24827L17.816 4.61715L17.0477 4.07205L15.8904 5.70318ZM16.5709 6.17836L17.2733 6.80604L18.606 5.31476L17.9036 4.68707L16.5709 6.17836ZM17.194 6.72675L17.8217 7.42913L19.313 6.09644L18.6853 5.39405L17.194 6.72675ZM17.7518 7.34145L18.2969 8.1097L19.928 6.95236L19.3829 6.18411L17.7518 7.34145ZM18.2372 8.01475L18.6929 8.83919L20.4433 7.87176L19.9877 7.04731L18.2372 8.01475ZM18.6442 8.73816L19.0047 9.60844L20.8525 8.84307L20.492 7.97279L18.6442 8.73816ZM18.9677 9.50259L19.2285 10.4078L21.1503 9.85409L20.8895 8.94892L18.9677 9.50259ZM19.2035 10.2984L19.3613 11.2271L21.333 10.8921L21.1752 9.96342L19.2035 10.2984ZM19.3487 11.1157L19.4015 12.0562L21.3984 11.944L21.3456 11.0035L19.3487 11.1157ZM19.4015 11.944L19.3487 12.8845L21.3456 12.9967L21.3984 12.0562L19.4015 11.944ZM19.3613 12.7731L19.2035 13.7018L21.1752 14.0368L21.333 13.1081L19.3613 12.7731ZM19.2285 13.5924L18.9677 14.4976L20.8895 15.0513L21.1503 14.1461L19.2285 13.5924ZM19.0047 14.3918L18.6442 15.262L20.492 16.0274L20.8525 15.1571L19.0047 14.3918ZM18.6929 15.161L18.2372 15.9854L19.9877 16.9529L20.4433 16.1284L18.6929 15.161ZM18.2969 15.8905L17.7518 16.6587L19.3829 17.8161L19.928 17.0478L18.2969 15.8905ZM17.8217 16.5711L17.194 17.2734L18.6853 18.6061L19.313 17.9038L17.8217 16.5711ZM17.2733 17.1942L16.5709 17.8218L17.9036 19.3131L18.606 18.6854L17.2733 17.1942ZM16.6586 17.7519L15.8904 18.297L17.0477 19.9281L17.816 19.383L16.6586 17.7519ZM15.9853 18.2374L15.1609 18.693L16.1283 20.4435L16.9528 19.9878L15.9853 18.2374ZM15.2619 18.6444L14.3916 19.0048L15.157 20.8526L16.0273 20.4921L15.2619 18.6444ZM14.4975 18.9678L13.5923 19.2286L14.146 21.1504L15.0512 20.8896L14.4975 18.9678ZM13.7016 19.2036L12.773 19.3614L13.108 21.3331L14.0367 21.1754L13.7016 19.2036ZM12.8844 19.3489L11.9439 19.4017L12.056 21.3985L12.9965 21.3457L12.8844 19.3489ZM12.056 19.4017L11.1155 19.3489L11.0034 21.3457L11.9439 21.3985L12.056 19.4017ZM11.227 19.3614L10.2983 19.2036L9.96329 21.1754L10.892 21.3331L11.227 19.3614ZM10.4076 19.2286L9.50247 18.9678L8.9488 20.8896L9.85396 21.1504L10.4076 19.2286ZM9.60831 19.0048L8.73804 18.6444L7.97267 20.4921L8.84295 20.8526L9.60831 19.0048ZM8.83907 18.693L8.01463 18.2374L7.04719 19.9878L7.87163 20.4435L8.83907 18.693ZM8.10958 18.297L7.34133 17.7519L6.18399 19.383L6.95224 19.9281L8.10958 18.297ZM7.42901 17.8218L6.72662 17.1942L5.39393 18.6854L6.09631 19.3131L7.42901 17.8218ZM6.80592 17.2734L6.17823 16.5711L4.68695 17.9038L5.31464 18.6061L6.80592 17.2734ZM6.24815 16.6587L5.70305 15.8905L4.07193 17.0478L4.61703 17.8161L6.24815 16.6587ZM5.76272 15.9854L5.30706 15.161L3.55661 16.1284L4.01227 16.9529L5.76272 15.9854ZM5.35572 15.262L4.99524 14.3918L3.14748 15.1571L3.50796 16.0274L5.35572 15.262ZM5.03227 14.4976L4.7715 13.5924L2.84966 14.1461L3.11044 15.0513L5.03227 14.4976ZM4.79645 13.7018L4.63866 12.7731L2.66692 13.1081L2.82471 14.0368L4.79645 13.7018ZM4.65122 12.8845L4.5984 11.944L2.60155 12.0562L2.65437 12.9967L4.65122 12.8845ZM4.5984 12.0562L4.65122 11.1157L2.65437 11.0035L2.60155 11.944L4.5984 12.0562ZM4.63866 11.2271L4.79645 10.2984L2.82471 9.96342L2.66692 10.8921L4.63866 11.2271ZM4.7715 10.4078L5.03227 9.50259L3.11044 8.94892L2.84966 9.85409L4.7715 10.4078ZM4.99524 9.60844L5.35572 8.73816L3.50796 7.97279L3.14748 8.84307L4.99524 9.60844ZM5.30706 8.83919L5.76272 8.01475L4.01227 7.04731L3.55661 7.87176L5.30706 8.83919ZM5.70305 8.1097L6.24815 7.34145L4.61703 6.18411L4.07193 6.95236L5.70305 8.1097ZM6.17823 7.42913L6.80592 6.72675L5.31464 5.39405L4.68695 6.09644L6.17823 7.42913ZM6.72662 6.80604L7.42901 6.17836L6.09631 4.68707L5.39393 5.31476L6.72662 6.80604ZM7.34133 6.24827L8.10958 5.70318L6.95223 4.07205L6.18399 4.61715L7.34133 6.24827ZM8.01463 5.76284L8.83907 5.30718L7.87163 3.55674L7.04719 4.01239L8.01463 5.76284ZM8.73804 5.35584L9.60831 4.99536L8.84295 3.1476L7.97267 3.50808L8.73804 5.35584ZM9.50247 5.0324L10.4076 4.77162L9.85396 2.84979L8.9488 3.11056L9.50247 5.0324ZM10.2983 4.79657L11.227 4.63879L10.892 2.66704L9.96329 2.82483L10.2983 4.79657ZM11.1155 4.65134L12.056 4.59852L11.9439 2.60167L11.0034 2.65449L11.1155 4.65134Z" fill="#43A048"/>
<path d="M7.56924 12.055L9.81932 14.3264C10.208 14.7188 10.8382 14.7188 11.2268 14.3264L16.4308 9.07316" stroke="#43A048" stroke-width="2" stroke-linecap="round" stroke-linejoin="round"/>
<path d="M39.364 8.716C39.812 8.796 40.192 9.032 40.504 9.424C40.816 9.816 40.972 10.26 40.972 10.756C40.972 11.18 40.86 11.564 40.636 11.908C40.42 12.244 40.104 12.512 39.688 12.712C39.272 12.904 38.788 13 38.236 13H34.9V4.66H38.08C38.648 4.66 39.136 4.756 39.544 4.948C39.952 5.14 40.26 5.4 40.468 5.728C40.676 6.048 40.78 6.408 40.78 6.808C40.78 7.288 40.652 7.688 40.396 8.008C40.14 8.328 39.796 8.564 39.364 8.716ZM36.268 8.164H37.96C38.408 8.164 38.756 8.064 39.004 7.864C39.26 7.656 39.388 7.36 39.388 6.976C39.388 6.6 39.26 6.308 39.004 6.1C38.756 5.884 38.408 5.776 37.96 5.776H36.268V8.164ZM38.116 11.884C38.58 11.884 38.944 11.772 39.208 11.548C39.472 11.324 39.604 11.012 39.604 10.612C39.604 10.204 39.464 9.88 39.184 9.64C38.904 9.4 38.532 9.28 38.068 9.28H36.268V11.884H38.116ZM48.4106 6.388L44.3546 16.108H42.9386L44.2826 12.892L41.6786 6.388H43.2026L45.0626 11.428L46.9946 6.388H48.4106ZM54.9602 13.108C54.4402 13.108 53.9722 13.016 53.5562 12.832C53.1482 12.64 52.8242 12.384 52.5842 12.064C52.3442 11.736 52.2162 11.372 52.2002 10.972H53.6162C53.6402 11.252 53.7722 11.488 54.0122 11.68C54.2602 11.864 54.5682 11.956 54.9362 11.956C55.3202 11.956 55.6162 11.884 55.8242 11.74C56.0402 11.588 56.1482 11.396 56.1482 11.164C56.1482 10.916 56.0282 10.732 55.7882 10.612C55.5562 10.492 55.1842 10.36 54.6722 10.216C54.1762 10.08 53.7722 9.948 53.4602 9.82C53.1482 9.692 52.8762 9.496 52.6442 9.232C52.4202 8.968 52.3082 8.62 52.3082 8.188C52.3082 7.836 52.4122 7.516 52.6202 7.228C52.8282 6.932 53.1242 6.7 53.5082 6.532C53.9002 6.364 54.3482 6.28 54.8522 6.28C55.6042 6.28 56.2082 6.472 56.6642 6.856C57.1282 7.232 57.3762 7.748 57.4082 8.404H56.0402C56.0162 8.108 55.8962 7.872 55.6802 7.696C55.4642 7.52 55.1722 7.432 54.8042 7.432C54.4442 7.432 54.1682 7.5 53.9762 7.636C53.7842 7.772 53.6882 7.952 53.6882 8.176C53.6882 8.352 53.7522 8.5 53.8802 8.62C54.0082 8.74 54.1642 8.836 54.3482 8.908C54.5322 8.972 54.8042 9.056 55.1642 9.16C55.6442 9.288 56.0362 9.42 56.3402 9.556C56.6522 9.684 56.9202 9.876 57.1442 10.132C57.3682 10.388 57.4842 10.728 57.4922 11.152C57.4922 11.528 57.3882 11.864 57.1802 12.16C56.9722 12.456 56.6762 12.688 56.2922 12.856C55.9162 13.024 55.4722 13.108 54.9602 13.108ZM59.6663 5.512C59.4183 5.512 59.2103 5.428 59.0423 5.26C58.8743 5.092 58.7903 4.884 58.7903 4.636C58.7903 4.388 58.8743 4.18 59.0423 4.012C59.2103 3.844 59.4183 3.76 59.6663 3.76C59.9063 3.76 60.1103 3.844 60.2783 4.012C60.4463 4.18 60.5303 4.388 60.5303 4.636C60.5303 4.884 60.4463 5.092 60.2783 5.26C60.1103 5.428 59.9063 5.512 59.6663 5.512ZM60.3383 6.388V13H58.9703V6.388H60.3383ZM64.7984 6.28C65.3104 6.28 65.7624 6.384 66.1544 6.592C66.5544 6.792 66.8664 7.044 67.0904 7.348V6.388H68.4704V13.108C68.4704 13.716 68.3424 14.256 68.0864 14.728C67.8304 15.208 67.4584 15.584 66.9704 15.856C66.4904 16.128 65.9144 16.264 65.2424 16.264C64.3464 16.264 63.6024 16.052 63.0104 15.628C62.4184 15.212 62.0824 14.644 62.0024 13.924H63.3584C63.4624 14.268 63.6824 14.544 64.0184 14.752C64.3624 14.968 64.7704 15.076 65.2424 15.076C65.7944 15.076 66.2384 14.908 66.5744 14.572C66.9184 14.236 67.0904 13.748 67.0904 13.108V12.004C66.8584 12.316 66.5424 12.58 66.1424 12.796C65.7504 13.004 65.3024 13.108 64.7984 13.108C64.2224 13.108 63.6944 12.964 63.2144 12.676C62.7424 12.38 62.3664 11.972 62.0864 11.452C61.8144 10.924 61.6784 10.328 61.6784 9.664C61.6784 9 61.8144 8.412 62.0864 7.9C62.3664 7.388 62.7424 6.992 63.2144 6.712C63.6944 6.424 64.2224 6.28 64.7984 6.28ZM67.0904 9.688C67.0904 9.232 66.9944 8.836 66.8024 8.5C66.6184 8.164 66.3744 7.908 66.0704 7.732C65.7664 7.556 65.4384 7.468 65.0864 7.468C64.7344 7.468 64.4064 7.556 64.1024 7.732C63.7984 7.9 63.5504 8.152 63.3584 8.488C63.1744 8.816 63.0824 9.208 63.0824 9.664C63.0824 10.12 63.1744 10.52 63.3584 10.864C63.5504 11.208 63.7984 11.472 64.1024 11.656C64.4144 11.832 64.7424 11.92 65.0864 11.92C65.4384 11.92 65.7664 11.832 66.0704 11.656C66.3744 11.48 66.6184 11.224 66.8024 10.888C66.9944 10.544 67.0904 10.144 67.0904 9.688ZM73.6032 6.28C74.1232 6.28 74.5872 6.388 74.9952 6.604C75.4112 6.82 75.7352 7.14 75.9672 7.564C76.1992 7.988 76.3152 8.5 76.3152 9.1V13H74.9592V9.304C74.9592 8.712 74.8112 8.26 74.5152 7.948C74.2192 7.628 73.8152 7.468 73.3032 7.468C72.7912 7.468 72.3832 7.628 72.0792 7.948C71.7832 8.26 71.6352 8.712 71.6352 9.304V13H70.2672V6.388H71.6352V7.144C71.8592 6.872 72.1432 6.66 72.4872 6.508C72.8392 6.356 73.2112 6.28 73.6032 6.28ZM78.7562 5.512C78.5082 5.512 78.3002 5.428 78.1322 5.26C77.9642 5.092 77.8802 4.884 77.8802 4.636C77.8802 4.388 77.9642 4.18 78.1322 4.012C78.3002 3.844 78.5082 3.76 78.7562 3.76C78.9962 3.76 79.2002 3.844 79.3682 4.012C79.5362 4.18 79.6202 4.388 79.6202 4.636C79.6202 4.884 79.5362 5.092 79.3682 5.26C79.2002 5.428 78.9962 5.512 78.7562 5.512ZM79.4282 6.388V13H78.0602V6.388H79.4282ZM84.5602 6.28C85.0802 6.28 85.5442 6.388 85.9522 6.604C86.3682 6.82 86.6922 7.14 86.9242 7.564C87.1562 7.988 87.2722 8.5 87.2722 9.1V13H85.9162V9.304C85.9162 8.712 85.7682 8.26 85.4722 7.948C85.1762 7.628 84.7722 7.468 84.2602 7.468C83.7482 7.468 83.3402 7.628 83.0362 7.948C82.7402 8.26 82.5922 8.712 82.5922 9.304V13H81.2242V6.388H82.5922V7.144C82.8162 6.872 83.1002 6.66 83.4442 6.508C83.7962 6.356 84.1682 6.28 84.5602 6.28ZM91.6812 6.28C92.1932 6.28 92.6452 6.384 93.0372 6.592C93.4372 6.792 93.7492 7.044 93.9732 7.348V6.388H95.3532V13.108C95.3532 13.716 95.2252 14.256 94.9692 14.728C94.7132 15.208 94.3412 15.584 93.8532 15.856C93.3732 16.128 92.7972 16.264 92.1252 16.264C91.2292 16.264 90.4852 16.052 89.8932 15.628C89.3012 15.212 88.9652 14.644 88.8852 13.924H90.2412C90.3452 14.268 90.5652 14.544 90.9012 14.752C91.2452 14.968 91.6532 15.076 92.1252 15.076C92.6772 15.076 93.1212 14.908 93.4572 14.572C93.8012 14.236 93.9732 13.748 93.9732 13.108V12.004C93.7412 12.316 93.4252 12.58 93.0252 12.796C92.6332 13.004 92.1852 13.108 91.6812 13.108C91.1052 13.108 90.5772 12.964 90.0972 12.676C89.6252 12.38 89.2492 11.972 88.9692 11.452C88.6972 10.924 88.5612 10.328 88.5612 9.664C88.5612 9 88.6972 8.412 88.9692 7.9C89.2492 7.388 89.6252 6.992 90.0972 6.712C90.5772 6.424 91.1052 6.28 91.6812 6.28ZM93.9732 9.688C93.9732 9.232 93.8772 8.836 93.6852 8.5C93.5012 8.164 93.2572 7.908 92.9532 7.732C92.6492 7.556 92.3212 7.468 91.9692 7.468C91.6172 7.468 91.2892 7.556 90.9852 7.732C90.6812 7.9 90.4332 8.152 90.2412 8.488C90.0572 8.816 89.9652 9.208 89.9652 9.664C89.9652 10.12 90.0572 10.52 90.2412 10.864C90.4332 11.208 90.6812 11.472 90.9852 11.656C91.2972 11.832 91.6252 11.92 91.9692 11.92C92.3212 11.92 92.6492 11.832 92.9532 11.656C93.2572 11.48 93.5012 11.224 93.6852 10.888C93.8772 10.544 93.9732 10.144 93.9732 9.688ZM106.255 6.388V13H104.887V12.22C104.671 12.492 104.387 12.708 104.035 12.868C103.691 13.02 103.323 13.096 102.931 13.096C102.411 13.096 101.943 12.988 101.527 12.772C101.119 12.556 100.795 12.236 100.555 11.812C100.323 11.388 100.207 10.876 100.207 10.276V6.388H101.563V10.072C101.563 10.664 101.711 11.12 102.007 11.44C102.303 11.752 102.707 11.908 103.219 11.908C103.731 11.908 104.135 11.752 104.431 11.44C104.735 11.12 104.887 10.664 104.887 10.072V6.388H106.255ZM109.428 7.36C109.66 7.056 109.976 6.8 110.376 6.592C110.776 6.384 111.228 6.28 111.732 6.28C112.308 6.28 112.832 6.424 113.304 6.712C113.784 6.992 114.16 7.388 114.432 7.9C114.704 8.412 114.84 9 114.84 9.664C114.84 10.328 114.704 10.924 114.432 11.452C114.16 11.972 113.784 12.38 113.304 12.676C112.832 12.964 112.308 13.108 111.732 13.108C111.228 13.108 110.78 13.008 110.388 12.808C109.996 12.6 109.676 12.344 109.428 12.04V16.144H108.06V6.388H109.428V7.36ZM113.448 9.664C113.448 9.208 113.352 8.816 113.16 8.488C112.976 8.152 112.728 7.9 112.416 7.732C112.112 7.556 111.784 7.468 111.432 7.468C111.088 7.468 110.76 7.556 110.448 7.732C110.144 7.908 109.896 8.164 109.704 8.5C109.52 8.836 109.428 9.232 109.428 9.688C109.428 10.144 109.52 10.544 109.704 10.888C109.896 11.224 110.144 11.48 110.448 11.656C110.76 11.832 111.088 11.92 111.432 11.92C111.784 11.92 112.112 11.832 112.416 11.656C112.728 11.472 112.976 11.208 113.16 10.864C113.352 10.52 113.448 10.12 113.448 9.664ZM116.745 13.084C116.497 13.084 116.289 13 116.121 12.832C115.953 12.664 115.869 12.456 115.869 12.208C115.869 11.96 115.953 11.752 116.121 11.584C116.289 11.416 116.497 11.332 116.745 11.332C116.985 11.332 117.189 11.416 117.357 11.584C117.525 11.752 117.609 11.96 117.609 12.208C117.609 12.456 117.525 12.664 117.357 12.832C117.189 13 116.985 13.084 116.745 13.084ZM128.157 6.388L124.101 16.108H122.685L124.029 12.892L121.425 6.388H122.949L124.809 11.428L126.741 6.388H128.157ZM132.057 13.108C131.433 13.108 130.869 12.968 130.365 12.688C129.861 12.4 129.465 12 129.177 11.488C128.889 10.968 128.745 10.368 128.745 9.688C128.745 9.016 128.893 8.42 129.189 7.9C129.485 7.38 129.889 6.98 130.401 6.7C130.913 6.42 131.485 6.28 132.117 6.28C132.749 6.28 133.321 6.42 133.833 6.7C134.345 6.98 134.749 7.38 135.045 7.9C135.341 8.42 135.489 9.016 135.489 9.688C135.489 10.36 135.337 10.956 135.033 11.476C134.729 11.996 134.313 12.4 133.785 12.688C133.265 12.968 132.689 13.108 132.057 13.108ZM132.057 11.92C132.409 11.92 132.737 11.836 133.041 11.668C133.353 11.5 133.605 11.248 133.797 10.912C133.989 10.576 134.085 10.168 134.085 9.688C134.085 9.208 133.993 8.804 133.809 8.476C133.625 8.14 133.381 7.888 133.077 7.72C132.773 7.552 132.445 7.468 132.093 7.468C131.741 7.468 131.413 7.552 131.109 7.72C130.813 7.888 130.577 8.14 130.401 8.476C130.225 8.804 130.137 9.208 130.137 9.688C130.137 10.4 130.317 10.952 130.677 11.344C131.045 11.728 131.505 11.92 132.057 11.92ZM142.829 6.388V13H141.461V12.22C141.245 12.492 140.961 12.708 140.609 12.868C140.265 13.02 139.897 13.096 139.505 13.096C138.985 13.096 138.517 12.988 138.101 12.772C137.693 12.556 137.369 12.236 137.129 11.812C136.897 11.388 136.781 10.876 136.781 10.276V6.388H138.137V10.072C138.137 10.664 138.285 11.12 138.581 11.44C138.877 11.752 139.281 11.908 139.793 11.908C140.305 11.908 140.709 11.752 141.005 11.44C141.309 11.12 141.461 10.664 141.461 10.072V6.388H142.829ZM147.296 9.664C147.296 9 147.432 8.412 147.704 7.9C147.984 7.388 148.36 6.992 148.832 6.712C149.312 6.424 149.84 6.28 150.416 6.28C150.936 6.28 151.388 6.384 151.772 6.592C152.164 6.792 152.476 7.044 152.708 7.348V6.388H154.088V13H152.708V12.016C152.476 12.328 152.16 12.588 151.76 12.796C151.36 13.004 150.904 13.108 150.392 13.108C149.824 13.108 149.304 12.964 148.832 12.676C148.36 12.38 147.984 11.972 147.704 11.452C147.432 10.924 147.296 10.328 147.296 9.664ZM152.708 9.688C152.708 9.232 152.612 8.836 152.42 8.5C152.236 8.164 151.992 7.908 151.688 7.732C151.384 7.556 151.056 7.468 150.704 7.468C150.352 7.468 150.024 7.556 149.72 7.732C149.416 7.9 149.168 8.152 148.976 8.488C148.792 8.816 148.7 9.208 148.7 9.664C148.7 10.12 148.792 10.52 148.976 10.864C149.168 11.208 149.416 11.472 149.72 11.656C150.032 11.832 150.36 11.92 150.704 11.92C151.056 11.92 151.384 11.832 151.688 11.656C151.992 11.48 152.236 11.224 152.42 10.888C152.612 10.544 152.708 10.144 152.708 9.688ZM158.548 6.28C159.06 6.28 159.512 6.384 159.904 6.592C160.304 6.792 160.616 7.044 160.84 7.348V6.388H162.22V13.108C162.22 13.716 162.092 14.256 161.836 14.728C161.58 15.208 161.208 15.584 160.72 15.856C160.24 16.128 159.664 16.264 158.992 16.264C158.096 16.264 157.352 16.052 156.76 15.628C156.168 15.212 155.832 14.644 155.752 13.924H157.108C157.212 14.268 157.432 14.544 157.768 14.752C158.112 14.968 158.52 15.076 158.992 15.076C159.544 15.076 159.988 14.908 160.324 14.572C160.668 14.236 160.84 13.748 160.84 13.108V12.004C160.608 12.316 160.292 12.58 159.892 12.796C159.5 13.004 159.052 13.108 158.548 13.108C157.972 13.108 157.444 12.964 156.964 12.676C156.492 12.38 156.116 11.972 155.836 11.452C155.564 10.924 155.428 10.328 155.428 9.664C155.428 9 155.564 8.412 155.836 7.9C156.116 7.388 156.492 6.992 156.964 6.712C157.444 6.424 157.972 6.28 158.548 6.28ZM160.84 9.688C160.84 9.232 160.744 8.836 160.552 8.5C160.368 8.164 160.124 7.908 159.82 7.732C159.516 7.556 159.188 7.468 158.836 7.468C158.484 7.468 158.156 7.556 157.852 7.732C157.548 7.9 157.3 8.152 157.108 8.488C156.924 8.816 156.832 9.208 156.832 9.664C156.832 10.12 156.924 10.52 157.108 10.864C157.3 11.208 157.548 11.472 157.852 11.656C158.164 11.832 158.492 11.92 158.836 11.92C159.188 11.92 159.516 11.832 159.82 11.656C160.124 11.48 160.368 11.224 160.552 10.888C160.744 10.544 160.84 10.144 160.84 9.688ZM165.385 7.348C165.585 7.012 165.849 6.752 166.177 6.568C166.513 6.376 166.909 6.28 167.365 6.28V7.696H167.017C166.481 7.696 166.073 7.832 165.793 8.104C165.521 8.376 165.385 8.848 165.385 9.52V13H164.017V6.388H165.385V7.348ZM174.683 9.532C174.683 9.78 174.667 10.004 174.635 10.204H169.583C169.623 10.732 169.819 11.156 170.171 11.476C170.523 11.796 170.955 11.956 171.467 11.956C172.203 11.956 172.723 11.648 173.027 11.032H174.503C174.303 11.64 173.939 12.14 173.411 12.532C172.891 12.916 172.243 13.108 171.467 13.108C170.835 13.108 170.267 12.968 169.763 12.688C169.267 12.4 168.875 12 168.587 11.488C168.307 10.968 168.167 10.368 168.167 9.688C168.167 9.008 168.303 8.412 168.575 7.9C168.855 7.38 169.243 6.98 169.739 6.7C170.243 6.42 170.819 6.28 171.467 6.28C172.091 6.28 172.647 6.416 173.135 6.688C173.623 6.96 174.003 7.344 174.275 7.84C174.547 8.328 174.683 8.892 174.683 9.532ZM173.255 9.1C173.247 8.596 173.067 8.192 172.715 7.888C172.363 7.584 171.927 7.432 171.407 7.432C170.935 7.432 170.531 7.584 170.195 7.888C169.859 8.184 169.659 8.588 169.595 9.1H173.255ZM182.089 9.532C182.089 9.78 182.073 10.004 182.041 10.204H176.989C177.029 10.732 177.225 11.156 177.577 11.476C177.929 11.796 178.361 11.956 178.873 11.956C179.609 11.956 180.129 11.648 180.433 11.032H181.909C181.709 11.64 181.345 12.14 180.817 12.532C180.297 12.916 179.649 13.108 178.873 13.108C178.241 13.108 177.673 12.968 177.169 12.688C176.673 12.4 176.281 12 175.993 11.488C175.713 10.968 175.573 10.368 175.573 9.688C175.573 9.008 175.709 8.412 175.981 7.9C176.261 7.38 176.649 6.98 177.145 6.7C177.649 6.42 178.225 6.28 178.873 6.28C179.497 6.28 180.053 6.416 180.541 6.688C181.029 6.96 181.409 7.344 181.681 7.84C181.953 8.328 182.089 8.892 182.089 9.532ZM180.661 9.1C180.653 8.596 180.473 8.192 180.121 7.888C179.769 7.584 179.333 7.432 178.813 7.432C178.341 7.432 177.937 7.584 177.601 7.888C177.265 8.184 177.065 8.588 177.001 9.1H180.661ZM188.148 7.504V11.164C188.148 11.412 188.204 11.592 188.316 11.704C188.436 11.808 188.636 11.86 188.916 11.86H189.756V13H188.676C188.06 13 187.588 12.856 187.26 12.568C186.932 12.28 186.768 11.812 186.768 11.164V7.504H185.988V6.388H186.768V4.744H188.148V6.388H189.756V7.504H188.148ZM193.885 13.108C193.261 13.108 192.697 12.968 192.193 12.688C191.689 12.4 191.293 12 191.005 11.488C190.717 10.968 190.573 10.368 190.573 9.688C190.573 9.016 190.721 8.42 191.017 7.9C191.313 7.38 191.717 6.98 192.229 6.7C192.741 6.42 193.313 6.28 193.945 6.28C194.577 6.28 195.149 6.42 195.661 6.7C196.173 6.98 196.577 7.38 196.873 7.9C197.169 8.42 197.317 9.016 197.317 9.688C197.317 10.36 197.165 10.956 196.861 11.476C196.557 11.996 196.141 12.4 195.613 12.688C195.093 12.968 194.517 13.108 193.885 13.108ZM193.885 11.92C194.237 11.92 194.565 11.836 194.869 11.668C195.181 11.5 195.433 11.248 195.625 10.912C195.817 10.576 195.913 10.168 195.913 9.688C195.913 9.208 195.821 8.804 195.637 8.476C195.453 8.14 195.209 7.888 194.905 7.72C194.601 7.552 194.273 7.468 193.921 7.468C193.569 7.468 193.241 7.552 192.937 7.72C192.641 7.888 192.405 8.14 192.229 8.476C192.053 8.804 191.965 9.208 191.965 9.688C191.965 10.4 192.145 10.952 192.505 11.344C192.873 11.728 193.333 11.92 193.885 11.92ZM203.383 7.504V11.164C203.383 11.412 203.439 11.592 203.551 11.704C203.671 11.808 203.871 11.86 204.151 11.86H204.991V13H203.911C203.295 13 202.823 12.856 202.495 12.568C202.167 12.28 202.003 11.812 202.003 11.164V7.504H201.223V6.388H202.003V4.744H203.383V6.388H204.991V7.504H203.383ZM209.672 6.28C210.176 6.28 210.624 6.388 211.016 6.604C211.416 6.82 211.728 7.14 211.952 7.564C212.184 7.988 212.3 8.5 212.3 9.1V13H210.944V9.304C210.944 8.712 210.796 8.26 210.5 7.948C210.204 7.628 209.8 7.468 209.288 7.468C208.776 7.468 208.368 7.628 208.064 7.948C207.768 8.26 207.62 8.712 207.62 9.304V13H206.252V4.12H207.62V7.156C207.852 6.876 208.144 6.66 208.496 6.508C208.856 6.356 209.248 6.28 209.672 6.28ZM220.105 9.532C220.105 9.78 220.089 10.004 220.057 10.204H215.005C215.045 10.732 215.241 11.156 215.593 11.476C215.945 11.796 216.377 11.956 216.889 11.956C217.625 11.956 218.145 11.648 218.449 11.032H219.925C219.725 11.64 219.361 12.14 218.833 12.532C218.313 12.916 217.665 13.108 216.889 13.108C216.257 13.108 215.689 12.968 215.185 12.688C214.689 12.4 214.297 12 214.009 11.488C213.729 10.968 213.589 10.368 213.589 9.688C213.589 9.008 213.725 8.412 213.997 7.9C214.277 7.38 214.665 6.98 215.161 6.7C215.665 6.42 216.241 6.28 216.889 6.28C217.513 6.28 218.069 6.416 218.557 6.688C219.045 6.96 219.425 7.344 219.697 7.84C219.969 8.328 220.105 8.892 220.105 9.532ZM218.677 9.1C218.669 8.596 218.489 8.192 218.137 7.888C217.785 7.584 217.349 7.432 216.829 7.432C216.357 7.432 215.953 7.584 215.617 7.888C215.281 8.184 215.081 8.588 215.017 9.1H218.677ZM325.866 9.664C325.866 9 326.002 8.412 326.274 7.9C326.554 7.388 326.93 6.992 327.402 6.712C327.882 6.424 328.41 6.28 328.986 6.28C329.506 6.28 329.958 6.384 330.342 6.592C330.734 6.792 331.046 7.044 331.278 7.348V6.388H332.658V13H331.278V12.016C331.046 12.328 330.73 12.588 330.33 12.796C329.93 13.004 329.474 13.108 328.962 13.108C328.394 13.108 327.874 12.964 327.402 12.676C326.93 12.38 326.554 11.972 326.274 11.452C326.002 10.924 325.866 10.328 325.866 9.664ZM331.278 9.688C331.278 9.232 331.182 8.836 330.99 8.5C330.806 8.164 330.562 7.908 330.258 7.732C329.954 7.556 329.626 7.468 329.274 7.468C328.922 7.468 328.594 7.556 328.29 7.732C327.986 7.9 327.738 8.152 327.546 8.488C327.362 8.816 327.27 9.208 327.27 9.664C327.27 10.12 327.362 10.52 327.546 10.864C327.738 11.208 327.986 11.472 328.29 11.656C328.602 11.832 328.93 11.92 329.274 11.92C329.626 11.92 329.954 11.832 330.258 11.656C330.562 11.48 330.806 11.224 330.99 10.888C331.182 10.544 331.278 10.144 331.278 9.688ZM337.791 6.28C338.311 6.28 338.775 6.388 339.183 6.604C339.599 6.82 339.923 7.14 340.155 7.564C340.387 7.988 340.503 8.5 340.503 9.1V13H339.147V9.304C339.147 8.712 338.999 8.26 338.703 7.948C338.407 7.628 338.003 7.468 337.491 7.468C336.979 7.468 336.571 7.628 336.267 7.948C335.971 8.26 335.823 8.712 335.823 9.304V13H334.455V6.388H335.823V7.144C336.047 6.872 336.331 6.66 336.675 6.508C337.027 6.356 337.399 6.28 337.791 6.28ZM341.792 9.664C341.792 9 341.928 8.412 342.2 7.9C342.48 7.388 342.856 6.992 343.328 6.712C343.808 6.424 344.34 6.28 344.924 6.28C345.356 6.28 345.78 6.376 346.196 6.568C346.62 6.752 346.956 7 347.204 7.312V4.12H348.584V13H347.204V12.004C346.98 12.324 346.668 12.588 346.268 12.796C345.876 13.004 345.424 13.108 344.912 13.108C344.336 13.108 343.808 12.964 343.328 12.676C342.856 12.38 342.48 11.972 342.2 11.452C341.928 10.924 341.792 10.328 341.792 9.664ZM347.204 9.688C347.204 9.232 347.108 8.836 346.916 8.5C346.732 8.164 346.488 7.908 346.184 7.732C345.88 7.556 345.552 7.468 345.2 7.468C344.848 7.468 344.52 7.556 344.216 7.732C343.912 7.9 343.664 8.152 343.472 8.488C343.288 8.816 343.196 9.208 343.196 9.664C343.196 10.12 343.288 10.52 343.472 10.864C343.664 11.208 343.912 11.472 344.216 11.656C344.528 11.832 344.856 11.92 345.2 11.92C345.552 11.92 345.88 11.832 346.184 11.656C346.488 11.48 346.732 11.224 346.916 10.888C347.108 10.544 347.204 10.144 347.204 9.688Z" fill="#B8B8B8"/>
<path d="M229.956 4.66V5.776H227.736V13H226.368V5.776H224.136V4.66H229.956ZM237.401 9.532C237.401 9.78 237.385 10.004 237.353 10.204H232.301C232.341 10.732 232.537 11.156 232.889 11.476C233.241 11.796 233.673 11.956 234.185 11.956C234.921 11.956 235.441 11.648 235.745 11.032H237.221C237.021 11.64 236.657 12.14 236.129 12.532C235.609 12.916 234.961 13.108 234.185 13.108C233.553 13.108 232.985 12.968 232.481 12.688C231.985 12.4 231.593 12 231.305 11.488C231.025 10.968 230.885 10.368 230.885 9.688C230.885 9.008 231.021 8.412 231.293 7.9C231.573 7.38 231.961 6.98 232.457 6.7C232.961 6.42 233.537 6.28 234.185 6.28C234.809 6.28 235.365 6.416 235.853 6.688C236.341 6.96 236.721 7.344 236.993 7.84C237.265 8.328 237.401 8.892 237.401 9.532ZM235.973 9.1C235.965 8.596 235.785 8.192 235.433 7.888C235.081 7.584 234.645 7.432 234.125 7.432C233.653 7.432 233.249 7.584 232.913 7.888C232.577 8.184 232.377 8.588 232.313 9.1H235.973ZM240.116 7.348C240.316 7.012 240.58 6.752 240.908 6.568C241.244 6.376 241.64 6.28 242.096 6.28V7.696H241.748C241.212 7.696 240.804 7.832 240.524 8.104C240.252 8.376 240.116 8.848 240.116 9.52V13H238.748V6.388H240.116V7.348ZM251.357 6.28C251.877 6.28 252.341 6.388 252.749 6.604C253.165 6.82 253.489 7.14 253.721 7.564C253.961 7.988 254.081 8.5 254.081 9.1V13H252.725V9.304C252.725 8.712 252.577 8.26 252.281 7.948C251.985 7.628 251.581 7.468 251.069 7.468C250.557 7.468 250.149 7.628 249.845 7.948C249.549 8.26 249.401 8.712 249.401 9.304V13H248.045V9.304C248.045 8.712 247.897 8.26 247.601 7.948C247.305 7.628 246.901 7.468 246.389 7.468C245.877 7.468 245.469 7.628 245.165 7.948C244.869 8.26 244.721 8.712 244.721 9.304V13H243.353V6.388H244.721V7.144C244.945 6.872 245.229 6.66 245.573 6.508C245.917 6.356 246.285 6.28 246.677 6.28C247.205 6.28 247.677 6.392 248.093 6.616C248.509 6.84 248.829 7.164 249.053 7.588C249.253 7.188 249.565 6.872 249.989 6.64C250.413 6.4 250.869 6.28 251.357 6.28ZM258.222 13.108C257.702 13.108 257.234 13.016 256.818 12.832C256.41 12.64 256.086 12.384 255.846 12.064C255.606 11.736 255.478 11.372 255.462 10.972H256.878C256.902 11.252 257.034 11.488 257.274 11.68C257.522 11.864 257.83 11.956 258.198 11.956C258.582 11.956 258.878 11.884 259.086 11.74C259.302 11.588 259.41 11.396 259.41 11.164C259.41 10.916 259.29 10.732 259.05 10.612C258.818 10.492 258.446 10.36 257.934 10.216C257.438 10.08 257.034 9.948 256.722 9.82C256.41 9.692 256.138 9.496 255.906 9.232C255.682 8.968 255.57 8.62 255.57 8.188C255.57 7.836 255.674 7.516 255.882 7.228C256.09 6.932 256.386 6.7 256.77 6.532C257.162 6.364 257.61 6.28 258.114 6.28C258.866 6.28 259.47 6.472 259.926 6.856C260.39 7.232 260.638 7.748 260.67 8.404H259.302C259.278 8.108 259.158 7.872 258.942 7.696C258.726 7.52 258.434 7.432 258.066 7.432C257.706 7.432 257.43 7.5 257.238 7.636C257.046 7.772 256.95 7.952 256.95 8.176C256.95 8.352 257.014 8.5 257.142 8.62C257.27 8.74 257.426 8.836 257.61 8.908C257.794 8.972 258.066 9.056 258.426 9.16C258.906 9.288 259.298 9.42 259.602 9.556C259.914 9.684 260.182 9.876 260.406 10.132C260.63 10.388 260.746 10.728 260.754 11.152C260.754 11.528 260.65 11.864 260.442 12.16C260.234 12.456 259.938 12.688 259.554 12.856C259.178 13.024 258.734 13.108 258.222 13.108ZM268.217 13.108C267.593 13.108 267.029 12.968 266.525 12.688C266.021 12.4 265.625 12 265.337 11.488C265.049 10.968 264.905 10.368 264.905 9.688C264.905 9.016 265.053 8.42 265.349 7.9C265.645 7.38 266.049 6.98 266.561 6.7C267.073 6.42 267.645 6.28 268.277 6.28C268.909 6.28 269.481 6.42 269.993 6.7C270.505 6.98 270.909 7.38 271.205 7.9C271.501 8.42 271.649 9.016 271.649 9.688C271.649 10.36 271.497 10.956 271.193 11.476C270.889 11.996 270.473 12.4 269.945 12.688C269.425 12.968 268.849 13.108 268.217 13.108ZM268.217 11.92C268.569 11.92 268.897 11.836 269.201 11.668C269.513 11.5 269.765 11.248 269.957 10.912C270.149 10.576 270.245 10.168 270.245 9.688C270.245 9.208 270.153 8.804 269.969 8.476C269.785 8.14 269.541 7.888 269.237 7.72C268.933 7.552 268.605 7.468 268.253 7.468C267.901 7.468 267.573 7.552 267.269 7.72C266.973 7.888 266.737 8.14 266.561 8.476C266.385 8.804 266.297 9.208 266.297 9.688C266.297 10.4 266.477 10.952 266.837 11.344C267.205 11.728 267.665 11.92 268.217 11.92ZM275.774 7.504H274.55V13H273.17V7.504H272.39V6.388H273.17V5.92C273.17 5.16 273.37 4.608 273.77 4.264C274.178 3.912 274.814 3.736 275.678 3.736V4.876C275.262 4.876 274.97 4.956 274.802 5.116C274.634 5.268 274.55 5.536 274.55 5.92V6.388H275.774V7.504ZM282.503 13.108C281.983 13.108 281.515 13.016 281.099 12.832C280.691 12.64 280.367 12.384 280.127 12.064C279.887 11.736 279.759 11.372 279.743 10.972H281.159C281.183 11.252 281.315 11.488 281.555 11.68C281.803 11.864 282.111 11.956 282.479 11.956C282.863 11.956 283.159 11.884 283.367 11.74C283.583 11.588 283.691 11.396 283.691 11.164C283.691 10.916 283.571 10.732 283.331 10.612C283.099 10.492 282.727 10.36 282.215 10.216C281.719 10.08 281.315 9.948 281.003 9.82C280.691 9.692 280.419 9.496 280.187 9.232C279.963 8.968 279.851 8.62 279.851 8.188C279.851 7.836 279.955 7.516 280.163 7.228C280.371 6.932 280.667 6.7 281.051 6.532C281.443 6.364 281.891 6.28 282.395 6.28C283.147 6.28 283.751 6.472 284.207 6.856C284.671 7.232 284.919 7.748 284.951 8.404H283.583C283.559 8.108 283.439 7.872 283.223 7.696C283.007 7.52 282.715 7.432 282.347 7.432C281.987 7.432 281.711 7.5 281.519 7.636C281.327 7.772 281.231 7.952 281.231 8.176C281.231 8.352 281.295 8.5 281.423 8.62C281.551 8.74 281.707 8.836 281.891 8.908C282.075 8.972 282.347 9.056 282.707 9.16C283.187 9.288 283.579 9.42 283.883 9.556C284.195 9.684 284.463 9.876 284.687 10.132C284.911 10.388 285.027 10.728 285.035 11.152C285.035 11.528 284.931 11.864 284.723 12.16C284.515 12.456 284.219 12.688 283.835 12.856C283.459 13.024 283.015 13.108 282.503 13.108ZM292.573 9.532C292.573 9.78 292.557 10.004 292.525 10.204H287.473C287.513 10.732 287.709 11.156 288.061 11.476C288.413 11.796 288.845 11.956 289.357 11.956C290.093 11.956 290.613 11.648 290.917 11.032H292.393C292.193 11.64 291.829 12.14 291.301 12.532C290.781 12.916 290.133 13.108 289.357 13.108C288.725 13.108 288.157 12.968 287.653 12.688C287.157 12.4 286.765 12 286.477 11.488C286.197 10.968 286.057 10.368 286.057 9.688C286.057 9.008 286.193 8.412 286.465 7.9C286.745 7.38 287.133 6.98 287.629 6.7C288.133 6.42 288.709 6.28 289.357 6.28C289.981 6.28 290.537 6.416 291.025 6.688C291.513 6.96 291.893 7.344 292.165 7.84C292.437 8.328 292.573 8.892 292.573 9.532ZM291.145 9.1C291.137 8.596 290.957 8.192 290.605 7.888C290.253 7.584 289.817 7.432 289.297 7.432C288.825 7.432 288.421 7.584 288.085 7.888C287.749 8.184 287.549 8.588 287.485 9.1H291.145ZM295.288 7.348C295.488 7.012 295.752 6.752 296.08 6.568C296.416 6.376 296.812 6.28 297.268 6.28V7.696H296.92C296.384 7.696 295.976 7.832 295.696 8.104C295.424 8.376 295.288 8.848 295.288 9.52V13H293.92V6.388H295.288V7.348ZM301.081 11.776L302.953 6.388H304.405L301.885 13H300.253L297.745 6.388H299.209L301.081 11.776ZM306.135 5.512C305.887 5.512 305.679 5.428 305.511 5.26C305.343 5.092 305.259 4.884 305.259 4.636C305.259 4.388 305.343 4.18 305.511 4.012C305.679 3.844 305.887 3.76 306.135 3.76C306.375 3.76 306.579 3.844 306.747 4.012C306.915 4.18 306.999 4.388 306.999 4.636C306.999 4.884 306.915 5.092 306.747 5.26C306.579 5.428 306.375 5.512 306.135 5.512ZM306.807 6.388V13H305.439V6.388H306.807ZM308.147 9.688C308.147 9.008 308.283 8.412 308.555 7.9C308.835 7.38 309.219 6.98 309.707 6.7C310.195 6.42 310.755 6.28 311.387 6.28C312.187 6.28 312.847 6.472 313.367 6.856C313.895 7.232 314.251 7.772 314.435 8.476H312.959C312.839 8.148 312.647 7.892 312.383 7.708C312.119 7.524 311.787 7.432 311.387 7.432C310.827 7.432 310.379 7.632 310.043 8.032C309.715 8.424 309.551 8.976 309.551 9.688C309.551 10.4 309.715 10.956 310.043 11.356C310.379 11.756 310.827 11.956 311.387 11.956C312.179 11.956 312.703 11.608 312.959 10.912H314.435C314.243 11.584 313.883 12.12 313.355 12.52C312.827 12.912 312.171 13.108 311.387 13.108C310.755 13.108 310.195 12.968 309.707 12.688C309.219 12.4 308.835 12 308.555 11.488C308.283 10.968 308.147 10.368 308.147 9.688ZM321.858 9.532C321.858 9.78 321.842 10.004 321.81 10.204H316.758C316.798 10.732 316.994 11.156 317.346 11.476C317.698 11.796 318.13 11.956 318.642 11.956C319.378 11.956 319.898 11.648 320.202 11.032H321.678C321.478 11.64 321.114 12.14 320.586 12.532C320.066 12.916 319.418 13.108 318.642 13.108C318.01 13.108 317.442 12.968 316.938 12.688C316.442 12.4 316.05 12 315.762 11.488C315.482 10.968 315.342 10.368 315.342 9.688C315.342 9.008 315.478 8.412 315.75 7.9C316.03 7.38 316.418 6.98 316.914 6.7C317.418 6.42 317.994 6.28 318.642 6.28C319.266 6.28 319.822 6.416 320.31 6.688C320.798 6.96 321.178 7.344 321.45 7.84C321.722 8.328 321.858 8.892 321.858 9.532ZM320.43 9.1C320.422 8.596 320.242 8.192 319.89 7.888C319.538 7.584 319.102 7.432 318.582 7.432C318.11 7.432 317.706 7.584 317.37 7.888C317.034 8.184 316.834 8.588 316.77 9.1H320.43ZM40.732 25.144C40.732 25.568 40.632 25.968 40.432 26.344C40.232 26.72 39.912 27.028 39.472 27.268C39.032 27.5 38.468 27.616 37.78 27.616H36.268V31H34.9V22.66H37.78C38.42 22.66 38.96 22.772 39.4 22.996C39.848 23.212 40.18 23.508 40.396 23.884C40.62 24.26 40.732 24.68 40.732 25.144ZM37.78 26.5C38.3 26.5 38.688 26.384 38.944 26.152C39.2 25.912 39.328 25.576 39.328 25.144C39.328 24.232 38.812 23.776 37.78 23.776H36.268V26.5H37.78ZM43.4047 25.348C43.6047 25.012 43.8687 24.752 44.1967 24.568C44.5327 24.376 44.9287 24.28 45.3847 24.28V25.696H45.0367C44.5007 25.696 44.0927 25.832 43.8127 26.104C43.5407 26.376 43.4047 26.848 43.4047 27.52V31H42.0367V24.388H43.4047V25.348ZM47.3382 23.512C47.0902 23.512 46.8822 23.428 46.7142 23.26C46.5462 23.092 46.4622 22.884 46.4622 22.636C46.4622 22.388 46.5462 22.18 46.7142 22.012C46.8822 21.844 47.0902 21.76 47.3382 21.76C47.5782 21.76 47.7822 21.844 47.9502 22.012C48.1182 22.18 48.2022 22.388 48.2022 22.636C48.2022 22.884 48.1182 23.092 47.9502 23.26C47.7822 23.428 47.5782 23.512 47.3382 23.512ZM48.0102 24.388V31H46.6422V24.388H48.0102ZM52.3623 29.776L54.2343 24.388H55.6862L53.1663 31H51.5343L49.0263 24.388H50.4902L52.3623 29.776ZM56.2643 27.664C56.2643 27 56.4003 26.412 56.6723 25.9C56.9523 25.388 57.3283 24.992 57.8003 24.712C58.2803 24.424 58.8083 24.28 59.3843 24.28C59.9043 24.28 60.3563 24.384 60.7403 24.592C61.1323 24.792 61.4443 25.044 61.6763 25.348V24.388H63.0563V31H61.6763V30.016C61.4443 30.328 61.1283 30.588 60.7283 30.796C60.3283 31.004 59.8723 31.108 59.3603 31.108C58.7923 31.108 58.2723 30.964 57.8003 30.676C57.3283 30.38 56.9523 29.972 56.6723 29.452C56.4003 28.924 56.2643 28.328 56.2643 27.664ZM61.6763 27.688C61.6763 27.232 61.5803 26.836 61.3883 26.5C61.2043 26.164 60.9603 25.908 60.6563 25.732C60.3523 25.556 60.0243 25.468 59.6723 25.468C59.3203 25.468 58.9923 25.556 58.6883 25.732C58.3843 25.9 58.1363 26.152 57.9443 26.488C57.7603 26.816 57.6683 27.208 57.6683 27.664C57.6683 28.12 57.7603 28.52 57.9443 28.864C58.1363 29.208 58.3843 29.472 58.6883 29.656C59.0003 29.832 59.3283 29.92 59.6723 29.92C60.0243 29.92 60.3523 29.832 60.6563 29.656C60.9603 29.48 61.2043 29.224 61.3883 28.888C61.5803 28.544 61.6763 28.144 61.6763 27.688ZM64.3971 27.688C64.3971 27.008 64.5331 26.412 64.8051 25.9C65.0851 25.38 65.4691 24.98 65.9571 24.7C66.4451 24.42 67.0051 24.28 67.6371 24.28C68.4371 24.28 69.0971 24.472 69.6171 24.856C70.1451 25.232 70.5011 25.772 70.6851 26.476H69.2091C69.0891 26.148 68.8971 25.892 68.6331 25.708C68.3691 25.524 68.0371 25.432 67.6371 25.432C67.0771 25.432 66.6291 25.632 66.2931 26.032C65.9651 26.424 65.8011 26.976 65.8011 27.688C65.8011 28.4 65.9651 28.956 66.2931 29.356C66.6291 29.756 67.0771 29.956 67.6371 29.956C68.4291 29.956 68.9531 29.608 69.2091 28.912H70.6851C70.4931 29.584 70.1331 30.12 69.6051 30.52C69.0771 30.912 68.4211 31.108 67.6371 31.108C67.0051 31.108 66.4451 30.968 65.9571 30.688C65.4691 30.4 65.0851 30 64.8051 29.488C64.5331 28.968 64.3971 28.368 64.3971 27.688ZM78.0004 24.388L73.9444 34.108H72.5284L73.8724 30.892L71.2684 24.388H72.7924L74.6524 29.428L76.5844 24.388H78.0004ZM83.518 25.36C83.75 25.056 84.066 24.8 84.466 24.592C84.866 24.384 85.318 24.28 85.822 24.28C86.398 24.28 86.922 24.424 87.394 24.712C87.874 24.992 88.25 25.388 88.522 25.9C88.794 26.412 88.93 27 88.93 27.664C88.93 28.328 88.794 28.924 88.522 29.452C88.25 29.972 87.874 30.38 87.394 30.676C86.922 30.964 86.398 31.108 85.822 31.108C85.318 31.108 84.87 31.008 84.478 30.808C84.086 30.6 83.766 30.344 83.518 30.04V34.144H82.15V24.388H83.518V25.36ZM87.538 27.664C87.538 27.208 87.442 26.816 87.25 26.488C87.066 26.152 86.818 25.9 86.506 25.732C86.202 25.556 85.874 25.468 85.522 25.468C85.178 25.468 84.85 25.556 84.538 25.732C84.234 25.908 83.986 26.164 83.794 26.5C83.61 26.836 83.518 27.232 83.518 27.688C83.518 28.144 83.61 28.544 83.794 28.888C83.986 29.224 84.234 29.48 84.538 29.656C84.85 29.832 85.178 29.92 85.522 29.92C85.874 29.92 86.202 29.832 86.506 29.656C86.818 29.472 87.066 29.208 87.25 28.864C87.442 28.52 87.538 28.12 87.538 27.664ZM93.1508 31.108C92.5268 31.108 91.9628 30.968 91.4588 30.688C90.9548 30.4 90.5588 30 90.2708 29.488C89.9828 28.968 89.8388 28.368 89.8388 27.688C89.8388 27.016 89.9868 26.42 90.2828 25.9C90.5788 25.38 90.9828 24.98 91.4948 24.7C92.0068 24.42 92.5788 24.28 93.2108 24.28C93.8428 24.28 94.4148 24.42 94.9268 24.7C95.4388 24.98 95.8428 25.38 96.1388 25.9C96.4348 26.42 96.5828 27.016 96.5828 27.688C96.5828 28.36 96.4308 28.956 96.1268 29.476C95.8228 29.996 95.4068 30.4 94.8788 30.688C94.3588 30.968 93.7828 31.108 93.1508 31.108ZM93.1508 29.92C93.5028 29.92 93.8308 29.836 94.1348 29.668C94.4468 29.5 94.6988 29.248 94.8908 28.912C95.0828 28.576 95.1788 28.168 95.1788 27.688C95.1788 27.208 95.0868 26.804 94.9028 26.476C94.7188 26.14 94.4748 25.888 94.1708 25.72C93.8668 25.552 93.5388 25.468 93.1868 25.468C92.8348 25.468 92.5068 25.552 92.2028 25.72C91.9068 25.888 91.6708 26.14 91.4948 26.476C91.3188 26.804 91.2308 27.208 91.2308 27.688C91.2308 28.4 91.4108 28.952 91.7708 29.344C92.1388 29.728 92.5988 29.92 93.1508 29.92ZM99.3032 22.12V31H97.9352V22.12H99.3032ZM101.795 23.512C101.547 23.512 101.339 23.428 101.171 23.26C101.003 23.092 100.919 22.884 100.919 22.636C100.919 22.388 101.003 22.18 101.171 22.012C101.339 21.844 101.547 21.76 101.795 21.76C102.035 21.76 102.239 21.844 102.407 22.012C102.575 22.18 102.659 22.388 102.659 22.636C102.659 22.884 102.575 23.092 102.407 23.26C102.239 23.428 102.035 23.512 101.795 23.512ZM102.467 24.388V31H101.099V24.388H102.467ZM103.807 27.688C103.807 27.008 103.943 26.412 104.215 25.9C104.495 25.38 104.879 24.98 105.367 24.7C105.855 24.42 106.415 24.28 107.047 24.28C107.847 24.28 108.507 24.472 109.027 24.856C109.555 25.232 109.911 25.772 110.095 26.476H108.619C108.499 26.148 108.307 25.892 108.043 25.708C107.779 25.524 107.447 25.432 107.047 25.432C106.487 25.432 106.039 25.632 105.703 26.032C105.375 26.424 105.211 26.976 105.211 27.688C105.211 28.4 105.375 28.956 105.703 29.356C106.039 29.756 106.487 29.956 107.047 29.956C107.839 29.956 108.363 29.608 108.619 28.912H110.095C109.903 29.584 109.543 30.12 109.015 30.52C108.487 30.912 107.831 31.108 107.047 31.108C106.415 31.108 105.855 30.968 105.367 30.688C104.879 30.4 104.495 30 104.215 29.488C103.943 28.968 103.807 28.368 103.807 27.688ZM117.411 24.388L113.355 34.108H111.939L113.283 30.892L110.679 24.388H112.203L114.063 29.428L115.995 24.388H117.411ZM118.995 31.084C118.747 31.084 118.539 31 118.371 30.832C118.203 30.664 118.119 30.456 118.119 30.208C118.119 29.96 118.203 29.752 118.371 29.584C118.539 29.416 118.747 29.332 118.995 29.332C119.235 29.332 119.439 29.416 119.607 29.584C119.775 29.752 119.859 29.96 119.859 30.208C119.859 30.456 119.775 30.664 119.607 30.832C119.439 31 119.235 31.084 118.995 31.084Z" fill="#FEC400"/>
</svg>
