<svg width="94" height="18" viewBox="0 0 94 18" fill="none" xmlns="http://www.w3.org/2000/svg">
<path d="M8.43861 2.7951C8.74541 1.88966 10.026 1.88966 10.3328 2.7951L11.2628 5.53977C11.4004 5.94571 11.7813 6.21885 12.2099 6.21885H15.1273C16.1062 6.21885 16.5021 7.47981 15.699 8.03936L13.4119 9.63268C13.0467 9.88717 12.8936 10.3525 13.0365 10.7741L13.9269 13.402C14.2366 14.3159 13.2 15.095 12.4082 14.5434L9.95735 12.8359C9.61383 12.5966 9.1576 12.5966 8.81408 12.8359L6.36327 14.5434C5.57147 15.095 4.53484 14.3159 4.84453 13.402L5.73496 10.7741C5.87783 10.3525 5.72477 9.88717 5.35949 9.63269L3.07247 8.03936C2.26932 7.47981 2.66525 6.21885 3.64411 6.21885H6.56149C6.9901 6.21885 7.37104 5.94571 7.50859 5.53977L8.43861 2.7951Z" fill="#FFD700"/>
<path d="M27.2101 2.7951C27.5169 1.88966 28.7975 1.88966 29.1043 2.7951L30.0343 5.53977C30.1719 5.94571 30.5528 6.21885 30.9814 6.21885H33.8988C34.8777 6.21885 35.2736 7.47981 34.4704 8.03936L32.1834 9.63268C31.8181 9.88717 31.6651 10.3525 31.808 10.7741L32.6984 13.402C33.0081 14.3159 31.9714 15.095 31.1796 14.5434L28.7288 12.8359C28.3853 12.5966 27.9291 12.5966 27.5856 12.8359L25.1348 14.5434C24.343 15.095 23.3063 14.3159 23.616 13.402L24.5064 10.7741C24.6493 10.3525 24.4963 9.88717 24.131 9.63269L21.844 8.03936C21.0408 7.47981 21.4367 6.21885 22.4156 6.21885H25.333C25.7616 6.21885 26.1425 5.94571 26.2801 5.53977L27.2101 2.7951Z" fill="#FFD700"/>
<path d="M45.9815 2.7951C46.2883 1.88966 47.5689 1.88966 47.8757 2.7951L48.8057 5.53977C48.9432 5.94571 49.3242 6.21885 49.7528 6.21885H52.6702C53.649 6.21885 54.045 7.47981 53.2418 8.03936L50.9548 9.63268C50.5895 9.88717 50.4364 10.3525 50.5793 10.7741L51.4697 13.402C51.7794 14.3159 50.7428 15.095 49.951 14.5434L47.5002 12.8359C47.1567 12.5966 46.7004 12.5966 46.3569 12.8359L43.9061 14.5434C43.1143 15.095 42.0777 14.3159 42.3874 13.402L43.2778 10.7741C43.4207 10.3525 43.2676 9.88717 42.9023 9.63269L40.6153 8.03936C39.8122 7.47981 40.2081 6.21885 41.187 6.21885H44.1043C44.5329 6.21885 44.9139 5.94571 45.0514 5.53977L45.9815 2.7951Z" fill="#FFD700"/>
<path d="M64.7529 2.7951C65.0597 1.88966 66.3403 1.88966 66.6471 2.7951L67.5771 5.53977C67.7147 5.94571 68.0956 6.21885 68.5242 6.21885H71.4416C72.4204 6.21885 72.8164 7.47981 72.0132 8.03936L69.7262 9.63268C69.3609 9.88717 69.2079 10.3525 69.3507 10.7741L70.2412 13.402C70.5509 14.3159 69.5142 15.095 68.7224 14.5434L66.2716 12.8359C65.9281 12.5966 65.4719 12.5966 65.1283 12.8359L62.6775 14.5434C61.8857 15.095 60.8491 14.3159 61.1588 13.402L62.0492 10.7741C62.1921 10.3525 62.039 9.88717 61.6738 9.63269L59.3867 8.03936C58.5836 7.47981 58.9795 6.21885 59.9584 6.21885H62.8758C63.3044 6.21885 63.6853 5.94571 63.8229 5.53977L64.7529 2.7951Z" fill="#FFD700"/>
<path d="M83.5243 2.7951C83.8311 1.88966 85.1117 1.88966 85.4185 2.7951L86.3485 5.53977C86.4861 5.94571 86.867 6.21885 87.2956 6.21885H90.213C91.1919 6.21885 91.5878 7.47981 90.7846 8.03936L88.4976 9.63268C88.1324 9.88717 87.9793 10.3525 88.1222 10.7741L89.0126 13.402C89.3223 14.3159 88.2857 15.095 87.4938 14.5434L85.043 12.8359C84.6995 12.5966 84.2433 12.5966 83.8998 12.8359L81.449 14.5434C80.6572 15.095 79.6205 14.3159 79.9302 13.402L80.8207 10.7741C80.9635 10.3525 80.8105 9.88717 80.4452 9.63269L78.1582 8.03936C77.355 7.47981 77.7509 6.21885 78.7298 6.21885H81.6472C82.0758 6.21885 82.4567 5.94571 82.5943 5.53977L83.5243 2.7951Z" fill="#FFD700"/>
</svg>
