<svg width="107" height="107" viewBox="0 0 107 107" fill="none" xmlns="http://www.w3.org/2000/svg">
<path d="M53.3333 106.667C82.7886 106.667 106.667 82.7885 106.667 53.3334C106.667 23.8781 82.7886 0 53.3333 0C23.8782 0 0 23.8781 0 53.3334C0 82.7885 23.8782 106.667 53.3333 106.667Z" fill="url(#paint0_radial_126_2772)"/>
<path opacity="0.5" d="M53.3333 106.667C82.7886 106.667 106.667 82.7885 106.667 53.3334C106.667 23.8781 82.7886 0 53.3333 0C23.8782 0 0 23.8781 0 53.3334C0 82.7885 23.8782 106.667 53.3333 106.667Z" fill="url(#paint1_radial_126_2772)"/>
<path d="M53.3333 106.667C82.7886 106.667 106.667 82.7885 106.667 53.3334C106.667 23.8781 82.7886 0 53.3333 0C23.8782 0 0 23.8781 0 53.3334C0 82.7885 23.8782 106.667 53.3333 106.667Z" fill="url(#paint2_radial_126_2772)"/>
<path d="M53.3332 73.0664C68.9665 73.0664 73.9998 88.5331 69.1999 86.0997C62.7998 82.8664 58.7666 82.533 53.3332 82.533C47.8998 82.533 43.8331 82.833 37.4665 86.0997C32.6666 88.5331 37.6999 73.0664 53.3332 73.0664Z" fill="#643800"/>
<path d="M74.3666 56.3995C74.3666 56.3995 64.7332 56.8995 60.9333 50.6662C60.6998 50.2663 60.5332 49.8328 60.4665 49.3995C60.3332 48.4995 61.0332 47.4663 62.8665 48.0662C74.1998 51.8329 79.9999 49.0662 84.3999 47.0663C86.0998 46.2996 87.9998 47.9329 87.3665 49.3329C84.2333 56.3995 74.3666 56.3995 74.3666 56.3995Z" fill="url(#paint3_radial_126_2772)"/>
<path d="M86.2995 33.4997C86.4663 35.6331 84.2329 37.133 80.2662 37.3997C76.8996 37.633 69.3662 36.2997 63.7996 30.0998C62.7662 28.9665 64.1662 28.1998 65.1662 28.8998C68.4996 31.333 77.1328 34.1664 83.6329 32.9997C86.2328 32.533 86.2995 33.4997 86.2995 33.4997Z" fill="url(#paint4_linear_126_2772)"/>
<path d="M32.2999 56.3995C32.2999 56.3995 41.9333 56.8995 45.7332 50.6662C45.9667 50.2663 46.1333 49.8328 46.2 49.3995C46.3333 48.4995 45.6333 47.4663 43.8 48.0662C32.4667 51.8329 26.6666 49.0662 22.2666 47.0663C20.5667 46.2996 18.6667 47.9329 19.3 49.3329C22.4334 56.3995 32.2999 56.3995 32.2999 56.3995Z" fill="url(#paint5_radial_126_2772)"/>
<path d="M20.3666 33.4997C20.1999 35.6331 22.4332 37.133 26.3999 37.3997C29.7666 37.633 37.3 36.2997 42.8666 30.0998C43.8999 28.9665 42.4999 28.1998 41.5 28.8998C38.1666 31.333 29.5333 34.1664 23.0333 32.9997C20.4333 32.533 20.3666 33.4997 20.3666 33.4997Z" fill="url(#paint6_linear_126_2772)"/>
<path d="M46.0335 48.4663C45.7003 47.9663 45.0003 47.6664 43.8001 48.0664C32.467 51.8331 26.6669 49.0664 22.2669 47.0663C21.3669 46.6664 20.4002 46.9331 19.8003 47.4998C26.4335 53.4996 40.5668 53.5997 46.0335 48.4663Z" fill="url(#paint7_linear_126_2772)"/>
<path d="M1.7666 33.6666C1.7666 40.7667 7.49978 46.5 14.5999 46.5C21.6998 46.5 27.4332 40.7667 27.4332 33.6666C27.4332 19.9333 14.5999 6.2334 14.5999 6.2334C14.5999 6.2334 1.7666 19.9 1.7666 33.6666Z" fill="url(#paint8_linear_126_2772)"/>
<path opacity="0.5" d="M14.4665 6.40039C13.3332 13.4336 6.19988 20.0336 7.76648 33.4337C8.9332 43.3336 23.7666 43.9337 27.3999 34.4671C26.9999 41.1669 21.4331 46.5004 14.5999 46.5004C7.49978 46.5004 1.7666 40.7671 1.7666 33.667C1.7666 20.8003 12.9999 8.00042 14.4665 6.40039Z" fill="url(#paint9_radial_126_2772)"/>
<path d="M14.5999 46.4996C7.49978 46.4996 1.7666 40.7662 1.7666 33.6663C1.7666 21.2996 12.1665 8.96626 14.2333 6.63281C11.9999 13.6328 4.79988 23.4328 4.79988 32.9663C4.79988 40.4995 15.8998 49.6662 26.6999 37.9662C24.9331 42.9329 20.1999 46.4996 14.5999 46.4996Z" fill="url(#paint10_radial_126_2772)"/>
<path d="M1.7666 33.6666C1.7666 40.7667 7.49978 46.5 14.5999 46.5C21.6998 46.5 27.4332 40.7667 27.4332 33.6666C27.4332 19.9333 14.5999 6.2334 14.5999 6.2334C14.5999 6.2334 1.7666 19.9 1.7666 33.6666Z" fill="url(#paint11_radial_126_2772)"/>
<path d="M1.7666 33.6666C1.7666 40.7667 7.49978 46.5 14.5999 46.5C21.6998 46.5 27.4332 40.7667 27.4332 33.6666C27.4332 19.9333 14.5999 6.2334 14.5999 6.2334C14.5999 6.2334 1.7666 19.9 1.7666 33.6666Z" fill="url(#paint12_radial_126_2772)"/>
<path d="M1.7666 33.6666C1.7666 40.7667 7.49978 46.5 14.5999 46.5C21.6998 46.5 27.4332 40.7667 27.4332 33.6666C27.4332 19.9333 14.5999 6.2334 14.5999 6.2334C14.5999 6.2334 1.7666 19.9 1.7666 33.6666Z" fill="url(#paint13_radial_126_2772)"/>
<path d="M60.6333 48.4664C60.9667 47.9664 61.6667 47.6665 62.8666 48.0664C74.2 51.8331 80 49.0665 84.4001 47.0664C85.3001 46.6664 86.2668 46.9331 86.8667 47.4997C80.2333 53.4998 66.1 53.5997 60.6333 48.4664Z" fill="url(#paint14_linear_126_2772)"/>
<path d="M53.3334 75.7997C62.5667 75.7997 68.4 80.9997 70.9333 85.333C71.0666 82.1997 65.3333 73.0664 53.3334 73.0664C41.3 73.0664 35.5667 82.1997 35.7333 85.333C38.2667 81.0331 44.1 75.7997 53.3334 75.7997Z" fill="url(#paint15_linear_126_2772)"/>
<defs>
<radialGradient id="paint0_radial_126_2772" cx="0" cy="0" r="1" gradientUnits="userSpaceOnUse" gradientTransform="translate(42.8399 31.7191) scale(64.3398 64.3398)">
<stop stop-color="#FFE030"/>
<stop offset="1" stop-color="#FFB92E"/>
</radialGradient>
<radialGradient id="paint1_radial_126_2772" cx="0" cy="0" r="1" gradientUnits="userSpaceOnUse" gradientTransform="translate(42.8399 31.7191) scale(50.6189 50.6189)">
<stop stop-color="#FFEA5F"/>
<stop offset="1" stop-color="#FFBC47" stop-opacity="0"/>
</radialGradient>
<radialGradient id="paint2_radial_126_2772" cx="0" cy="0" r="1" gradientUnits="userSpaceOnUse" gradientTransform="translate(13.263 28.6643) rotate(72.6921) scale(48.1803 25.9143)">
<stop stop-color="#EB672A" stop-opacity="0.5"/>
<stop offset="0.3462" stop-color="#DC641B" stop-opacity="0.2846"/>
<stop offset="0.8036" stop-color="#C25E00" stop-opacity="0"/>
</radialGradient>
<radialGradient id="paint3_radial_126_2772" cx="0" cy="0" r="1" gradientUnits="userSpaceOnUse" gradientTransform="translate(74.1871 51.8527) rotate(177.118) scale(10.3097 4.58117)">
<stop offset="0.00132565" stop-color="#7A4400"/>
<stop offset="1" stop-color="#643800"/>
</radialGradient>
<linearGradient id="paint4_linear_126_2772" x1="75.8273" y1="40.6624" x2="75.0771" y2="33.4211" gradientUnits="userSpaceOnUse">
<stop offset="0.00132565" stop-color="#3C2200"/>
<stop offset="1" stop-color="#7A4400"/>
</linearGradient>
<radialGradient id="paint5_radial_126_2772" cx="0" cy="0" r="1" gradientUnits="userSpaceOnUse" gradientTransform="translate(32.477 51.8529) rotate(2.88189) scale(10.3097 4.58117)">
<stop offset="0.00132565" stop-color="#7A4400"/>
<stop offset="1" stop-color="#643800"/>
</radialGradient>
<linearGradient id="paint6_linear_126_2772" x1="30.8386" y1="40.6633" x2="31.589" y2="33.422" gradientUnits="userSpaceOnUse">
<stop offset="0.00132565" stop-color="#3C2200"/>
<stop offset="1" stop-color="#7A4400"/>
</linearGradient>
<linearGradient id="paint7_linear_126_2772" x1="33.1558" y1="45.1714" x2="32.3641" y2="53.963" gradientUnits="userSpaceOnUse">
<stop offset="0.00132565" stop-color="#3C2200"/>
<stop offset="1" stop-color="#512D00"/>
</linearGradient>
<linearGradient id="paint8_linear_126_2772" x1="51.2345" y1="37.211" x2="-21.1667" y2="16.2858" gradientUnits="userSpaceOnUse">
<stop stop-color="#D1F2FF"/>
<stop offset="0.668" stop-color="#80DAFE"/>
<stop offset="1" stop-color="#0099D6"/>
</linearGradient>
<radialGradient id="paint9_radial_126_2772" cx="0" cy="0" r="1" gradientUnits="userSpaceOnUse" gradientTransform="translate(16.1224 24.4956) rotate(169.572) scale(20.5548 31.6524)">
<stop offset="0.0599486" stop-color="#80DAFE"/>
<stop offset="0.566" stop-color="#80DAFE"/>
<stop offset="1" stop-color="#0099D6"/>
</radialGradient>
<radialGradient id="paint10_radial_126_2772" cx="0" cy="0" r="1" gradientUnits="userSpaceOnUse" gradientTransform="translate(12.015 26.7809) rotate(180) scale(16.6172 28.6697)">
<stop offset="0.3432" stop-color="#80DAFE"/>
<stop offset="1" stop-color="#0099D6"/>
</radialGradient>
<radialGradient id="paint11_radial_126_2772" cx="0" cy="0" r="1" gradientUnits="userSpaceOnUse" gradientTransform="translate(19.6826 22.7002) rotate(-103.604) scale(18.6499 8.21697)">
<stop stop-color="white" stop-opacity="0.25"/>
<stop offset="1" stop-color="white" stop-opacity="0"/>
</radialGradient>
<radialGradient id="paint12_radial_126_2772" cx="0" cy="0" r="1" gradientUnits="userSpaceOnUse" gradientTransform="translate(16.1112 23.2691) rotate(108.995) scale(29.1601 22.1608)">
<stop offset="0.5858" stop-color="#0099D6" stop-opacity="0"/>
<stop offset="0.7213" stop-color="#1477E5" stop-opacity="0.1635"/>
<stop offset="0.9048" stop-color="#2D4FF8" stop-opacity="0.385"/>
<stop offset="1" stop-color="#3640FF" stop-opacity="0.5"/>
</radialGradient>
<radialGradient id="paint13_radial_126_2772" cx="0" cy="0" r="1" gradientUnits="userSpaceOnUse" gradientTransform="translate(19.6826 22.7002) rotate(-103.604) scale(23.4455 10.3298)">
<stop stop-color="white" stop-opacity="0.45"/>
<stop offset="1" stop-color="white" stop-opacity="0"/>
</radialGradient>
<linearGradient id="paint14_linear_126_2772" x1="73.5096" y1="45.1715" x2="74.3013" y2="53.9632" gradientUnits="userSpaceOnUse">
<stop offset="0.00132565" stop-color="#3C2200"/>
<stop offset="1" stop-color="#512D00"/>
</linearGradient>
<linearGradient id="paint15_linear_126_2772" x1="53.3327" y1="69.0325" x2="53.3327" y2="81.3738" gradientUnits="userSpaceOnUse">
<stop offset="0.00132565" stop-color="#3C2200"/>
<stop offset="1" stop-color="#512D00"/>
</linearGradient>
</defs>
</svg>
