<svg width="30" height="30" viewBox="0 0 30 30" fill="none" xmlns="http://www.w3.org/2000/svg">
<path d="M20.3125 28.125C21.5206 28.125 22.5 27.1456 22.5 25.9375C22.5 24.7294 21.5206 23.75 20.3125 23.75C19.1044 23.75 18.125 24.7294 18.125 25.9375C18.125 27.1456 19.1044 28.125 20.3125 28.125Z" fill="#6B6B6B"/>
<path d="M10.3125 28.125C11.5206 28.125 12.5 27.1456 12.5 25.9375C12.5 24.7294 11.5206 23.75 10.3125 23.75C9.10438 23.75 8.125 24.7294 8.125 25.9375C8.125 27.1456 9.10438 28.125 10.3125 28.125Z" fill="#6B6B6B"/>
<path d="M6.05 4.925L5.8 7.9875C5.75 8.575 6.2125 9.0625 6.8 9.0625H25.9375C26.4625 9.0625 26.9 8.6625 26.9375 8.1375C27.1 5.925 25.4125 4.125 23.2 4.125H7.8375C7.7125 3.575 7.4625 3.05 7.075 2.6125C6.45 1.95 5.575 1.5625 4.675 1.5625H2.5C1.9875 1.5625 1.5625 1.9875 1.5625 2.5C1.5625 3.0125 1.9875 3.4375 2.5 3.4375H4.675C5.0625 3.4375 5.425 3.6 5.6875 3.875C5.95 4.1625 6.075 4.5375 6.05 4.925Z" fill="#6B6B6B"/>
<path d="M25.6374 10.9375H6.46244C5.93744 10.9375 5.51244 11.3375 5.46244 11.85L5.01244 17.2875C4.83744 19.425 6.51244 21.25 8.64994 21.25H22.5499C24.4249 21.25 26.0749 19.7125 26.2124 17.8375L26.6249 12C26.6749 11.425 26.2249 10.9375 25.6374 10.9375Z" fill="#6B6B6B"/>
</svg>
