<svg width="300" height="56" viewBox="0 0 300 56" fill="none" xmlns="http://www.w3.org/2000/svg">
<g filter="url(#filter0_i_835_14538)">
<g clip-path="url(#clip0_835_14538)">
<rect width="300" height="56" rx="28" fill="#CCCCCC"/>
<rect width="300" height="56" rx="28" fill="url(#paint0_radial_835_14538)" fill-opacity="0.2"/>
<g filter="url(#filter1_d_835_14538)">
<rect x="8" y="8" width="40" height="40" rx="20" fill="#FEFDFD"/>
<path d="M25.1506 20.3008L32.8493 27.9995L25.1506 35.6982" stroke="#EDAE10" stroke-width="3" stroke-linecap="round" stroke-linejoin="round"/>
</g>
<path d="M106.371 28.352V33.5H104.733V21.026H108.783C110.187 21.026 111.255 21.368 111.987 22.052C112.731 22.736 113.103 23.576 113.103 24.572C113.103 25.556 112.833 26.378 112.293 27.038C111.753 27.698 110.943 28.112 109.863 28.28L113.301 33.5H111.249L107.973 28.352H106.371ZM106.371 22.34V27.056H108.783C109.683 27.056 110.349 26.852 110.781 26.444C111.225 26.024 111.447 25.442 111.447 24.698C111.447 23.126 110.559 22.34 108.783 22.34H106.371ZM117.462 21.71C117.246 21.926 116.982 22.034 116.67 22.034C116.358 22.034 116.094 21.926 115.878 21.71C115.674 21.494 115.572 21.23 115.572 20.918C115.572 20.606 115.68 20.342 115.896 20.126C116.112 19.91 116.37 19.802 116.67 19.802C116.982 19.802 117.246 19.91 117.462 20.126C117.678 20.342 117.786 20.606 117.786 20.918C117.786 21.23 117.678 21.494 117.462 21.71ZM115.842 33.5V23.618H117.48V33.5H115.842ZM126.898 31.25C127.558 30.578 127.888 29.684 127.888 28.568C127.888 27.452 127.558 26.558 126.898 25.886C126.25 25.214 125.464 24.878 124.54 24.878C123.628 24.878 122.842 25.202 122.182 25.85C121.534 26.498 121.21 27.38 121.21 28.496C121.21 29.612 121.54 30.518 122.2 31.214C122.86 31.91 123.646 32.258 124.558 32.258C125.47 32.258 126.25 31.922 126.898 31.25ZM124.252 33.662C122.908 33.662 121.786 33.182 120.886 32.222C119.986 31.25 119.536 30.014 119.536 28.514C119.536 27.002 119.98 25.784 120.868 24.86C121.768 23.924 122.896 23.456 124.252 23.456C125.092 23.456 125.824 23.654 126.448 24.05C127.084 24.446 127.564 24.962 127.888 25.598V20.18H129.544V33.5H127.888V31.484C127.564 32.132 127.084 32.66 126.448 33.068C125.824 33.464 125.092 33.662 124.252 33.662ZM136.383 33.662C134.967 33.662 133.815 33.194 132.927 32.258C132.039 31.322 131.595 30.086 131.595 28.55C131.595 27.014 132.045 25.784 132.945 24.86C133.845 23.924 135.009 23.456 136.437 23.456C137.877 23.456 139.029 23.9 139.893 24.788C140.769 25.664 141.207 26.786 141.207 28.154C141.207 28.502 141.183 28.826 141.135 29.126H133.269C133.317 30.11 133.623 30.89 134.187 31.466C134.763 32.03 135.495 32.312 136.383 32.312C137.055 32.312 137.619 32.162 138.075 31.862C138.543 31.562 138.885 31.166 139.101 30.674H140.865C140.553 31.538 140.013 32.252 139.245 32.816C138.489 33.38 137.535 33.662 136.383 33.662ZM139.497 27.938C139.485 26.99 139.185 26.234 138.597 25.67C138.009 25.094 137.277 24.806 136.401 24.806C135.537 24.806 134.817 25.088 134.241 25.652C133.665 26.204 133.347 26.966 133.287 27.938H139.497ZM152.783 33.662C151.367 33.662 150.215 33.194 149.327 32.258C148.439 31.322 147.995 30.092 147.995 28.568C147.995 27.032 148.439 25.796 149.327 24.86C150.215 23.924 151.367 23.456 152.783 23.456C153.971 23.456 154.937 23.732 155.681 24.284C156.437 24.836 156.965 25.622 157.265 26.642H155.501C155.309 26.066 154.979 25.616 154.511 25.292C154.043 24.968 153.467 24.806 152.783 24.806C151.847 24.806 151.091 25.136 150.515 25.796C149.951 26.444 149.669 27.368 149.669 28.568C149.669 29.756 149.951 30.68 150.515 31.34C151.091 31.988 151.847 32.312 152.783 32.312C154.187 32.312 155.093 31.7 155.501 30.476H157.265C156.965 31.448 156.431 32.222 155.663 32.798C154.907 33.374 153.947 33.662 152.783 33.662ZM163.648 32.312C164.572 32.312 165.37 31.982 166.042 31.322C166.726 30.65 167.068 29.726 167.068 28.55C167.068 27.374 166.744 26.456 166.096 25.796C165.448 25.136 164.656 24.806 163.72 24.806C162.796 24.806 162.022 25.136 161.398 25.796C160.774 26.456 160.462 27.38 160.462 28.568C160.462 29.744 160.762 30.662 161.362 31.322C161.962 31.982 162.724 32.312 163.648 32.312ZM160.138 32.258C159.238 31.322 158.788 30.092 158.788 28.568C158.788 27.044 159.262 25.814 160.21 24.878C161.158 23.93 162.346 23.456 163.774 23.456C165.202 23.456 166.39 23.93 167.338 24.878C168.286 25.814 168.76 27.044 168.76 28.568C168.76 30.08 168.262 31.31 167.266 32.258C166.282 33.194 165.076 33.662 163.648 33.662C162.22 33.662 161.05 33.194 160.138 32.258ZM172.447 23.618V25.22C173.119 24.044 174.193 23.456 175.669 23.456C176.425 23.456 177.109 23.642 177.721 24.014C178.333 24.374 178.795 24.902 179.107 25.598C179.467 24.926 179.953 24.404 180.565 24.032C181.189 23.648 181.897 23.456 182.689 23.456C183.805 23.456 184.729 23.822 185.461 24.554C186.193 25.274 186.559 26.306 186.559 27.65V33.5H184.939V27.92C184.939 26.924 184.693 26.168 184.201 25.652C183.721 25.136 183.061 24.878 182.221 24.878C181.381 24.878 180.715 25.136 180.223 25.652C179.743 26.168 179.503 26.924 179.503 27.92V33.5H177.883V27.92C177.883 26.924 177.643 26.168 177.163 25.652C176.683 25.136 176.017 24.878 175.165 24.878C174.325 24.878 173.659 25.136 173.167 25.652C172.687 26.168 172.447 26.924 172.447 27.92V33.5H170.809V23.618H172.447ZM194.129 32.258C195.053 32.258 195.839 31.916 196.487 31.232C197.147 30.536 197.477 29.63 197.477 28.514C197.477 27.386 197.147 26.498 196.487 25.85C195.839 25.202 195.053 24.878 194.129 24.878C193.217 24.878 192.431 25.214 191.771 25.886C191.123 26.558 190.799 27.452 190.799 28.568C190.799 29.672 191.123 30.566 191.771 31.25C192.431 31.922 193.217 32.258 194.129 32.258ZM194.453 23.456C195.809 23.456 196.931 23.924 197.819 24.86C198.719 25.784 199.169 27.002 199.169 28.514C199.169 30.014 198.719 31.25 197.819 32.222C196.919 33.182 195.797 33.662 194.453 33.662C193.613 33.662 192.875 33.464 192.239 33.068C191.615 32.66 191.135 32.132 190.799 31.484V38.18H189.161V23.618H190.799V25.598C191.135 24.962 191.615 24.446 192.239 24.05C192.875 23.654 193.613 23.456 194.453 23.456ZM201.219 33.5V20.18H202.857V33.5H201.219ZM209.701 33.662C208.285 33.662 207.133 33.194 206.245 32.258C205.357 31.322 204.913 30.086 204.913 28.55C204.913 27.014 205.363 25.784 206.263 24.86C207.163 23.924 208.327 23.456 209.755 23.456C211.195 23.456 212.347 23.9 213.211 24.788C214.087 25.664 214.525 26.786 214.525 28.154C214.525 28.502 214.501 28.826 214.453 29.126H206.587C206.635 30.11 206.941 30.89 207.505 31.466C208.081 32.03 208.813 32.312 209.701 32.312C210.373 32.312 210.937 32.162 211.393 31.862C211.861 31.562 212.203 31.166 212.419 30.674H214.183C213.871 31.538 213.331 32.252 212.563 32.816C211.807 33.38 210.853 33.662 209.701 33.662ZM212.815 27.938C212.803 26.99 212.503 26.234 211.915 25.67C211.327 25.094 210.595 24.806 209.719 24.806C208.855 24.806 208.135 25.088 207.559 25.652C206.983 26.204 206.665 26.966 206.605 27.938H212.815ZM219.805 32.168H221.155V33.5H219.499C217.783 33.5 216.925 32.654 216.925 30.962V24.95H215.647V23.618H216.925V21.17H218.581V23.618H221.137V24.95H218.581V30.962C218.581 31.406 218.671 31.718 218.851 31.898C219.031 32.078 219.349 32.168 219.805 32.168ZM227.103 33.662C225.687 33.662 224.535 33.194 223.647 32.258C222.759 31.322 222.315 30.086 222.315 28.55C222.315 27.014 222.765 25.784 223.665 24.86C224.565 23.924 225.729 23.456 227.157 23.456C228.597 23.456 229.749 23.9 230.613 24.788C231.489 25.664 231.927 26.786 231.927 28.154C231.927 28.502 231.903 28.826 231.855 29.126H223.989C224.037 30.11 224.343 30.89 224.907 31.466C225.483 32.03 226.215 32.312 227.103 32.312C227.775 32.312 228.339 32.162 228.795 31.862C229.263 31.562 229.605 31.166 229.821 30.674H231.585C231.273 31.538 230.733 32.252 229.965 32.816C229.209 33.38 228.255 33.662 227.103 33.662ZM230.217 27.938C230.205 26.99 229.905 26.234 229.317 25.67C228.729 25.094 227.997 24.806 227.121 24.806C226.257 24.806 225.537 25.088 224.961 25.652C224.385 26.204 224.067 26.966 224.007 27.938H230.217Z" fill="#6B6B6B"/>
</g>
</g>
<defs>
<filter id="filter0_i_835_14538" x="0" y="0" width="303" height="62" filterUnits="userSpaceOnUse" color-interpolation-filters="sRGB">
<feFlood flood-opacity="0" result="BackgroundImageFix"/>
<feBlend mode="normal" in="SourceGraphic" in2="BackgroundImageFix" result="shape"/>
<feColorMatrix in="SourceAlpha" type="matrix" values="0 0 0 0 0 0 0 0 0 0 0 0 0 0 0 0 0 0 127 0" result="hardAlpha"/>
<feOffset dx="3" dy="6"/>
<feGaussianBlur stdDeviation="4"/>
<feComposite in2="hardAlpha" operator="arithmetic" k2="-1" k3="1"/>
<feColorMatrix type="matrix" values="0 0 0 0 0.00392157 0 0 0 0 0.00392157 0 0 0 0 0.0784314 0 0 0 0.08 0"/>
<feBlend mode="normal" in2="shape" result="effect1_innerShadow_835_14538"/>
</filter>
<filter id="filter1_d_835_14538" x="-22" y="-14" width="100" height="100" filterUnits="userSpaceOnUse" color-interpolation-filters="sRGB">
<feFlood flood-opacity="0" result="BackgroundImageFix"/>
<feColorMatrix in="SourceAlpha" type="matrix" values="0 0 0 0 0 0 0 0 0 0 0 0 0 0 0 0 0 0 127 0" result="hardAlpha"/>
<feOffset dy="8"/>
<feGaussianBlur stdDeviation="15"/>
<feColorMatrix type="matrix" values="0 0 0 0 0.00392157 0 0 0 0 0.00392157 0 0 0 0 0.0784314 0 0 0 0.3 0"/>
<feBlend mode="normal" in2="BackgroundImageFix" result="effect1_dropShadow_835_14538"/>
<feBlend mode="normal" in="SourceGraphic" in2="effect1_dropShadow_835_14538" result="shape"/>
</filter>
<radialGradient id="paint0_radial_835_14538" cx="0" cy="0" r="1" gradientUnits="userSpaceOnUse" gradientTransform="translate(29.4905 -10.3718) rotate(30.5553) scale(180.86 164.188)">
<stop stop-color="#FAE7B9"/>
<stop offset="1" stop-opacity="0"/>
</radialGradient>
<clipPath id="clip0_835_14538">
<rect width="300" height="56" rx="28" fill="white"/>
</clipPath>
</defs>
</svg>
