<svg width="174" height="48" viewBox="0 0 174 48" fill="none" xmlns="http://www.w3.org/2000/svg">
<rect x="0.75" y="0.75" width="46.5" height="46.5" rx="7.25" stroke="#D0D0D0" stroke-width="1.5"/>
<path d="M28.5384 18.3921L24.0481 21.8964L19.4551 18.3921V18.393L19.4606 18.3978V23.3048L23.9963 26.8848L28.5384 23.443V18.3921Z" fill="#F44336"/>
<path d="M29.7176 17.5398L28.5383 18.3922V23.4431L32.249 20.5942V18.8781C32.249 18.8781 31.7986 16.4269 29.7176 17.5398Z" fill="#FDD835"/>
<path d="M28.5383 23.4436V29.9948H31.3824C31.3824 29.9948 32.1916 29.9115 32.2499 28.989V20.5947L28.5383 23.4436Z" fill="#43A048"/>
<path d="M19.4608 29.9997V23.3045L19.4551 23.2998L19.4608 29.9997Z" fill="#F44336"/>
<path d="M19.4551 18.3934L18.2823 17.5457C16.2013 16.4329 15.75 18.8831 15.75 18.8831V20.5992L19.4551 23.3004V18.3934Z" fill="#B71B1C"/>
<path d="M19.4551 18.3931V23.3001L19.4608 23.3048V18.3978L19.4551 18.3931Z" fill="#F44336"/>
<path d="M15.75 20.5996V28.9939C15.8073 29.9173 16.6175 29.9997 16.6175 29.9997H19.4616L19.4551 23.2998L15.75 20.5996Z" fill="#304FFE"/>
<rect x="63.75" y="0.75" width="46.5" height="46.5" rx="7.25" stroke="#D0D0D0" stroke-width="1.5"/>
<circle cx="87" cy="24" r="10.5" fill="url(#paint0_linear_63_2502)"/>
<path d="M90.9103 27.2112L91.3767 24.2476H88.4589V22.3252C88.4589 21.5143 88.8657 20.7233 90.1726 20.7233H91.5V18.2002C91.5 18.2002 90.2959 18 89.1452 18C86.7411 18 85.1712 19.4197 85.1712 21.9888V24.2476H82.5V27.2112H85.1712V34.3759C85.7075 34.458 86.2562 34.5 86.8151 34.5C87.374 34.5 87.9226 34.458 88.4589 34.3759V27.2112H90.9103Z" fill="white"/>
<rect x="126.75" y="0.75" width="46.5" height="46.5" rx="7.25" stroke="#D0D0D0" stroke-width="1.5"/>
<path d="M160.5 24C160.5 29.796 155.801 34.5 150 34.5C144.199 34.5 139.5 29.796 139.5 24C139.5 18.1987 144.199 13.5 150 13.5C155.801 13.5 160.5 18.1987 160.5 24Z" fill="#121212"/>
<path d="M154.922 21.343C154.864 21.3765 153.5 22.0819 153.5 23.6459C153.565 25.4296 155.222 26.0551 155.25 26.0551C155.222 26.0885 155 26.9072 154.343 27.7654C153.822 28.5047 153.243 29.25 152.365 29.25C151.529 29.25 151.229 28.7573 150.265 28.7573C149.229 28.7573 148.936 29.25 148.143 29.25C147.265 29.25 146.643 28.4647 146.093 27.7324C145.379 26.7739 144.772 25.2698 144.751 23.8256C144.736 23.0603 144.894 22.308 145.294 21.669C145.858 20.777 146.865 20.1714 147.965 20.1515C148.807 20.125 149.557 20.6906 150.072 20.6906C150.565 20.6906 151.486 20.1515 152.529 20.1515C152.979 20.1519 154.179 20.2782 154.922 21.343ZM150 19.9987C149.85 19.2998 150.265 18.6009 150.65 18.1551C151.143 17.6159 151.922 17.25 152.593 17.25C152.636 17.9489 152.364 18.6343 151.879 19.1335C151.443 19.6727 150.693 20.0785 150 19.9987Z" fill="white"/>
<defs>
<linearGradient id="paint0_linear_63_2502" x1="87" y1="13.5" x2="87" y2="34.4377" gradientUnits="userSpaceOnUse">
<stop stop-color="#18ACFE"/>
<stop offset="1" stop-color="#0163E0"/>
</linearGradient>
</defs>
</svg>
