<svg width="107" height="89" viewBox="0 0 107 89" fill="none" xmlns="http://www.w3.org/2000/svg">
<path d="M26.568 22.578V26.52L8.37 56.112H26.568V60H2.7V56.112L20.952 26.52H2.7V22.578H26.568ZM41.6336 59.514L29.9156 30.354H35.3156L44.3876 54.33L53.6216 30.354H58.6976L40.8236 73.878H35.7476L41.6336 59.514ZM63.3762 60V20.04H68.2902V60H63.3762Z" fill="white"/>
<path d="M54.018 62.015C55.1853 62.015 56.0523 62.2587 56.619 62.746C57.197 63.2333 57.486 63.902 57.486 64.752C57.486 65.0353 57.4633 65.296 57.418 65.534C57.2367 66.5313 56.8117 67.3247 56.143 67.914C55.4743 68.5033 54.596 68.8547 53.508 68.968L56.024 74H54.664L52.25 69.002H50.312L49.445 74H48.238L50.346 62.015H54.018ZM56.194 65.602C56.2393 65.2847 56.262 65.0693 56.262 64.956C56.262 63.6867 55.429 63.052 53.763 63.052H51.383L50.482 68.101H52.862C54.8 68.101 55.9107 67.268 56.194 65.602ZM61.2317 62.015L59.1237 74H57.9167L60.0247 62.015H61.2317ZM72.6839 67.999C72.4685 69.2343 72.0379 70.3053 71.3919 71.212C70.7459 72.1073 69.9072 72.7987 68.8759 73.286C67.8445 73.762 66.6602 74 65.3229 74H61.7019L63.8099 62.015H67.4309C69.1762 62.015 70.5079 62.4173 71.4259 63.222C72.3439 64.0267 72.8029 65.1543 72.8029 66.605C72.8029 67.0697 72.7632 67.5343 72.6839 67.999ZM65.4249 72.929C67.1135 72.929 68.4735 72.4983 69.5049 71.637C70.5475 70.7643 71.2049 69.5517 71.4769 67.999C71.5449 67.591 71.5789 67.2 71.5789 66.826C71.5789 65.6247 71.2049 64.701 70.4569 64.055C69.7202 63.3977 68.6209 63.069 67.1589 63.069H64.8299L63.0959 72.929H65.4249Z" fill="white"/>
<path d="M76.145 62.9841L75.346 67.5061H82.146L81.959 68.4411H75.176L74.377 73.0141H81.67L81.5 74.0001H73L75.108 62.0151H83.608L83.438 62.9841H76.145Z" fill="url(#paint0_linear_63_3076)"/>
<path d="M99.647 44.8732C99.647 39.5093 95.2778 35.1401 89.9139 35.1401C84.5501 35.1401 80.1809 39.5093 80.1809 44.8732C80.1809 50.237 84.5501 54.6062 89.9139 54.6062C95.2778 54.6062 99.647 50.237 99.647 44.8732ZM86.2552 52.0131L87.9957 49.8462C88.9904 48.603 90.873 48.603 91.8677 49.8462L93.6082 52.0131C92.507 52.5814 91.2638 52.9011 89.9495 52.9011C88.5996 52.9011 87.3564 52.5814 86.2552 52.0131ZM91.9387 44.8732C91.9387 45.9743 91.0506 46.8979 89.9139 46.8979C88.7772 46.8979 87.8892 46.0099 87.8892 44.8732C87.8892 43.7365 88.7772 42.8484 89.9139 42.8484C91.0506 42.8484 91.9387 43.772 91.9387 44.8732ZM95.5619 50.5922L94.0345 48.2478C93.182 46.9334 93.7503 45.1218 95.2422 44.589L97.8354 43.5944C97.9064 44.0206 97.9419 44.4469 97.9419 44.8732C97.9419 47.1111 97.0539 49.1358 95.5619 50.5922ZM97.0894 41.2499L94.3897 41.9959C92.8623 42.4221 91.3348 41.321 91.2638 39.7225L91.1217 36.9518C93.7503 37.3425 95.9527 38.9765 97.0894 41.2499ZM88.7062 36.9518L88.5641 39.7225C88.4931 41.321 86.9656 42.4221 85.4382 41.9959L82.7385 41.2499C83.8752 38.9765 86.0776 37.3425 88.7062 36.9518ZM81.886 44.8732C81.886 44.4469 81.9215 44.0206 81.9925 43.5944L84.5856 44.589C86.0776 45.1573 86.6459 46.9334 85.7934 48.2478L84.2659 50.5567C82.774 49.1358 81.886 47.1111 81.886 44.8732Z" fill="#EDAE10"/>
<path d="M106.467 45.2637L105.65 45.0861C105.65 45.015 105.65 44.944 105.65 44.873C105.65 44.8019 105.65 44.7664 105.65 44.6953L106.467 44.5177C106.68 44.4822 106.822 44.2691 106.787 44.0559L106.574 42.1733C106.538 41.9601 106.361 41.7825 106.147 41.8181H105.33C105.295 41.676 105.259 41.5339 105.224 41.4273L105.97 41.1076C106.183 41.0366 106.254 40.7879 106.183 40.6103L105.615 38.7987C105.544 38.5856 105.33 38.479 105.117 38.5145L104.336 38.6921C104.265 38.55 104.229 38.4435 104.158 38.3369L104.833 37.8396C105.011 37.733 105.046 37.4844 104.94 37.3068L104.052 35.6372C103.945 35.4596 103.732 35.3886 103.519 35.4596L102.773 35.8148C102.702 35.7083 102.595 35.6017 102.524 35.4951L103.093 34.8913C103.235 34.7492 103.235 34.5005 103.093 34.3229L101.814 32.902C101.672 32.7599 101.423 32.7244 101.245 32.831L100.571 33.3283C100.464 33.2217 100.357 33.1507 100.286 33.0441L100.713 32.3337C100.819 32.1561 100.784 31.9074 100.606 31.8009L99.0786 30.6997C98.901 30.5576 98.6523 30.5931 98.5102 30.7707L97.9774 31.3746C97.8708 31.3035 97.7643 31.2325 97.6222 31.1615L97.8708 30.38C97.9419 30.1668 97.8353 29.9537 97.6577 29.8827L95.9171 29.1012C95.7395 29.0301 95.4909 29.1012 95.3843 29.2788L94.958 29.9892C94.816 29.9537 94.7094 29.8827 94.5673 29.8471L94.6739 29.0301C94.7094 28.817 94.5673 28.6394 94.3542 28.5684L92.507 28.1776C92.2939 28.1421 92.0808 28.2487 92.0097 28.4618L91.7966 29.2433C91.6545 29.2433 91.5124 29.2077 91.4058 29.2077L91.3348 28.3907C91.2993 28.1776 91.1217 28 90.9085 28H89.0259C88.8127 28 88.6351 28.1776 88.5996 28.3907L88.493 29.2077C88.3509 29.2077 88.2089 29.2433 88.1023 29.2433L87.8536 28.4618C87.7826 28.2487 87.5695 28.1421 87.3563 28.1776L85.5092 28.5684C85.2961 28.6039 85.154 28.817 85.1895 29.0301L85.2961 29.8471C85.154 29.8827 85.0474 29.9537 84.9053 29.9892L84.479 29.2788C84.3725 29.1012 84.1594 29.0301 83.9462 29.1012L82.2056 29.8827C82.028 29.9537 81.9215 30.2024 81.9925 30.38L82.2412 31.1615C82.1346 31.2325 81.9925 31.3035 81.8859 31.3746L81.3176 30.7352C81.1755 30.5931 80.9268 30.5576 80.7492 30.6642L79.2573 31.7653C79.0797 31.9074 79.0442 32.1206 79.1507 32.2982L79.577 33.0086C79.4704 33.1152 79.3639 33.1862 79.2928 33.2928L78.5824 32.7955C78.4048 32.6534 78.1561 32.6889 78.014 32.8665L76.7353 34.2874C76.5932 34.4295 76.5932 34.6781 76.7353 34.8557L77.3036 35.4596C77.2326 35.5662 77.126 35.6728 77.0549 35.7793L76.309 35.4241C76.1314 35.3531 75.8827 35.4241 75.7762 35.6017L74.8171 37.2357C74.7105 37.4133 74.746 37.662 74.9236 37.7686L75.5985 38.2659C75.5275 38.3724 75.492 38.5145 75.4209 38.6211L74.675 38.479C74.4618 38.4435 74.2487 38.55 74.1777 38.7632L73.6093 40.5748C73.5383 40.7879 73.6448 41.0011 73.8224 41.0721L74.5684 41.3918C74.5329 41.5339 74.4974 41.6405 74.4618 41.7825H73.6448C73.4317 41.7825 73.2541 41.9246 73.2186 42.1378L73.0054 44.0204C72.9699 44.2336 73.112 44.4112 73.3251 44.4822L74.1421 44.6598C74.1421 44.7309 74.1421 44.8019 74.1421 44.873C74.1421 44.944 74.1421 44.9795 74.1421 45.0506L73.3607 45.2282C73.1475 45.2637 73.0054 45.4768 73.041 45.69L73.2541 47.5726C73.2896 47.7858 73.4672 47.9634 73.6804 47.9278H74.4974C74.5329 48.0699 74.5684 48.212 74.6039 48.3186L73.858 48.6383C73.6448 48.7093 73.5738 48.958 73.6448 49.1356L74.2132 50.9472C74.2842 51.1603 74.4974 51.2669 74.7105 51.2314L75.492 51.0538C75.563 51.1959 75.5985 51.3024 75.6696 51.409L74.9947 51.9063C74.8171 52.0129 74.7815 52.2615 74.8881 52.4391L75.8472 54.0732C75.9538 54.2508 76.1669 54.3218 76.38 54.2508L77.126 53.8955C77.197 54.0021 77.3036 54.1087 77.3746 54.2152L76.8063 54.8191C76.6642 54.9612 76.6642 55.2099 76.8063 55.3875L78.0851 56.8083C78.2272 56.9504 78.4758 56.986 78.6534 56.8794L79.3284 56.3821C79.4349 56.4887 79.5415 56.5597 79.6125 56.6663L79.1863 57.3767C79.0797 57.5543 79.1152 57.803 79.2928 57.9095L80.8203 59.0107C80.9979 59.1528 81.2465 59.1173 81.3886 58.9397L81.957 58.3003C82.0636 58.3713 82.1701 58.4424 82.3122 58.5134L82.0636 59.2949C81.9925 59.508 82.0991 59.7212 82.2767 59.7922L84.0173 60.5737C84.1949 60.6447 84.4435 60.5737 84.5501 60.3961L84.9764 59.6856C85.1184 59.7212 85.225 59.7922 85.3671 59.8277L85.2605 60.6447C85.225 60.8579 85.3671 61.0355 85.5802 61.1065L87.4274 61.4973C87.6405 61.5328 87.8536 61.4262 87.9247 61.2131L88.1733 60.4316C88.3154 60.4316 88.4575 60.4671 88.5641 60.4671L88.6351 61.2841C88.6706 61.4973 88.8483 61.6749 89.0614 61.6749H90.9441C91.1572 61.6749 91.3348 61.4973 91.3703 61.2841L91.4414 60.4671C91.5835 60.4671 91.7255 60.4316 91.8321 60.4316L92.0808 61.2131C92.1518 61.4262 92.3649 61.5328 92.5781 61.4973L94.4252 61.1065C94.6383 61.071 94.7804 60.8579 94.7449 60.6447L94.6383 59.8277C94.7804 59.7922 94.887 59.7212 95.0291 59.6856L95.4553 60.3961C95.5619 60.5737 95.775 60.6447 95.9882 60.5737L97.7288 59.7922C97.9064 59.7212 98.0129 59.4725 97.9419 59.2949L97.6932 58.5134C97.7998 58.4424 97.9419 58.3713 98.0485 58.3003L98.6168 58.9397C98.7589 59.0818 99.0075 59.1173 99.1852 59.0107L100.713 57.9095C100.89 57.7674 100.926 57.5543 100.819 57.3767L100.393 56.6663C100.499 56.5597 100.606 56.4887 100.677 56.3821L101.352 56.8794C101.53 57.0215 101.778 56.986 101.92 56.8083L103.199 55.3875C103.341 55.2454 103.341 54.9967 103.199 54.8191L102.631 54.2152C102.702 54.1087 102.808 54.0021 102.879 53.8955L103.625 54.2508C103.803 54.3218 104.052 54.2508 104.158 54.0732L105.117 52.4391C105.224 52.2615 105.188 52.0129 105.011 51.9063L104.336 51.409C104.407 51.3024 104.442 51.1603 104.513 51.0538L105.33 51.2314C105.544 51.2669 105.757 51.1603 105.828 50.9472L106.396 49.1356C106.467 48.9225 106.361 48.7093 106.183 48.6383L105.437 48.3186C105.473 48.1765 105.508 48.0699 105.544 47.9278H106.361C106.574 47.9278 106.751 47.7858 106.787 47.5726L107 45.69C106.787 45.5124 106.645 45.2992 106.467 45.2637ZM78.7245 44.873C78.7245 38.6921 83.7331 33.6835 89.9139 33.6835C96.0947 33.6835 101.103 38.6921 101.103 44.873C101.103 51.0538 96.0947 56.0624 89.9139 56.0624C83.7331 56.0624 78.7245 51.0538 78.7245 44.873Z" fill="#EDAE10"/>
<defs>
<linearGradient id="paint0_linear_63_3076" x1="79" y1="68.0001" x2="74" y2="67.5001" gradientUnits="userSpaceOnUse">
<stop stop-color="white" stop-opacity="0"/>
<stop offset="1" stop-color="white"/>
</linearGradient>
</defs>
</svg>
