<svg width="16" height="20" viewBox="0 0 16 20" fill="none" xmlns="http://www.w3.org/2000/svg">
<path fill-rule="evenodd" clip-rule="evenodd" d="M8 1.5293C11.3137 1.5293 14 4.21559 14 7.5293V7.89069C14 9.21655 13.5857 10.5093 12.8151 11.5882L8.01185 18.3127C8.00604 18.3208 7.99396 18.3208 7.98815 18.3127L3.18491 11.5882C2.41427 10.5093 2 9.21655 2 7.89069L2 7.5293C2 4.21559 4.68629 1.5293 8 1.5293ZM10.6351 6.96361C10.4521 6.16167 9.91385 5.48673 9.17275 5.12983C8.43164 4.77293 7.56835 4.77293 6.82725 5.12983C6.08615 5.48673 5.5479 6.16167 5.36486 6.96361C5.18182 7.76555 5.37392 8.60719 5.88678 9.2503C6.39964 9.8934 7.17744 10.268 8 10.268C8.82256 10.268 9.60036 9.8934 10.1132 9.2503C10.6261 8.6072 10.8182 7.76555 10.6351 6.96361Z" fill="#007AFF"/>
<path d="M12.8151 11.5882L14.0357 12.46V12.46L12.8151 11.5882ZM8.01185 18.3127L9.23245 19.1846L9.23245 19.1846L8.01185 18.3127ZM7.98815 18.3127L6.76755 19.1846L6.76755 19.1846L7.98815 18.3127ZM3.18491 11.5882L1.96431 12.46H1.96431L3.18491 11.5882ZM9.17275 5.12983L8.52192 6.48128L9.17275 5.12983ZM10.6351 6.96361L9.17274 7.29739V7.29739L10.6351 6.96361ZM5.36486 6.96361L3.90247 6.62983L3.90247 6.62983L5.36486 6.96361ZM5.88678 9.2503L4.71403 10.1855L4.71403 10.1855L5.88678 9.2503ZM10.1132 9.2503L11.286 10.1855H11.286L10.1132 9.2503ZM15.5 7.5293C15.5 3.38716 12.1421 0.0292969 8 0.0292969V3.0293C10.4853 3.0293 12.5 5.04402 12.5 7.5293H15.5ZM15.5 7.89069V7.5293H12.5V7.89069H15.5ZM14.0357 12.46C14.988 11.1267 15.5 9.52919 15.5 7.89069H12.5C12.5 8.90392 12.1834 9.89182 11.5945 10.7163L14.0357 12.46ZM9.23245 19.1846L14.0357 12.46L11.5945 10.7163L6.79125 17.4408L9.23245 19.1846ZM6.76755 19.1846C7.37159 20.0302 8.62841 20.0302 9.23245 19.1846L6.79126 17.4408C7.38368 16.6115 8.61632 16.6115 9.20874 17.4408L6.76755 19.1846ZM1.96431 12.46L6.76755 19.1846L9.20875 17.4408L4.40551 10.7163L1.96431 12.46ZM0.5 7.89069C0.5 9.52919 1.01196 11.1267 1.96431 12.46L4.40551 10.7163C3.81659 9.89182 3.5 8.90392 3.5 7.89069H0.5ZM0.5 7.5293L0.5 7.89069H3.5V7.5293H0.5ZM8 0.0292969C3.85786 0.0292969 0.5 3.38716 0.5 7.5293H3.5C3.5 5.04402 5.51472 3.0293 8 3.0293V0.0292969ZM8.52192 6.48128C8.85174 6.64012 9.09129 6.9405 9.17274 7.29739L12.0975 6.62983C11.8129 5.38285 10.976 4.33334 9.82357 3.77838L8.52192 6.48128ZM7.47808 6.48128C7.8079 6.32245 8.1921 6.32245 8.52192 6.48128L9.82357 3.77838C8.67119 3.22342 7.32881 3.22342 6.17643 3.77838L7.47808 6.48128ZM6.82725 7.29739C6.90871 6.9405 7.14825 6.64012 7.47808 6.48128L6.17643 3.77838C5.02404 4.33333 4.18708 5.38285 3.90247 6.62983L6.82725 7.29739ZM7.05953 8.31506C6.83128 8.02886 6.74579 7.65429 6.82725 7.29739L3.90247 6.62983C3.61785 7.87681 3.91656 9.18553 4.71403 10.1855L7.05953 8.31506ZM8 8.76797C7.63392 8.76797 7.28777 8.60127 7.05953 8.31506L4.71403 10.1855C5.51151 11.1855 6.72095 11.768 8 11.768L8 8.76797ZM8.94047 8.31506C8.71222 8.60127 8.36607 8.76797 8 8.76797L8 11.768C9.27905 11.768 10.4885 11.1855 11.286 10.1855L8.94047 8.31506ZM9.17274 7.29739C9.2542 7.65429 9.16871 8.02886 8.94047 8.31506L11.286 10.1855C12.0834 9.18553 12.3821 7.87681 12.0975 6.62983L9.17274 7.29739Z" fill="#007AFF"/>
</svg>
