<svg width="40" height="40" viewBox="0 0 40 40" fill="none" xmlns="http://www.w3.org/2000/svg">
<circle cx="20" cy="20" r="20" fill="#FFCDD2"/>
<path d="M23.5457 17.8404L21.0773 15.372C20.8283 15.1229 21.0047 14.697 21.3569 14.697L23.6207 14.697C23.9521 14.697 24.2207 14.9656 24.2207 15.297L24.2207 17.5608C24.2207 17.9131 23.7948 18.0895 23.5457 17.8404Z" fill="#C2CCDE" fill-opacity="0.25"/>
<path d="M22.3115 16.6062L14.0384 24.8793M21.0773 15.372L23.5457 17.8404C23.7948 18.0895 24.2207 17.9131 24.2207 17.5608L24.2207 15.297C24.2207 14.9656 23.9521 14.697 23.6207 14.697L21.3569 14.697C21.0047 14.697 20.8283 15.1229 21.0773 15.372Z" stroke="#D32F2F" stroke-linecap="round" stroke-linejoin="round"/>
</svg>
