<svg width="40" height="40" viewBox="0 0 40 40" fill="none" xmlns="http://www.w3.org/2000/svg">
<circle cx="20" cy="20" r="20" fill="#D2FFD4"/>
<path d="M23.5457 17.8394L21.0773 15.371C20.8283 15.1219 21.0047 14.696 21.3569 14.696L23.6207 14.696C23.9521 14.696 24.2207 14.9647 24.2207 15.296L24.2207 17.5598C24.2207 17.9121 23.7948 18.0885 23.5457 17.8394Z" fill="#C2CCDE" fill-opacity="0.25"/>
<path d="M22.3115 16.6052L14.0384 24.8784M21.0773 15.371L23.5457 17.8394C23.7948 18.0885 24.2207 17.9121 24.2207 17.5598L24.2207 15.296C24.2207 14.9647 23.9521 14.696 23.6207 14.696L21.3569 14.696C21.0047 14.696 20.8283 15.1219 21.0773 15.371Z" stroke="#43A048" stroke-linecap="round" stroke-linejoin="round"/>
</svg>
