<svg width="57" height="49" viewBox="0 0 57 49" fill="none" xmlns="http://www.w3.org/2000/svg">
<path d="M29.9195 11.9547L29.8277 11.9276C29.4334 11.8113 29.2063 11.3998 29.3249 11.0062L29.9195 11.9547ZM29.9195 11.9547L29.9243 11.9493M29.9195 11.9547L29.9243 11.9493M29.9243 11.9493C30.2887 12.0069 30.6482 11.7894 30.7561 11.4292C31.7079 8.26546 34.7076 6.05358 38.0511 6.05358C38.4619 6.05358 38.798 5.7235 38.798 5.31312C38.798 4.90272 38.4619 4.57266 38.0511 4.57266C33.9168 4.57266 30.4412 7.29569 29.3249 11.0061L29.9243 11.9493Z" fill="#EDAE10" stroke="#F9FFF9" stroke-width="0.3"/>
<path d="M46.4071 34.2449H42.8258C42.4962 34.2449 42.2289 33.9804 42.2289 33.6544C42.2289 33.3284 42.4962 33.0639 42.8258 33.0639H46.4071C51.3438 33.0639 55.3605 29.0906 55.3605 24.2071C55.3605 19.3237 51.3438 15.3503 46.4071 15.3503H46.321C46.1479 15.3503 45.9833 15.276 45.8699 15.1466C45.7565 15.0171 45.7053 14.8454 45.7301 14.6759C45.7834 14.3081 45.8102 13.9387 45.8102 13.5789C45.8102 9.34663 42.329 5.90295 38.0505 5.90295C36.3861 5.90295 34.7987 6.41749 33.4599 7.39131C33.1658 7.60514 32.7479 7.51025 32.5778 7.19013C28.7863 0.0481732 18.8832 -0.910919 13.7489 5.30196C11.5861 7.91935 10.7362 11.3242 11.4172 14.6426C11.4922 15.0091 11.2087 15.3507 10.8322 15.3507H10.5931C5.65636 15.3507 1.63965 19.3241 1.63965 24.2076C1.63965 29.091 5.65636 33.0644 10.5931 33.0644H14.1744C14.504 33.0644 14.7713 33.3288 14.7713 33.6549C14.7713 33.9809 14.504 34.2453 14.1744 34.2453H10.5931C4.99798 34.2453 0.445801 29.7422 0.445801 24.2075C0.445801 18.8281 4.74597 14.4232 10.1245 14.1803C9.61927 10.7375 10.5854 7.26476 12.8246 4.55462C18.3215 -2.0977 28.856 -1.35206 33.3092 6.06576C34.7299 5.18471 36.3555 4.72251 38.0503 4.72251C43.2339 4.72251 47.3415 9.08685 46.982 14.1858C52.311 14.4815 56.5541 18.863 56.5541 24.2071C56.5541 29.7422 52.0019 34.2449 46.4068 34.2449L46.4071 34.2449Z" fill="#EDAE10"/>
<path d="M13.3474 33.3202C13.3474 41.5441 20.1104 48.2317 28.42 48.2317C36.7296 48.2317 43.4925 41.544 43.4925 33.3202C43.4925 25.0962 36.7296 18.4086 28.42 18.4086C20.1103 18.4086 13.3474 25.0963 13.3474 33.3202ZM14.8415 33.3202C14.8415 25.9164 20.9314 19.8898 28.42 19.8898C35.9084 19.8898 41.9985 25.9163 41.9985 33.3202C41.9985 40.7239 35.9084 46.7505 28.42 46.7505C20.9315 46.7505 14.8415 40.724 14.8415 33.3202Z" fill="#EDAE10" stroke="#F9FFF9" stroke-width="0.3"/>
<path d="M28.1059 39.2635C28.1059 39.5865 28.3703 39.8458 28.6929 39.8458C29.0154 39.8458 29.2799 39.5869 29.2799 39.2635V28.0241C29.2799 27.701 29.0154 27.4418 28.6929 27.4418C28.3703 27.4418 28.1059 27.701 28.1059 28.0241V39.2635Z" fill="#EDAE10" stroke="#483EA8" stroke-width="0.3"/>
<path d="M28.6928 28.8484L31.7742 31.8966C31.8888 32.01 32.0393 32.0666 32.1887 32.0666L28.6928 28.8484ZM28.6928 28.8484L25.6114 31.8965L28.6928 28.8484ZM24.7823 31.8966C25.0114 32.1233 25.3824 32.1234 25.6113 31.8966L32.1887 32.0666C32.3378 32.0666 32.4885 32.0105 32.6033 31.8965C32.8333 31.6689 32.8332 31.2996 32.6032 31.072L29.1073 27.6138C28.8782 27.3872 28.5072 27.387 28.2783 27.6138C28.2782 27.6138 28.2782 27.6138 28.2782 27.6139L24.7823 31.072C24.5522 31.2996 24.5522 31.669 24.7823 31.8966Z" fill="#EDAE10" stroke="#483EA8" stroke-width="0.3"/>
</svg>
