<svg width="45" height="35" viewBox="0 0 45 35" fill="none" xmlns="http://www.w3.org/2000/svg">
<path d="M8.18898 34.9224V32.5995C8.18898 31.7088 7.64809 31.1282 6.72098 31.1282C6.25751 31.1282 5.75534 31.2831 5.40765 31.7864C5.13738 31.3605 4.75116 31.1282 4.17174 31.1282C3.78534 31.1282 3.3993 31.2443 3.09015 31.6702V31.2056H2.27899V34.9224H3.09015V32.8704C3.09015 32.2123 3.43783 31.9025 3.97872 31.9025C4.51925 31.9025 4.78987 32.251 4.78987 32.8704V34.9224H5.60103V32.8704C5.60103 32.2123 5.98707 31.9025 6.48925 31.9025C7.03013 31.9025 7.3004 32.251 7.3004 32.8704V34.9224H8.18898ZM20.2016 31.2056H18.8885V30.0829H18.0773V31.2056H17.3434V31.9411H18.0771V33.6448C18.0771 34.4966 18.4248 34.9998 19.3519 34.9998C19.6996 34.9998 20.0857 34.8838 20.3563 34.7289L20.1244 34.0319C19.8926 34.1868 19.6224 34.2256 19.4292 34.2256C19.0429 34.2256 18.8885 33.9933 18.8885 33.606V31.9411H20.2016V31.2056ZM27.0772 31.128C26.6138 31.128 26.3048 31.3605 26.1116 31.6702V31.2056H25.3004V34.9224H26.1116V32.8317C26.1116 32.2123 26.3819 31.8638 26.884 31.8638C27.0385 31.8638 27.2317 31.9026 27.3862 31.9413L27.618 31.167C27.4635 31.1282 27.2317 31.1282 27.0772 31.1282V31.128ZM16.6867 31.5153C16.3003 31.2443 15.7596 31.1282 15.1802 31.1282C14.2533 31.1282 13.6353 31.5928 13.6353 32.3284C13.6353 32.948 14.0988 33.2963 14.9099 33.4125L15.2962 33.4513C15.7211 33.5286 15.9528 33.6448 15.9528 33.8384C15.9528 34.1093 15.6438 34.303 15.103 34.303C14.5622 34.303 14.1373 34.1093 13.8669 33.9159L13.4807 34.5353C13.9056 34.845 14.485 34.9998 15.0642 34.9998C16.1458 34.9998 16.764 34.4966 16.764 33.7996C16.764 33.1414 16.2618 32.7929 15.4892 32.6769L15.103 32.6381C14.7553 32.5993 14.485 32.522 14.485 32.2898C14.485 32.0187 14.7553 31.8638 15.1802 31.8638C15.6438 31.8638 16.1073 32.0573 16.339 32.1735L16.6867 31.5153ZM38.2404 31.1282C37.7767 31.1282 37.4677 31.3605 37.2745 31.6702V31.2056H36.4634V34.9224H37.2745V32.8317C37.2745 32.2123 37.545 31.8638 38.047 31.8638C38.2017 31.8638 38.3949 31.9026 38.5493 31.9413L38.7811 31.167C38.6266 31.1282 38.3949 31.1282 38.2404 31.1282ZM27.8884 33.064C27.8884 34.1868 28.6608 34.9998 29.8584 34.9998C30.3991 34.9998 30.7853 34.8838 31.1715 34.5741L30.7853 33.9159C30.4763 34.1481 30.1674 34.2642 29.8197 34.2642C29.163 34.2642 28.6995 33.7996 28.6995 33.064C28.6995 32.3672 29.163 31.9025 29.8197 31.8638C30.1674 31.8638 30.4763 31.9799 30.7853 32.2123L31.1715 31.5541C30.7853 31.2443 30.3991 31.1282 29.8584 31.1282C28.6608 31.1282 27.8884 31.9413 27.8884 33.064ZM35.382 33.064V31.2056H34.5708V31.6702C34.3004 31.3219 33.9142 31.1282 33.412 31.1282C32.3691 31.1282 31.5579 31.9413 31.5579 33.064C31.5579 34.1868 32.3691 34.9998 33.412 34.9998C33.9527 34.9998 34.3391 34.8063 34.5708 34.4578V34.9224H35.382V33.064ZM32.4076 33.064C32.4076 32.4058 32.8326 31.8638 33.5278 31.8638C34.1844 31.8638 34.6481 32.3672 34.6481 33.064C34.6481 33.7222 34.1844 34.2642 33.5278 34.2642C32.8326 34.2254 32.4076 33.7222 32.4076 33.064ZM22.7125 31.1282C21.6309 31.1282 20.8583 31.9025 20.8583 33.064C20.8583 34.2256 21.6307 34.9998 22.751 34.9998C23.2917 34.9998 23.8326 34.845 24.2576 34.4966L23.8712 33.9159C23.5622 34.1481 23.176 34.303 22.7897 34.303C22.2876 34.303 21.7854 34.0707 21.6694 33.4123H24.412V33.1028C24.4508 31.9025 23.7554 31.1282 22.7123 31.1282H22.7125ZM22.7125 31.825C23.2145 31.825 23.5624 32.1349 23.6394 32.7157H21.7081C21.7854 32.2123 22.1331 31.825 22.7125 31.825ZM42.8368 33.064V29.7344H42.0257V31.6702C41.7552 31.3219 41.369 31.1282 40.8668 31.1282C39.824 31.1282 39.0128 31.9413 39.0128 33.064C39.0128 34.1868 39.824 34.9998 40.8668 34.9998C41.4077 34.9998 41.794 34.8063 42.0257 34.4578V34.9224H42.8368V33.064ZM39.8627 33.064C39.8627 32.4058 40.2874 31.8638 40.9828 31.8638C41.6395 31.8638 42.1029 32.3672 42.1029 33.064C42.1029 33.7222 41.6395 34.2642 40.9828 34.2642C40.2874 34.2254 39.8627 33.7222 39.8627 33.064ZM12.7467 33.064V31.2056H11.9356V31.6702C11.6651 31.3219 11.2789 31.1282 10.7767 31.1282C9.73386 31.1282 8.92271 31.9413 8.92271 33.064C8.92271 34.1868 9.73386 34.9998 10.7767 34.9998C11.3176 34.9998 11.7039 34.8063 11.9356 34.4578V34.9224H12.7467V33.064ZM9.73386 33.064C9.73386 32.4058 10.1588 31.8638 10.854 31.8638C11.5107 31.8638 11.9743 32.3672 11.9743 33.064C11.9743 33.7222 11.5107 34.2642 10.854 34.2642C10.1588 34.2254 9.73386 33.7222 9.73386 33.064Z" fill="black"/>
<path d="M16.4163 2.98145H28.5836V24.8952H16.4163V2.98145Z" fill="#FF5F00"/>
<path d="M17.1889 13.9381C17.1889 9.48571 19.2747 5.53651 22.4806 2.98113C20.1245 1.12275 17.1504 0 13.9057 0C6.21878 0 0 6.23333 0 13.9381C0 21.6427 6.21878 27.8762 13.9056 27.8762C17.1502 27.8762 20.1243 26.7534 22.4806 24.8949C19.2747 22.3783 17.1889 18.3905 17.1889 13.9381Z" fill="#EB001B"/>
<path d="M44.9999 13.9381C44.9999 21.6427 38.7811 27.8762 31.0943 27.8762C27.8497 27.8762 24.8755 26.7534 22.5193 24.8949C25.7639 22.3397 27.8111 18.3905 27.8111 13.9381C27.8111 9.48571 25.7252 5.53651 22.5193 2.98113C24.8753 1.12275 27.8497 0 31.0943 0C38.7811 0 45 6.27213 45 13.9381H44.9999Z" fill="#F79E1B"/>
</svg>
