<svg width="280" height="66" viewBox="0 0 280 66" fill="none" xmlns="http://www.w3.org/2000/svg">
<path d="M106.239 6.32L101.295 23H98.1988L94.6948 10.376L90.9748 23L87.9028 23.024L83.1748 6.32H86.0788L89.5348 19.904L93.2788 6.32H96.3508L99.8308 19.832L103.311 6.32H106.239ZM120.615 16.064C120.615 16.56 120.583 17.008 120.519 17.408H110.415C110.495 18.464 110.887 19.312 111.591 19.952C112.295 20.592 113.159 20.912 114.183 20.912C115.655 20.912 116.695 20.296 117.303 19.064H120.255C119.855 20.28 119.127 21.28 118.071 22.064C117.031 22.832 115.735 23.216 114.183 23.216C112.919 23.216 111.783 22.936 110.775 22.376C109.783 21.8 108.999 21 108.423 19.976C107.863 18.936 107.583 17.736 107.583 16.376C107.583 15.016 107.855 13.824 108.399 12.8C108.959 11.76 109.735 10.96 110.727 10.4C111.735 9.84 112.887 9.56 114.183 9.56C115.431 9.56 116.543 9.832 117.519 10.376C118.495 10.92 119.255 11.688 119.799 12.68C120.343 13.656 120.615 14.784 120.615 16.064ZM117.759 15.2C117.743 14.192 117.383 13.384 116.679 12.776C115.975 12.168 115.103 11.864 114.063 11.864C113.119 11.864 112.311 12.168 111.639 12.776C110.967 13.368 110.567 14.176 110.439 15.2H117.759ZM126.044 5.24V23H123.308V5.24H126.044ZM128.724 16.376C128.724 15.016 128.996 13.824 129.54 12.8C130.1 11.76 130.868 10.96 131.844 10.4C132.82 9.84 133.94 9.56 135.204 9.56C136.804 9.56 138.124 9.944 139.164 10.712C140.22 11.464 140.932 12.544 141.3 13.952H138.348C138.108 13.296 137.724 12.784 137.196 12.416C136.668 12.048 136.004 11.864 135.204 11.864C134.084 11.864 133.188 12.264 132.516 13.064C131.86 13.848 131.532 14.952 131.532 16.376C131.532 17.8 131.86 18.912 132.516 19.712C133.188 20.512 134.084 20.912 135.204 20.912C136.788 20.912 137.836 20.216 138.348 18.824H141.3C140.916 20.168 140.196 21.24 139.14 22.04C138.084 22.824 136.772 23.216 135.204 23.216C133.94 23.216 132.82 22.936 131.844 22.376C130.868 21.8 130.1 21 129.54 19.976C128.996 18.936 128.724 17.736 128.724 16.376ZM149.763 23.216C148.515 23.216 147.387 22.936 146.379 22.376C145.371 21.8 144.579 21 144.003 19.976C143.427 18.936 143.139 17.736 143.139 16.376C143.139 15.032 143.435 13.84 144.027 12.8C144.619 11.76 145.427 10.96 146.451 10.4C147.475 9.84 148.619 9.56 149.883 9.56C151.147 9.56 152.291 9.84 153.315 10.4C154.339 10.96 155.147 11.76 155.739 12.8C156.331 13.84 156.627 15.032 156.627 16.376C156.627 17.72 156.323 18.912 155.715 19.952C155.107 20.992 154.275 21.8 153.219 22.376C152.179 22.936 151.027 23.216 149.763 23.216ZM149.763 20.84C150.467 20.84 151.123 20.672 151.731 20.336C152.355 20 152.859 19.496 153.243 18.824C153.627 18.152 153.819 17.336 153.819 16.376C153.819 15.416 153.635 14.608 153.267 13.952C152.899 13.28 152.411 12.776 151.803 12.44C151.195 12.104 150.539 11.936 149.835 11.936C149.131 11.936 148.475 12.104 147.867 12.44C147.275 12.776 146.803 13.28 146.451 13.952C146.099 14.608 145.923 15.416 145.923 16.376C145.923 17.8 146.283 18.904 147.003 19.688C147.739 20.456 148.659 20.84 149.763 20.84ZM175.339 9.56C176.379 9.56 177.307 9.776 178.123 10.208C178.955 10.64 179.603 11.28 180.067 12.128C180.547 12.976 180.787 14 180.787 15.2V23H178.075V15.608C178.075 14.424 177.779 13.52 177.187 12.896C176.595 12.256 175.787 11.936 174.763 11.936C173.739 11.936 172.923 12.256 172.315 12.896C171.723 13.52 171.427 14.424 171.427 15.608V23H168.715V15.608C168.715 14.424 168.419 13.52 167.827 12.896C167.235 12.256 166.427 11.936 165.403 11.936C164.379 11.936 163.563 12.256 162.955 12.896C162.363 13.52 162.067 14.424 162.067 15.608V23H159.331V9.776H162.067V11.288C162.515 10.744 163.083 10.32 163.771 10.016C164.459 9.712 165.195 9.56 165.979 9.56C167.035 9.56 167.979 9.784 168.811 10.232C169.643 10.68 170.283 11.328 170.731 12.176C171.131 11.376 171.755 10.744 172.603 10.28C173.451 9.8 174.363 9.56 175.339 9.56ZM196.389 16.064C196.389 16.56 196.357 17.008 196.293 17.408H186.189C186.269 18.464 186.661 19.312 187.365 19.952C188.069 20.592 188.933 20.912 189.957 20.912C191.429 20.912 192.469 20.296 193.077 19.064H196.029C195.629 20.28 194.901 21.28 193.845 22.064C192.805 22.832 191.509 23.216 189.957 23.216C188.693 23.216 187.557 22.936 186.549 22.376C185.557 21.8 184.773 21 184.197 19.976C183.637 18.936 183.357 17.736 183.357 16.376C183.357 15.016 183.629 13.824 184.173 12.8C184.733 11.76 185.509 10.96 186.501 10.4C187.509 9.84 188.661 9.56 189.957 9.56C191.205 9.56 192.317 9.832 193.293 10.376C194.269 10.92 195.029 11.688 195.573 12.68C196.117 13.656 196.389 14.784 196.389 16.064ZM193.533 15.2C193.517 14.192 193.157 13.384 192.453 12.776C191.749 12.168 190.877 11.864 189.837 11.864C188.893 11.864 188.085 12.168 187.413 12.776C186.741 13.368 186.341 14.176 186.213 15.2H193.533Z" fill="#2A2A2A"/>
<path d="M17.1678 48.848V60H15.7118V54.944H10.0318V60H8.57575V48.848H10.0318V53.744H15.7118V48.848H17.1678ZM19.1099 55.584C19.1099 54.688 19.2912 53.904 19.6539 53.232C20.0165 52.5493 20.5125 52.0213 21.1419 51.648C21.7819 51.2747 22.4912 51.088 23.2699 51.088C24.0379 51.088 24.7045 51.2533 25.2699 51.584C25.8352 51.9147 26.2565 52.3307 26.5339 52.832V51.232H28.0059V60H26.5339V58.368C26.2459 58.88 25.8139 59.3067 25.2379 59.648C24.6725 59.9787 24.0112 60.144 23.2539 60.144C22.4752 60.144 21.7712 59.952 21.1419 59.568C20.5125 59.184 20.0165 58.6453 19.6539 57.952C19.2912 57.2587 19.1099 56.4693 19.1099 55.584ZM26.5339 55.6C26.5339 54.9387 26.4005 54.3627 26.1339 53.872C25.8672 53.3813 25.5045 53.008 25.0459 52.752C24.5979 52.4853 24.1019 52.352 23.5579 52.352C23.0139 52.352 22.5179 52.48 22.0699 52.736C21.6219 52.992 21.2645 53.3653 20.9979 53.856C20.7312 54.3467 20.5979 54.9227 20.5979 55.584C20.5979 56.256 20.7312 56.8427 20.9979 57.344C21.2645 57.8347 21.6219 58.2133 22.0699 58.48C22.5179 58.736 23.0139 58.864 23.5579 58.864C24.1019 58.864 24.5979 58.736 25.0459 58.48C25.5045 58.2133 25.8672 57.8347 26.1339 57.344C26.4005 56.8427 26.5339 56.2613 26.5339 55.6ZM33.7304 58.656L36.4504 51.232H38.0024L34.5624 60H32.8664L29.4264 51.232H30.9944L33.7304 58.656ZM47.4351 55.28C47.4351 55.5573 47.4191 55.8507 47.3871 56.16H40.3791C40.4325 57.024 40.7258 57.7013 41.2591 58.192C41.8031 58.672 42.4591 58.912 43.2271 58.912C43.8565 58.912 44.3791 58.768 44.7951 58.48C45.2218 58.1813 45.5205 57.7867 45.6911 57.296H47.2591C47.0245 58.1387 46.5551 58.8267 45.8511 59.36C45.1471 59.8827 44.2725 60.144 43.2271 60.144C42.3951 60.144 41.6485 59.9573 40.9871 59.584C40.3365 59.2107 39.8245 58.6827 39.4511 58C39.0778 57.3067 38.8911 56.5067 38.8911 55.6C38.8911 54.6933 39.0725 53.8987 39.4351 53.216C39.7978 52.5333 40.3045 52.0107 40.9551 51.648C41.6165 51.2747 42.3738 51.088 43.2271 51.088C44.0591 51.088 44.7951 51.2693 45.4351 51.632C46.0751 51.9947 46.5658 52.496 46.9071 53.136C47.2591 53.7653 47.4351 54.48 47.4351 55.28ZM45.9311 54.976C45.9311 54.4213 45.8085 53.9467 45.5631 53.552C45.3178 53.1467 44.9818 52.8427 44.5551 52.64C44.1391 52.4267 43.6751 52.32 43.1631 52.32C42.4271 52.32 41.7978 52.5547 41.2751 53.024C40.7631 53.4933 40.4698 54.144 40.3951 54.976H45.9311ZM53.0786 55.584C53.0786 54.688 53.26 53.904 53.6226 53.232C53.9853 52.5493 54.4813 52.0213 55.1106 51.648C55.7506 51.2747 56.46 51.088 57.2386 51.088C58.0066 51.088 58.6733 51.2533 59.2386 51.584C59.804 51.9147 60.2253 52.3307 60.5026 52.832V51.232H61.9746V60H60.5026V58.368C60.2146 58.88 59.7826 59.3067 59.2066 59.648C58.6413 59.9787 57.98 60.144 57.2226 60.144C56.444 60.144 55.74 59.952 55.1106 59.568C54.4813 59.184 53.9853 58.6453 53.6226 57.952C53.26 57.2587 53.0786 56.4693 53.0786 55.584ZM60.5026 55.6C60.5026 54.9387 60.3693 54.3627 60.1026 53.872C59.836 53.3813 59.4733 53.008 59.0146 52.752C58.5666 52.4853 58.0706 52.352 57.5266 52.352C56.9826 52.352 56.4866 52.48 56.0386 52.736C55.5906 52.992 55.2333 53.3653 54.9666 53.856C54.7 54.3467 54.5666 54.9227 54.5666 55.584C54.5666 56.256 54.7 56.8427 54.9666 57.344C55.2333 57.8347 55.5906 58.2133 56.0386 58.48C56.4866 58.736 56.9826 58.864 57.5266 58.864C58.0706 58.864 58.5666 58.736 59.0146 58.48C59.4733 58.2133 59.836 57.8347 60.1026 57.344C60.3693 56.8427 60.5026 56.2613 60.5026 55.6ZM70.1568 52.864C70.4554 52.3413 70.8928 51.9147 71.4688 51.584C72.0448 51.2533 72.7008 51.088 73.4368 51.088C74.2261 51.088 74.9354 51.2747 75.5648 51.648C76.1941 52.0213 76.6901 52.5493 77.0528 53.232C77.4154 53.904 77.5968 54.688 77.5968 55.584C77.5968 56.4693 77.4154 57.2587 77.0528 57.952C76.6901 58.6453 76.1887 59.184 75.5487 59.568C74.9194 59.952 74.2154 60.144 73.4368 60.144C72.6794 60.144 72.0128 59.9787 71.4368 59.648C70.8714 59.3173 70.4448 58.896 70.1568 58.384V60H68.7008V48.16H70.1568V52.864ZM76.1088 55.584C76.1088 54.9227 75.9754 54.3467 75.7088 53.856C75.4421 53.3653 75.0794 52.992 74.6208 52.736C74.1728 52.48 73.6768 52.352 73.1328 52.352C72.5994 52.352 72.1034 52.4853 71.6448 52.752C71.1968 53.008 70.8341 53.3867 70.5568 53.888C70.2901 54.3787 70.1568 54.9493 70.1568 55.6C70.1568 56.2613 70.2901 56.8427 70.5568 57.344C70.8341 57.8347 71.1968 58.2133 71.6448 58.48C72.1034 58.736 72.5994 58.864 73.1328 58.864C73.6768 58.864 74.1728 58.736 74.6208 58.48C75.0794 58.2133 75.4421 57.8347 75.7088 57.344C75.9754 56.8427 76.1088 56.256 76.1088 55.584ZM87.5133 55.28C87.5133 55.5573 87.4973 55.8507 87.4653 56.16H80.4573C80.5106 57.024 80.8039 57.7013 81.3373 58.192C81.8813 58.672 82.5373 58.912 83.3053 58.912C83.9346 58.912 84.4573 58.768 84.8733 58.48C85.2999 58.1813 85.5986 57.7867 85.7693 57.296H87.3373C87.1026 58.1387 86.6333 58.8267 85.9293 59.36C85.2253 59.8827 84.3506 60.144 83.3053 60.144C82.4733 60.144 81.7266 59.9573 81.0653 59.584C80.4146 59.2107 79.9026 58.6827 79.5293 58C79.1559 57.3067 78.9693 56.5067 78.9693 55.6C78.9693 54.6933 79.1506 53.8987 79.5133 53.216C79.8759 52.5333 80.3826 52.0107 81.0333 51.648C81.6946 51.2747 82.4519 51.088 83.3053 51.088C84.1373 51.088 84.8733 51.2693 85.5133 51.632C86.1533 51.9947 86.6439 52.496 86.9853 53.136C87.3373 53.7653 87.5133 54.48 87.5133 55.28ZM86.0093 54.976C86.0093 54.4213 85.8866 53.9467 85.6413 53.552C85.3959 53.1467 85.0599 52.8427 84.6333 52.64C84.2173 52.4267 83.7533 52.32 83.2413 52.32C82.5053 52.32 81.8759 52.5547 81.3533 53.024C80.8413 53.4933 80.5479 54.144 80.4733 54.976H86.0093ZM91.2111 52.432V57.6C91.2111 58.0267 91.3018 58.3307 91.4831 58.512C91.6645 58.6827 91.9791 58.768 92.4271 58.768H93.4991V60H92.1871C91.3765 60 90.7685 59.8133 90.3631 59.44C89.9578 59.0667 89.7551 58.4533 89.7551 57.6V52.432H88.6191V51.232H89.7551V49.024H91.2111V51.232H93.4991V52.432H91.2111ZM97.0393 52.432V57.6C97.0393 58.0267 97.1299 58.3307 97.3113 58.512C97.4926 58.6827 97.8073 58.768 98.2552 58.768H99.3273V60H98.0153C97.2046 60 96.5966 59.8133 96.1913 59.44C95.7859 59.0667 95.5833 58.4533 95.5833 57.6V52.432H94.4473V51.232H95.5833V49.024H97.0393V51.232H99.3273V52.432H97.0393ZM109.091 55.28C109.091 55.5573 109.075 55.8507 109.043 56.16H102.035C102.089 57.024 102.382 57.7013 102.915 58.192C103.459 58.672 104.115 58.912 104.883 58.912C105.513 58.912 106.035 58.768 106.451 58.48C106.878 58.1813 107.177 57.7867 107.347 57.296H108.915C108.681 58.1387 108.211 58.8267 107.507 59.36C106.803 59.8827 105.929 60.144 104.883 60.144C104.051 60.144 103.305 59.9573 102.643 59.584C101.993 59.2107 101.481 58.6827 101.107 58C100.734 57.3067 100.547 56.5067 100.547 55.6C100.547 54.6933 100.729 53.8987 101.091 53.216C101.454 52.5333 101.961 52.0107 102.611 51.648C103.273 51.2747 104.03 51.088 104.883 51.088C105.715 51.088 106.451 51.2693 107.091 51.632C107.731 51.9947 108.222 52.496 108.563 53.136C108.915 53.7653 109.091 54.48 109.091 55.28ZM107.587 54.976C107.587 54.4213 107.465 53.9467 107.219 53.552C106.974 53.1467 106.638 52.8427 106.211 52.64C105.795 52.4267 105.331 52.32 104.819 52.32C104.083 52.32 103.454 52.5547 102.931 53.024C102.419 53.4933 102.126 54.144 102.051 54.976H107.587ZM112.469 52.656C112.725 52.1547 113.088 51.7653 113.557 51.488C114.037 51.2107 114.619 51.072 115.301 51.072V52.576H114.917C113.285 52.576 112.469 53.4613 112.469 55.232V60H111.013V51.232H112.469V52.656ZM124.352 60.144C123.68 60.144 123.077 60.032 122.544 59.808C122.01 59.5733 121.589 59.2533 121.28 58.848C120.97 58.432 120.8 57.9573 120.768 57.424H122.272C122.314 57.8613 122.517 58.2187 122.88 58.496C123.253 58.7733 123.738 58.912 124.336 58.912C124.89 58.912 125.328 58.7893 125.648 58.544C125.968 58.2987 126.128 57.9893 126.128 57.616C126.128 57.232 125.957 56.9493 125.616 56.768C125.274 56.576 124.746 56.3893 124.032 56.208C123.381 56.0373 122.848 55.8667 122.432 55.696C122.026 55.5147 121.674 55.2533 121.376 54.912C121.088 54.56 120.944 54.1013 120.944 53.536C120.944 53.088 121.077 52.6773 121.344 52.304C121.61 51.9307 121.989 51.6373 122.48 51.424C122.97 51.2 123.53 51.088 124.16 51.088C125.13 51.088 125.914 51.3333 126.512 51.824C127.109 52.3147 127.429 52.9867 127.472 53.84H126.016C125.984 53.3813 125.797 53.0133 125.456 52.736C125.125 52.4587 124.677 52.32 124.112 52.32C123.589 52.32 123.173 52.432 122.864 52.656C122.554 52.88 122.4 53.1733 122.4 53.536C122.4 53.824 122.49 54.064 122.672 54.256C122.864 54.4373 123.098 54.5867 123.376 54.704C123.664 54.8107 124.058 54.9333 124.56 55.072C125.189 55.2427 125.701 55.4133 126.096 55.584C126.49 55.744 126.826 55.9893 127.104 56.32C127.392 56.6507 127.541 57.0827 127.552 57.616C127.552 58.096 127.418 58.528 127.152 58.912C126.885 59.296 126.506 59.6 126.016 59.824C125.536 60.0373 124.981 60.144 124.352 60.144ZM133.959 51.072C134.62 51.072 135.218 51.216 135.751 51.504C136.284 51.7813 136.7 52.2027 136.999 52.768C137.308 53.3333 137.463 54.0213 137.463 54.832V60H136.023V55.04C136.023 54.1653 135.804 53.4987 135.367 53.04C134.93 52.5707 134.332 52.336 133.575 52.336C132.807 52.336 132.194 52.576 131.735 53.056C131.287 53.536 131.063 54.2347 131.063 55.152V60H129.607V48.16H131.063V52.48C131.351 52.032 131.746 51.6853 132.247 51.44C132.759 51.1947 133.33 51.072 133.959 51.072ZM139.297 55.584C139.297 54.688 139.479 53.904 139.841 53.232C140.204 52.5493 140.7 52.0213 141.329 51.648C141.969 51.2747 142.679 51.088 143.457 51.088C144.225 51.088 144.892 51.2533 145.457 51.584C146.023 51.9147 146.444 52.3307 146.721 52.832V51.232H148.193V60H146.721V58.368C146.433 58.88 146.001 59.3067 145.425 59.648C144.86 59.9787 144.199 60.144 143.441 60.144C142.663 60.144 141.959 59.952 141.329 59.568C140.7 59.184 140.204 58.6453 139.841 57.952C139.479 57.2587 139.297 56.4693 139.297 55.584ZM146.721 55.6C146.721 54.9387 146.588 54.3627 146.321 53.872C146.055 53.3813 145.692 53.008 145.233 52.752C144.785 52.4853 144.289 52.352 143.745 52.352C143.201 52.352 142.705 52.48 142.257 52.736C141.809 52.992 141.452 53.3653 141.185 53.856C140.919 54.3467 140.785 54.9227 140.785 55.584C140.785 56.256 140.919 56.8427 141.185 57.344C141.452 57.8347 141.809 58.2133 142.257 58.48C142.705 58.736 143.201 58.864 143.745 58.864C144.289 58.864 144.785 58.736 145.233 58.48C145.692 58.2133 146.055 57.8347 146.321 57.344C146.588 56.8427 146.721 56.2613 146.721 55.6ZM152.11 52.656C152.366 52.1547 152.729 51.7653 153.198 51.488C153.678 51.2107 154.259 51.072 154.942 51.072V52.576H154.558C152.926 52.576 152.11 53.4613 152.11 55.232V60H150.654V51.232H152.11V52.656ZM157.375 49.808C157.097 49.808 156.863 49.712 156.671 49.52C156.479 49.328 156.383 49.0933 156.383 48.816C156.383 48.5387 156.479 48.304 156.671 48.112C156.863 47.92 157.097 47.824 157.375 47.824C157.641 47.824 157.865 47.92 158.047 48.112C158.239 48.304 158.335 48.5387 158.335 48.816C158.335 49.0933 158.239 49.328 158.047 49.52C157.865 49.712 157.641 49.808 157.375 49.808ZM158.079 51.232V60H156.623V51.232H158.079ZM164.832 51.072C165.899 51.072 166.763 51.3973 167.424 52.048C168.085 52.688 168.416 53.616 168.416 54.832V60H166.976V55.04C166.976 54.1653 166.757 53.4987 166.32 53.04C165.883 52.5707 165.285 52.336 164.528 52.336C163.76 52.336 163.147 52.576 162.688 53.056C162.24 53.536 162.016 54.2347 162.016 55.152V60H160.56V51.232H162.016V52.48C162.304 52.032 162.693 51.6853 163.184 51.44C163.685 51.1947 164.235 51.072 164.832 51.072ZM174.411 51.088C175.168 51.088 175.829 51.2533 176.395 51.584C176.971 51.9147 177.397 52.3307 177.675 52.832V51.232H179.147V60.192C179.147 60.992 178.976 61.7013 178.635 62.32C178.293 62.9493 177.803 63.44 177.163 63.792C176.533 64.144 175.797 64.32 174.955 64.32C173.803 64.32 172.843 64.048 172.075 63.504C171.307 62.96 170.853 62.2187 170.715 61.28H172.155C172.315 61.8133 172.645 62.24 173.147 62.56C173.648 62.8907 174.251 63.056 174.955 63.056C175.755 63.056 176.405 62.8053 176.907 62.304C177.419 61.8027 177.675 61.0987 177.675 60.192V58.352C177.387 58.864 176.96 59.2907 176.395 59.632C175.829 59.9733 175.168 60.144 174.411 60.144C173.632 60.144 172.923 59.952 172.283 59.568C171.653 59.184 171.157 58.6453 170.795 57.952C170.432 57.2587 170.251 56.4693 170.251 55.584C170.251 54.688 170.432 53.904 170.795 53.232C171.157 52.5493 171.653 52.0213 172.283 51.648C172.923 51.2747 173.632 51.088 174.411 51.088ZM177.675 55.6C177.675 54.9387 177.541 54.3627 177.275 53.872C177.008 53.3813 176.645 53.008 176.187 52.752C175.739 52.4853 175.243 52.352 174.699 52.352C174.155 52.352 173.659 52.48 173.211 52.736C172.763 52.992 172.405 53.3653 172.139 53.856C171.872 54.3467 171.739 54.9227 171.739 55.584C171.739 56.256 171.872 56.8427 172.139 57.344C172.405 57.8347 172.763 58.2133 173.211 58.48C173.659 58.736 174.155 58.864 174.699 58.864C175.243 58.864 175.739 58.736 176.187 58.48C176.645 58.2133 177.008 57.8347 177.275 57.344C177.541 56.8427 177.675 56.2613 177.675 55.6ZM193.873 55.28C193.873 55.5573 193.857 55.8507 193.825 56.16H186.817C186.87 57.024 187.163 57.7013 187.697 58.192C188.241 58.672 188.897 58.912 189.665 58.912C190.294 58.912 190.817 58.768 191.233 58.48C191.659 58.1813 191.958 57.7867 192.129 57.296H193.697C193.462 58.1387 192.993 58.8267 192.289 59.36C191.585 59.8827 190.71 60.144 189.665 60.144C188.833 60.144 188.086 59.9573 187.425 59.584C186.774 59.2107 186.262 58.6827 185.889 58C185.515 57.3067 185.329 56.5067 185.329 55.6C185.329 54.6933 185.51 53.8987 185.873 53.216C186.235 52.5333 186.742 52.0107 187.393 51.648C188.054 51.2747 188.811 51.088 189.665 51.088C190.497 51.088 191.233 51.2693 191.873 51.632C192.513 51.9947 193.003 52.496 193.345 53.136C193.697 53.7653 193.873 54.48 193.873 55.28ZM192.369 54.976C192.369 54.4213 192.246 53.9467 192.001 53.552C191.755 53.1467 191.419 52.8427 190.993 52.64C190.577 52.4267 190.113 52.32 189.601 52.32C188.865 52.32 188.235 52.5547 187.713 53.024C187.201 53.4933 186.907 54.144 186.833 54.976H192.369ZM200.371 60L198.291 56.736L196.291 60H194.771L197.603 55.648L194.771 51.232H196.419L198.499 54.48L200.483 51.232H202.003L199.187 55.568L202.019 60H200.371ZM204.907 52.848C205.195 52.3467 205.621 51.9307 206.187 51.6C206.763 51.2587 207.429 51.088 208.187 51.088C208.965 51.088 209.669 51.2747 210.299 51.648C210.939 52.0213 211.44 52.5493 211.803 53.232C212.165 53.904 212.347 54.688 212.347 55.584C212.347 56.4693 212.165 57.2587 211.803 57.952C211.44 58.6453 210.939 59.184 210.299 59.568C209.669 59.952 208.965 60.144 208.187 60.144C207.44 60.144 206.779 59.9787 206.203 59.648C205.637 59.3067 205.205 58.8853 204.907 58.384V64.16H203.451V51.232H204.907V52.848ZM210.859 55.584C210.859 54.9227 210.725 54.3467 210.459 53.856C210.192 53.3653 209.829 52.992 209.371 52.736C208.923 52.48 208.427 52.352 207.883 52.352C207.349 52.352 206.853 52.4853 206.395 52.752C205.947 53.008 205.584 53.3867 205.307 53.888C205.04 54.3787 204.907 54.9493 204.907 55.6C204.907 56.2613 205.04 56.8427 205.307 57.344C205.584 57.8347 205.947 58.2133 206.395 58.48C206.853 58.736 207.349 58.864 207.883 58.864C208.427 58.864 208.923 58.736 209.371 58.48C209.829 58.2133 210.192 57.8347 210.459 57.344C210.725 56.8427 210.859 56.256 210.859 55.584ZM222.263 55.28C222.263 55.5573 222.247 55.8507 222.215 56.16H215.207C215.261 57.024 215.554 57.7013 216.087 58.192C216.631 58.672 217.287 58.912 218.055 58.912C218.685 58.912 219.207 58.768 219.623 58.48C220.05 58.1813 220.349 57.7867 220.519 57.296H222.087C221.853 58.1387 221.383 58.8267 220.679 59.36C219.975 59.8827 219.101 60.144 218.055 60.144C217.223 60.144 216.477 59.9573 215.815 59.584C215.165 59.2107 214.653 58.6827 214.279 58C213.906 57.3067 213.719 56.5067 213.719 55.6C213.719 54.6933 213.901 53.8987 214.263 53.216C214.626 52.5333 215.133 52.0107 215.783 51.648C216.445 51.2747 217.202 51.088 218.055 51.088C218.887 51.088 219.623 51.2693 220.263 51.632C220.903 51.9947 221.394 52.496 221.735 53.136C222.087 53.7653 222.263 54.48 222.263 55.28ZM220.759 54.976C220.759 54.4213 220.637 53.9467 220.391 53.552C220.146 53.1467 219.81 52.8427 219.383 52.64C218.967 52.4267 218.503 52.32 217.991 52.32C217.255 52.32 216.626 52.5547 216.103 53.024C215.591 53.4933 215.298 54.144 215.223 54.976H220.759ZM225.641 52.656C225.897 52.1547 226.26 51.7653 226.729 51.488C227.209 51.2107 227.79 51.072 228.473 51.072V52.576H228.089C226.457 52.576 225.641 53.4613 225.641 55.232V60H224.185V51.232H225.641V52.656ZM230.906 49.808C230.629 49.808 230.394 49.712 230.202 49.52C230.01 49.328 229.914 49.0933 229.914 48.816C229.914 48.5387 230.01 48.304 230.202 48.112C230.394 47.92 230.629 47.824 230.906 47.824C231.173 47.824 231.397 47.92 231.578 48.112C231.77 48.304 231.866 48.5387 231.866 48.816C231.866 49.0933 231.77 49.328 231.578 49.52C231.397 49.712 231.173 49.808 230.906 49.808ZM231.61 51.232V60H230.154V51.232H231.61ZM242.091 55.28C242.091 55.5573 242.075 55.8507 242.043 56.16H235.035C235.089 57.024 235.382 57.7013 235.915 58.192C236.459 58.672 237.115 58.912 237.883 58.912C238.513 58.912 239.035 58.768 239.451 58.48C239.878 58.1813 240.177 57.7867 240.347 57.296H241.915C241.681 58.1387 241.211 58.8267 240.507 59.36C239.803 59.8827 238.929 60.144 237.883 60.144C237.051 60.144 236.305 59.9573 235.643 59.584C234.993 59.2107 234.481 58.6827 234.107 58C233.734 57.3067 233.547 56.5067 233.547 55.6C233.547 54.6933 233.729 53.8987 234.091 53.216C234.454 52.5333 234.961 52.0107 235.611 51.648C236.273 51.2747 237.03 51.088 237.883 51.088C238.715 51.088 239.451 51.2693 240.091 51.632C240.731 51.9947 241.222 52.496 241.563 53.136C241.915 53.7653 242.091 54.48 242.091 55.28ZM240.587 54.976C240.587 54.4213 240.465 53.9467 240.219 53.552C239.974 53.1467 239.638 52.8427 239.211 52.64C238.795 52.4267 238.331 52.32 237.819 52.32C237.083 52.32 236.454 52.5547 235.931 53.024C235.419 53.4933 235.126 54.144 235.051 54.976H240.587ZM248.285 51.072C249.352 51.072 250.216 51.3973 250.877 52.048C251.539 52.688 251.869 53.616 251.869 54.832V60H250.429V55.04C250.429 54.1653 250.211 53.4987 249.773 53.04C249.336 52.5707 248.739 52.336 247.981 52.336C247.213 52.336 246.6 52.576 246.141 53.056C245.693 53.536 245.469 54.2347 245.469 55.152V60H244.013V51.232H245.469V52.48C245.757 52.032 246.147 51.6853 246.637 51.44C247.139 51.1947 247.688 51.072 248.285 51.072ZM253.704 55.6C253.704 54.6933 253.885 53.904 254.248 53.232C254.61 52.5493 255.112 52.0213 255.752 51.648C256.402 51.2747 257.144 51.088 257.976 51.088C259.053 51.088 259.938 51.3493 260.632 51.872C261.336 52.3947 261.8 53.12 262.024 54.048H260.456C260.306 53.5147 260.013 53.0933 259.576 52.784C259.149 52.4747 258.616 52.32 257.976 52.32C257.144 52.32 256.472 52.608 255.96 53.184C255.448 53.7493 255.192 54.5547 255.192 55.6C255.192 56.656 255.448 57.472 255.96 58.048C256.472 58.624 257.144 58.912 257.976 58.912C258.616 58.912 259.149 58.7627 259.576 58.464C260.002 58.1653 260.296 57.7387 260.456 57.184H262.024C261.789 58.08 261.32 58.8 260.616 59.344C259.912 59.8773 259.032 60.144 257.976 60.144C257.144 60.144 256.402 59.9573 255.752 59.584C255.112 59.2107 254.61 58.6827 254.248 58C253.885 57.3173 253.704 56.5173 253.704 55.6ZM271.966 55.28C271.966 55.5573 271.95 55.8507 271.918 56.16H264.91C264.964 57.024 265.257 57.7013 265.79 58.192C266.334 58.672 266.99 58.912 267.758 58.912C268.388 58.912 268.91 58.768 269.326 58.48C269.753 58.1813 270.052 57.7867 270.222 57.296H271.79C271.556 58.1387 271.086 58.8267 270.382 59.36C269.678 59.8827 268.804 60.144 267.758 60.144C266.926 60.144 266.18 59.9573 265.518 59.584C264.868 59.2107 264.356 58.6827 263.982 58C263.609 57.3067 263.422 56.5067 263.422 55.6C263.422 54.6933 263.604 53.8987 263.966 53.216C264.329 52.5333 264.836 52.0107 265.486 51.648C266.148 51.2747 266.905 51.088 267.758 51.088C268.59 51.088 269.326 51.2693 269.966 51.632C270.606 51.9947 271.097 52.496 271.438 53.136C271.79 53.7653 271.966 54.48 271.966 55.28ZM270.462 54.976C270.462 54.4213 270.34 53.9467 270.094 53.552C269.849 53.1467 269.513 52.8427 269.086 52.64C268.67 52.4267 268.206 52.32 267.694 52.32C266.958 52.32 266.329 52.5547 265.806 53.024C265.294 53.4933 265.001 54.144 264.926 54.976H270.462Z" fill="#A0A0A0"/>
</svg>
