<svg width="15" height="20" viewBox="0 0 15 20" fill="none" xmlns="http://www.w3.org/2000/svg">
<path fill-rule="evenodd" clip-rule="evenodd" d="M7.5 1.53027C10.8137 1.53027 13.5 4.21657 13.5 7.53027V7.89167C13.5 9.21753 13.0857 10.5103 12.3151 11.5892L7.51185 18.3137C7.50604 18.3218 7.49396 18.3218 7.48815 18.3137L2.68491 11.5892C1.91427 10.5103 1.5 9.21753 1.5 7.89167L1.5 7.53027C1.5 4.21657 4.18629 1.53027 7.5 1.53027ZM10.1351 6.96459C9.9521 6.16265 9.41385 5.4877 8.67275 5.13081C7.93164 4.77391 7.06835 4.77391 6.32725 5.13081C5.58615 5.4877 5.0479 6.16265 4.86486 6.96459C4.68182 7.76653 4.87392 8.60817 5.38678 9.25128C5.89964 9.89438 6.67744 10.2689 7.5 10.2689C8.32256 10.2689 9.10036 9.89438 9.61322 9.25128C10.1261 8.60817 10.3182 7.76653 10.1351 6.96459Z" fill="#FEC400"/>
<path d="M12.3151 11.5892L13.5357 12.461V12.461L12.3151 11.5892ZM7.51185 18.3137L8.73245 19.1855L8.73245 19.1855L7.51185 18.3137ZM7.48815 18.3137L6.26755 19.1855L6.26755 19.1855L7.48815 18.3137ZM2.68491 11.5892L1.46431 12.461H1.46431L2.68491 11.5892ZM8.67275 5.13081L8.02192 6.48226L8.67275 5.13081ZM10.1351 6.96459L8.67274 7.29837V7.29837L10.1351 6.96459ZM4.86486 6.96459L3.40247 6.63081L3.40247 6.63081L4.86486 6.96459ZM5.38678 9.25128L4.21403 10.1865L4.21403 10.1865L5.38678 9.25128ZM9.61322 9.25128L10.786 10.1865H10.786L9.61322 9.25128ZM15 7.53027C15 3.38814 11.6421 0.0302734 7.5 0.0302734V3.03027C9.98528 3.03027 12 5.04499 12 7.53027H15ZM15 7.89167V7.53027H12V7.89167H15ZM13.5357 12.461C14.488 11.1277 15 9.53016 15 7.89167H12C12 8.90489 11.6834 9.8928 11.0945 10.7173L13.5357 12.461ZM8.73245 19.1855L13.5357 12.461L11.0945 10.7173L6.29125 17.4418L8.73245 19.1855ZM6.26755 19.1855C6.87159 20.0312 8.12841 20.0312 8.73245 19.1855L6.29126 17.4418C6.88368 16.6124 8.11632 16.6124 8.70874 17.4418L6.26755 19.1855ZM1.46431 12.461L6.26755 19.1855L8.70875 17.4418L3.90551 10.7173L1.46431 12.461ZM0 7.89167C0 9.53016 0.511958 11.1277 1.46431 12.461L3.90551 10.7173C3.31659 9.8928 3 8.90489 3 7.89167H0ZM0 7.53027L0 7.89167H3V7.53027H0ZM7.5 0.0302734C3.35786 0.0302734 0 3.38814 0 7.53027H3C3 5.04499 5.01472 3.03027 7.5 3.03027V0.0302734ZM8.02192 6.48226C8.35174 6.64109 8.59129 6.94147 8.67274 7.29837L11.5975 6.63081C11.3129 5.38383 10.476 4.33431 9.32357 3.77935L8.02192 6.48226ZM6.97808 6.48226C7.3079 6.32343 7.6921 6.32343 8.02192 6.48226L9.32357 3.77935C8.17119 3.2244 6.82881 3.2244 5.67643 3.77935L6.97808 6.48226ZM6.32725 7.29837C6.40871 6.94147 6.64825 6.64109 6.97808 6.48226L5.67643 3.77935C4.52404 4.33431 3.68708 5.38383 3.40247 6.63081L6.32725 7.29837ZM6.55953 8.31604C6.33128 8.02983 6.24579 7.65527 6.32725 7.29837L3.40247 6.63081C3.11785 7.87779 3.41656 9.18651 4.21403 10.1865L6.55953 8.31604ZM7.5 8.76895C7.13392 8.76895 6.78777 8.60225 6.55953 8.31604L4.21403 10.1865C5.01151 11.1865 6.22095 11.7689 7.5 11.7689L7.5 8.76895ZM8.44047 8.31604C8.21222 8.60225 7.86607 8.76895 7.5 8.76895L7.5 11.7689C8.77905 11.7689 9.98849 11.1865 10.786 10.1865L8.44047 8.31604ZM8.67274 7.29837C8.7542 7.65527 8.66871 8.02983 8.44047 8.31604L10.786 10.1865C11.5834 9.18651 11.8821 7.87779 11.5975 6.63081L8.67274 7.29837Z" fill="#FEC400"/>
</svg>
